<?xml version="1.0" encoding="UTF-8" standalone="no"?>
<!DOCTYPE svg PUBLIC "-//W3C//DTD SVG 1.1//EN"
 "http://www.w3.org/Graphics/SVG/1.1/DTD/svg11.dtd">
<!-- Generated by graphviz version 2.28.0 (20110507.0327)
 -->
<!-- Title: G_4076 Pages: 1 -->
<svg width="716pt" height="1124pt"
 viewBox="0.00 0.00 716.00 1124.00" xmlns="http://www.w3.org/2000/svg" xmlns:xlink="http://www.w3.org/1999/xlink">
<g id="graph1" class="graph" transform="scale(1 1) rotate(0) translate(4 1120)">
<title>G_4076</title>
<polygon fill="white" stroke="white" points="-4,5 -4,-1120 713,-1120 713,5 -4,5"/>
<!-- _4080 -->
<g id="node1" class="node"><title>_4080</title>
<polygon fill="lightblue" stroke="lightblue" points="387,-868 175,-868 175,-796 387,-796 387,-868"/>
<polygon fill="lightblue" stroke="lightblue" points="183,-800 183,-864 379,-864 379,-800 183,-800"/>
<text text-anchor="start" x="187" y="-848.5" font-family="Georgia" font-size="15.00" fill="#00008b">loc_4080 :</text>
<text text-anchor="start" x="187" y="-827.8" font-family="Monospace" font-size="14.00"> &#160;&#160;&#160;cmp &#160;&#160;&#160;&#160;&#160;&#160;&#160;&#160;R00, &#160;&#160;&#160;&#160;&#160;&#160;&#160;&#160;56</text>
<polygon fill="yellow" stroke="yellow" points="185,-802 185,-820 377,-820 377,-802 185,-802"/>
<text text-anchor="start" x="187" y="-807.8" font-family="Monospace" font-size="14.00" fill="red"> &#160;&#160;&#160;jz &#160;&#160;&#160;&#160;&#160;&#160;&#160;&#160;40AE</text>
</g>
<!-- _40AE -->
<g id="node3" class="node"><title>_40AE</title>
<polygon fill="lightblue" stroke="lightblue" points="302.25,-640 -0.25,-640 -0.25,-188 302.25,-188 302.25,-640"/>
<polygon fill="lightblue" stroke="lightblue" points="7.5,-192 7.5,-636 294.5,-636 294.5,-192 7.5,-192"/>
<text text-anchor="start" x="12" y="-620.5" font-family="Georgia" font-size="15.00" fill="#00008b">loc_40AE :</text>
<text text-anchor="start" x="12" y="-599.8" font-family="Monospace" font-size="14.00"> &#160;&#160;&#160;mov &#160;&#160;&#160;&#160;&#160;&#160;&#160;&#160;R09, &#160;&#160;&#160;&#160;&#160;&#160;addrBuffIn</text>
<text text-anchor="start" x="12" y="-579.8" font-family="Monospace" font-size="14.00"> &#160;&#160;&#160;mov &#160;&#160;&#160;&#160;&#160;&#160;&#160;&#160;R01, &#160;&#160;w[R09++]</text>
<text text-anchor="start" x="12" y="-559.8" font-family="Monospace" font-size="14.00"> &#160;&#160;&#160;mov &#160;&#160;&#160;&#160;&#160;&#160;&#160;&#160;R12, &#160;&#160;&#160;&#160;&#160;&#160;&#160;R01</text>
<text text-anchor="start" x="12" y="-539.8" font-family="Monospace" font-size="14.00"> &#160;&#160;&#160;add &#160;&#160;&#160;&#160;&#160;&#160;&#160;&#160;R12, &#160;&#160;&#160;&#160;&#160;&#160;&#160;&#160;10</text>
<text text-anchor="start" x="12" y="-519.8" font-family="Monospace" font-size="14.00"> &#160;&#160;&#160;mov &#160;&#160;&#160;&#160;&#160;&#160;&#160;&#160;R10, &#160;&#160;&#160;&#160;&#160;&#160;CtxtCpy</text>
<text text-anchor="start" x="12" y="-499.8" font-family="Monospace" font-size="14.00"> &#160;&#160;&#160;mov &#160;&#160;&#160;w[R10++], &#160;&#160;&#160;&#160;&#160;&#160;&#160;R12</text>
<text text-anchor="start" x="12" y="-479.8" font-family="Monospace" font-size="14.00"> &#160;&#160;&#160;mov &#160;&#160;&#160;w[R10++], &#160;&#160;&#160;&#160;w[R12]</text>
<text text-anchor="start" x="12" y="-459.8" font-family="Monospace" font-size="14.00"> &#160;&#160;&#160;mov &#160;&#160;&#160;w[R10++], &#160;&#160;w[R12+2]</text>
<text text-anchor="start" x="12" y="-439.8" font-family="Monospace" font-size="14.00"> &#160;&#160;&#160;mov &#160;&#160;&#160;&#160;&#160;&#160;&#160;&#160;R08, &#160;&#160;w[R09++]</text>
<text text-anchor="start" x="12" y="-419.8" font-family="Monospace" font-size="14.00"> &#160;&#160;&#160;mov &#160;&#160;&#160;&#160;&#160;&#160;&#160;&#160;R03, &#160;&#160;&#160;&#160;&#160;&#160;&#160;&#160;14</text>
<text text-anchor="start" x="12" y="-399.8" font-family="Monospace" font-size="14.00"> &#160;&#160;&#160;mov &#160;&#160;&#160;w[R12++], &#160;&#160;&#160;&#160;w[R08]</text>
<text text-anchor="start" x="12" y="-379.8" font-family="Monospace" font-size="14.00"> &#160;&#160;&#160;mov &#160;&#160;&#160;&#160;&#160;&#160;&#160;&#160;R09, &#160;&#160;&#160;&#160;&#160;&#160;406E</text>
<text text-anchor="start" x="12" y="-359.8" font-family="Monospace" font-size="14.00"> &#160;&#160;&#160;mov &#160;&#160;&#160;&#160;&#160;w[R12], &#160;&#160;&#160;&#160;w[R09]</text>
<text text-anchor="start" x="12" y="-339.8" font-family="Monospace" font-size="14.00"> &#160;&#160;&#160;mov &#160;&#160;&#160;&#160;&#160;&#160;&#160;&#160;R08, &#160;&#160;&#160;&#160;&#160;&#160;&#160;R09</text>
<text text-anchor="start" x="12" y="-319.8" font-family="Monospace" font-size="14.00"> &#160;&#160;&#160;xor &#160;&#160;&#160;w[R09++], &#160;&#160;&#160;&#160;w[R09]</text>
<text text-anchor="start" x="12" y="-299.8" font-family="Monospace" font-size="14.00"> &#160;&#160;&#160;mov &#160;&#160;&#160;w[R09++], &#160;&#160;&#160;&#160;&#160;&#160;&#160;R01</text>
<text text-anchor="start" x="12" y="-279.8" font-family="Monospace" font-size="14.00"> &#160;&#160;&#160;mov &#160;&#160;&#160;w[R09++], &#160;&#160;&#160;&#160;&#160;&#160;&#160;R03</text>
<text text-anchor="start" x="12" y="-259.8" font-family="Monospace" font-size="14.00"> &#160;&#160;&#160;mov &#160;&#160;&#160;w[R09++], &#160;&#160;&#160;&#160;&#160;&#160;40E8</text>
<text text-anchor="start" x="12" y="-239.8" font-family="Monospace" font-size="14.00"> &#160;&#160;&#160;mov &#160;&#160;&#160;&#160;&#160;&#160;&#160;&#160;R01, &#160;&#160;&#160;&#160;&#160;&#160;8000</text>
<text text-anchor="start" x="12" y="-219.8" font-family="Monospace" font-size="14.00"> &#160;&#160;&#160;int &#160;&#160;&#160;&#160;&#160;&#160;&#160;&#160;&#160;50</text>
<polygon fill="lightseagreen" stroke="lightseagreen" points="10,-194 10,-212 293,-212 293,-194 10,-194"/>
<text text-anchor="start" x="12" y="-199.8" font-family="Monospace" font-size="14.00"> &#160;&#160;&#160;ret &#160;</text>
</g>
<!-- _4080&#45;&gt;_40AE -->
<g id="edge2" class="edge"><title>_4080&#45;&gt;_40AE</title>
<path fill="none" stroke="green" d="M270.028,-795.891C260.008,-763.825 244.227,-713.327 227.394,-659.462"/>
<polygon fill="green" stroke="green" points="234.051,-657.295 221.404,-640.293 220.688,-661.471 234.051,-657.295"/>
</g>
<!-- _4086 -->
<g id="node5" class="node"><title>_4086</title>
<polygon fill="lightblue" stroke="lightblue" points="503,-440 321,-440 321,-388 503,-388 503,-440"/>
<polygon fill="lightblue" stroke="lightblue" points="329,-392 329,-436 495,-436 495,-392 329,-392"/>
<text text-anchor="start" x="333" y="-420.5" font-family="Georgia" font-size="15.00" fill="#00008b">loc_4086 :</text>
<polygon fill="yellow" stroke="yellow" points="331,-394 331,-412 493,-412 493,-394 331,-394"/>
<text text-anchor="start" x="333" y="-399.8" font-family="Monospace" font-size="14.00"> &#160;&#160;&#160;jmp &#160;&#160;&#160;&#160;&#160;&#160;&#160;40E8</text>
</g>
<!-- _4080&#45;&gt;_4086 -->
<g id="edge4" class="edge"><title>_4080&#45;&gt;_4086</title>
<path fill="none" stroke="red" d="M292.056,-795.891C315.857,-720.308 371.907,-542.32 398.08,-459.204"/>
<polygon fill="red" stroke="red" points="404.793,-461.191 404.124,-440.011 391.44,-456.985 404.793,-461.191"/>
</g>
<!-- _40E8 -->
<g id="node7" class="node"><title>_40E8</title>
<polygon fill="lightblue" stroke="lightblue" points="565,-152 259,-152 259,-0 565,-0 565,-152"/>
<polygon fill="lightblue" stroke="lightblue" points="267,-4 267,-148 557,-148 557,-4 267,-4"/>
<text text-anchor="start" x="271" y="-132.5" font-family="Georgia" font-size="15.00" fill="#00008b">loc_40E8 :</text>
<text text-anchor="start" x="271" y="-111.8" font-family="Monospace" font-size="14.00"> &#160;&#160;&#160;int &#160;&#160;&#160;&#160;&#160;&#160;&#160;&#160;&#160;59</text>
<text text-anchor="start" x="271" y="-91.8" font-family="Monospace" font-size="14.00"> &#160;&#160;&#160;mov &#160;&#160;&#160;&#160;&#160;&#160;&#160;&#160;R10, &#160;&#160;&#160;&#160;&#160;&#160;CtxtCpy</text>
<text text-anchor="start" x="271" y="-71.8" font-family="Monospace" font-size="14.00"> &#160;&#160;&#160;mov &#160;&#160;&#160;&#160;&#160;&#160;&#160;&#160;R12, &#160;&#160;w[R10++]</text>
<text text-anchor="start" x="271" y="-51.8" font-family="Monospace" font-size="14.00"> &#160;&#160;&#160;mov &#160;&#160;&#160;w[R12++], &#160;&#160;w[R10++]</text>
<text text-anchor="start" x="271" y="-31.8" font-family="Monospace" font-size="14.00"> &#160;&#160;&#160;mov &#160;&#160;&#160;w[R12++], &#160;&#160;w[R10++]</text>
<polygon fill="lightseagreen" stroke="lightseagreen" points="269,-6 269,-24 555,-24 555,-6 269,-6"/>
<text text-anchor="start" x="271" y="-11.8" font-family="Monospace" font-size="14.00"> &#160;&#160;&#160;ret &#160;</text>
</g>
<!-- _4086&#45;&gt;_40E8 -->
<g id="edge6" class="edge"><title>_4086&#45;&gt;_40E8</title>
<path fill="none" stroke="blue" d="M412,-387.745C412,-342.616 412,-245.966 412,-172.358"/>
<polygon fill="blue" stroke="blue" points="419,-172.269 412,-152.269 405,-172.269 419,-172.269"/>
</g>
<!-- _4076 -->
<g id="node8" class="node"><title>_4076</title>
<polygon fill="lightblue" stroke="lightblue" points="559.25,-1116 278.75,-1116 278.75,-1024 559.25,-1024 559.25,-1116"/>
<polygon fill="lightblue" stroke="lightblue" points="286.5,-1028 286.5,-1112 551.5,-1112 551.5,-1028 286.5,-1028"/>
<text text-anchor="start" x="291" y="-1096.5" font-family="Georgia" font-size="15.00" fill="#00008b">recvCmd (4076) :</text>
<text text-anchor="start" x="291" y="-1075.8" font-family="Monospace" font-size="14.00"> &#160;&#160;&#160;mov &#160;&#160;&#160;&#160;&#160;&#160;&#160;&#160;R00, &#160;&#160;b[R08+1]</text>
<text text-anchor="start" x="291" y="-1055.8" font-family="Monospace" font-size="14.00"> &#160;&#160;&#160;cmp &#160;&#160;&#160;&#160;&#160;&#160;&#160;&#160;R00, &#160;&#160;&#160;&#160;&#160;&#160;&#160;&#160;51</text>
<polygon fill="yellow" stroke="yellow" points="289,-1030 289,-1048 550,-1048 550,-1030 289,-1030"/>
<text text-anchor="start" x="291" y="-1035.8" font-family="Monospace" font-size="14.00" fill="red"> &#160;&#160;&#160;jz &#160;&#160;&#160;&#160;&#160;&#160;&#160;&#160;408A</text>
</g>
<!-- _4076&#45;&gt;_4080 -->
<g id="edge10" class="edge"><title>_4076&#45;&gt;_4080</title>
<path fill="none" stroke="red" d="M392.555,-1023.78C369.444,-984.253 335.883,-926.858 311.614,-885.355"/>
<polygon fill="red" stroke="red" points="317.653,-881.815 301.515,-868.083 305.568,-888.882 317.653,-881.815"/>
</g>
<!-- _408A -->
<g id="node10" class="node"><title>_408A</title>
<polygon fill="lightblue" stroke="lightblue" points="708.25,-988 405.75,-988 405.75,-676 708.25,-676 708.25,-988"/>
<polygon fill="lightblue" stroke="lightblue" points="413.5,-680 413.5,-984 700.5,-984 700.5,-680 413.5,-680"/>
<text text-anchor="start" x="418" y="-968.5" font-family="Georgia" font-size="15.00" fill="#00008b">loc_408A :</text>
<text text-anchor="start" x="418" y="-947.8" font-family="Monospace" font-size="14.00"> &#160;&#160;&#160;mov &#160;&#160;&#160;&#160;&#160;&#160;&#160;&#160;R09, &#160;&#160;&#160;&#160;&#160;&#160;addrBuffIn</text>
<text text-anchor="start" x="418" y="-927.8" font-family="Monospace" font-size="14.00"> &#160;&#160;&#160;mov &#160;&#160;&#160;&#160;&#160;&#160;&#160;&#160;R01, &#160;&#160;w[R09++]</text>
<text text-anchor="start" x="418" y="-907.8" font-family="Monospace" font-size="14.00"> &#160;&#160;&#160;mov &#160;&#160;&#160;&#160;&#160;&#160;&#160;&#160;R10, &#160;&#160;w[R09++]</text>
<text text-anchor="start" x="418" y="-887.8" font-family="Monospace" font-size="14.00"> &#160;&#160;&#160;addi &#160;&#160;&#160;&#160;&#160;&#160;&#160;R08, &#160;&#160;&#160;&#160;&#160;&#160;&#160;&#160;&#160;2</text>
<text text-anchor="start" x="418" y="-867.8" font-family="Monospace" font-size="14.00"> &#160;&#160;&#160;mov &#160;&#160;&#160;w[R10++], &#160;&#160;w[R08++]</text>
<text text-anchor="start" x="418" y="-847.8" font-family="Monospace" font-size="14.00"> &#160;&#160;&#160;mov &#160;&#160;&#160;w[R09++], &#160;&#160;w[R08++]</text>
<text text-anchor="start" x="418" y="-827.8" font-family="Monospace" font-size="14.00"> &#160;&#160;&#160;mov &#160;&#160;&#160;&#160;&#160;&#160;&#160;&#160;R08, &#160;&#160;&#160;&#160;&#160;&#160;&#160;R09</text>
<text text-anchor="start" x="418" y="-807.8" font-family="Monospace" font-size="14.00"> &#160;&#160;&#160;xor &#160;&#160;&#160;w[R09++], &#160;&#160;&#160;&#160;w[R09]</text>
<text text-anchor="start" x="418" y="-787.8" font-family="Monospace" font-size="14.00"> &#160;&#160;&#160;mov &#160;&#160;&#160;w[R09++], &#160;&#160;&#160;&#160;&#160;&#160;&#160;R01</text>
<text text-anchor="start" x="418" y="-767.8" font-family="Monospace" font-size="14.00"> &#160;&#160;&#160;mov &#160;&#160;&#160;w[R09++], &#160;&#160;&#160;&#160;&#160;&#160;&#160;&#160;10</text>
<text text-anchor="start" x="418" y="-747.8" font-family="Monospace" font-size="14.00"> &#160;&#160;&#160;mov &#160;&#160;&#160;w[R09++], &#160;&#160;&#160;&#160;&#160;&#160;40F6</text>
<text text-anchor="start" x="418" y="-727.8" font-family="Monospace" font-size="14.00"> &#160;&#160;&#160;mov &#160;&#160;&#160;&#160;&#160;&#160;&#160;&#160;R01, &#160;&#160;&#160;&#160;&#160;&#160;8000</text>
<text text-anchor="start" x="418" y="-707.8" font-family="Monospace" font-size="14.00"> &#160;&#160;&#160;int &#160;&#160;&#160;&#160;&#160;&#160;&#160;&#160;&#160;51</text>
<polygon fill="lightseagreen" stroke="lightseagreen" points="416,-682 416,-700 699,-700 699,-682 416,-682"/>
<text text-anchor="start" x="418" y="-687.8" font-family="Monospace" font-size="14.00"> &#160;&#160;&#160;ret &#160;</text>
</g>
<!-- _4076&#45;&gt;_408A -->
<g id="edge8" class="edge"><title>_4076&#45;&gt;_408A</title>
<path fill="none" stroke="green" d="M445.445,-1023.78C448.771,-1018.09 452.313,-1012.03 456.014,-1005.7"/>
<polygon fill="green" stroke="green" points="462.083,-1009.19 466.136,-988.391 449.998,-1002.12 462.083,-1009.19"/>
</g>
</g>
</svg>
