<?xml version="1.0" encoding="UTF-8" standalone="no"?>
<!DOCTYPE svg PUBLIC "-//W3C//DTD SVG 1.1//EN"
 "http://www.w3.org/Graphics/SVG/1.1/DTD/svg11.dtd">
<!-- Generated by graphviz version 2.28.0 (20110507.0327)
 -->
<!-- Title: G_4146 Pages: 1 -->
<svg width="347pt" height="316pt"
 viewBox="0.00 0.00 347.00 316.00" xmlns="http://www.w3.org/2000/svg" xmlns:xlink="http://www.w3.org/1999/xlink">
<g id="graph1" class="graph" transform="scale(1 1) rotate(0) translate(4 312)">
<title>G_4146</title>
<polygon fill="white" stroke="white" points="-4,5 -4,-312 344,-312 344,5 -4,5"/>
<!-- _414A -->
<g id="node1" class="node"><title>_414A</title>
<polygon fill="lightblue" stroke="lightblue" points="280.25,-200 -0.25,-200 -0.25,-88 280.25,-88 280.25,-200"/>
<polygon fill="lightblue" stroke="lightblue" points="7.5,-92 7.5,-196 272.5,-196 272.5,-92 7.5,-92"/>
<text text-anchor="start" x="12" y="-180.5" font-family="Georgia" font-size="15.00" fill="#00008b">loc_414A :</text>
<text text-anchor="start" x="12" y="-159.8" font-family="Monospace" font-size="14.00"> &#160;&#160;&#160;shr &#160;&#160;&#160;&#160;&#160;&#160;&#160;&#160;R00, &#160;&#160;&#160;&#160;&#160;&#160;&#160;&#160;&#160;1</text>
<text text-anchor="start" x="12" y="-139.8" font-family="Monospace" font-size="14.00"> &#160;&#160;&#160;and &#160;&#160;&#160;&#160;&#160;&#160;&#160;&#160;R00, &#160;&#160;&#160;&#160;&#160;&#160;7FFF</text>
<text text-anchor="start" x="12" y="-119.8" font-family="Monospace" font-size="14.00"> &#160;&#160;&#160;subi &#160;&#160;&#160;&#160;&#160;&#160;&#160;R01, &#160;&#160;&#160;&#160;&#160;&#160;&#160;&#160;&#160;1</text>
<polygon fill="yellow" stroke="yellow" points="10,-94 10,-112 271,-112 271,-94 10,-94"/>
<text text-anchor="start" x="12" y="-99.8" font-family="Monospace" font-size="14.00" fill="red"> &#160;&#160;&#160;jnz &#160;&#160;&#160;&#160;&#160;&#160;&#160;414A</text>
</g>
<!-- _414A&#45;&gt;_414A -->
<g id="edge2" class="edge"><title>_414A&#45;&gt;_414A</title>
<path fill="none" stroke="green" d="M280.467,-160.68C291.313,-156.993 298,-151.433 298,-144 298,-142.258 297.633,-140.619 296.931,-139.083"/>
<polygon fill="green" stroke="green" points="300.81,-133.251 280.467,-127.32 292.671,-144.643 300.81,-133.251"/>
</g>
<!-- _4154 -->
<g id="node4" class="node"><title>_4154</title>
<polygon fill="lightblue" stroke="lightblue" points="283,-52 183,-52 183,-0 283,-0 283,-52"/>
<polygon fill="lightblue" stroke="lightblue" points="191,-4 191,-48 275,-48 275,-4 191,-4"/>
<text text-anchor="start" x="195" y="-32.5" font-family="Georgia" font-size="15.00" fill="#00008b">loc_4154 :</text>
<polygon fill="lightseagreen" stroke="lightseagreen" points="193,-6 193,-24 273,-24 273,-6 193,-6"/>
<text text-anchor="start" x="195" y="-11.8" font-family="Monospace" font-size="14.00"> &#160;&#160;&#160;ret &#160;</text>
</g>
<!-- _414A&#45;&gt;_4154 -->
<g id="edge4" class="edge"><title>_414A&#45;&gt;_4154</title>
<path fill="none" stroke="red" d="M184.321,-87.7179C189.718,-80.9862 195.154,-74.2057 200.338,-67.74"/>
<polygon fill="red" stroke="red" points="205.85,-72.0549 212.899,-52.0721 194.927,-63.2977 205.85,-72.0549"/>
</g>
<!-- _4146 -->
<g id="node5" class="node"><title>_4146</title>
<polygon fill="lightblue" stroke="lightblue" points="339,-308 127,-308 127,-236 339,-236 339,-308"/>
<polygon fill="lightblue" stroke="lightblue" points="135,-240 135,-304 331,-304 331,-240 135,-240"/>
<text text-anchor="start" x="139" y="-288.5" font-family="Georgia" font-size="15.00" fill="#00008b">shr R00, R01 (4146) :</text>
<text text-anchor="start" x="139" y="-267.8" font-family="Monospace" font-size="14.00"> &#160;&#160;&#160;and &#160;&#160;&#160;&#160;&#160;&#160;&#160;&#160;R01, &#160;&#160;&#160;&#160;&#160;&#160;&#160;R01</text>
<polygon fill="yellow" stroke="yellow" points="137,-242 137,-260 329,-260 329,-242 137,-242"/>
<text text-anchor="start" x="139" y="-247.8" font-family="Monospace" font-size="14.00" fill="red"> &#160;&#160;&#160;jz &#160;&#160;&#160;&#160;&#160;&#160;&#160;&#160;4154</text>
</g>
<!-- _4146&#45;&gt;_414A -->
<g id="edge8" class="edge"><title>_4146&#45;&gt;_414A</title>
<path fill="none" stroke="red" d="M207.094,-235.902C202.563,-229.763 197.704,-223.18 192.75,-216.467"/>
<polygon fill="red" stroke="red" points="198.258,-212.143 180.749,-200.208 186.994,-220.457 198.258,-212.143"/>
</g>
<!-- _4146&#45;&gt;_4154 -->
<g id="edge6" class="edge"><title>_4146&#45;&gt;_4154</title>
<path fill="none" stroke="green" d="M281.151,-235.8C291.624,-225.541 301.274,-213.43 307,-200 326.524,-154.211 328.234,-133.022 307,-88 303.099,-79.7295 297.466,-72.2 291.024,-65.4743"/>
<polygon fill="green" stroke="green" points="295.57,-60.1493 275.986,-52.0588 286.25,-70.5964 295.57,-60.1493"/>
</g>
</g>
</svg>
