<?xml version="1.0" encoding="UTF-8" standalone="no"?>
<!DOCTYPE svg PUBLIC "-//W3C//DTD SVG 1.1//EN"
 "http://www.w3.org/Graphics/SVG/1.1/DTD/svg11.dtd">
<!-- Generated by graphviz version 2.28.0 (20110507.0327)
 -->
<!-- Title: G_4166 Pages: 1 -->
<svg width="1260pt" height="1284pt"
 viewBox="0.00 0.00 1260.00 1284.00" xmlns="http://www.w3.org/2000/svg" xmlns:xlink="http://www.w3.org/1999/xlink">
<g id="graph1" class="graph" transform="scale(1 1) rotate(0) translate(4 1280)">
<title>G_4166</title>
<polygon fill="white" stroke="white" points="-4,5 -4,-1280 1257,-1280 1257,5 -4,5"/>
<!-- _41D0 -->
<g id="node1" class="node"><title>_41D0</title>
<polygon fill="lightblue" stroke="lightblue" points="258,-180 0,-180 0,-108 258,-108 258,-180"/>
<polygon fill="lightblue" stroke="lightblue" points="8,-112 8,-176 250,-176 250,-112 8,-112"/>
<text text-anchor="start" x="12" y="-160.5" font-family="Georgia" font-size="15.00" fill="#00008b">loc_41D0 :</text>
<text text-anchor="start" x="12" y="-139.8" font-family="Monospace" font-size="14.00"> &#160;&#160;&#160;mov &#160;&#160;&#160;&#160;&#160;&#160;&#160;&#160;R00, &#160;&#160;&#160;&#160;w[R08]</text>
<polygon fill="yellow" stroke="yellow" points="10,-114 10,-132 248,-132 248,-114 10,-114"/>
<text text-anchor="start" x="12" y="-119.8" font-family="Monospace" font-size="14.00"> &#160;&#160;&#160;jmp &#160;&#160;&#160;&#160;&#160;&#160;&#160;41D6</text>
</g>
<!-- _41D6 -->
<g id="node3" class="node"><title>_41D6</title>
<polygon fill="lightblue" stroke="lightblue" points="640,-72 458,-72 458,-0 640,-0 640,-72"/>
<polygon fill="lightblue" stroke="lightblue" points="466,-4 466,-68 632,-68 632,-4 466,-4"/>
<text text-anchor="start" x="470" y="-52.5" font-family="Georgia" font-size="15.00" fill="#00008b">loc_41D6 :</text>
<text text-anchor="start" x="470" y="-31.8" font-family="Monospace" font-size="14.00"> &#160;&#160;&#160;pop &#160;&#160;&#160;&#160;&#160;&#160;&#160;&#160;R08</text>
<polygon fill="lightseagreen" stroke="lightseagreen" points="468,-6 468,-24 630,-24 630,-6 468,-6"/>
<text text-anchor="start" x="470" y="-11.8" font-family="Monospace" font-size="14.00"> &#160;&#160;&#160;ret &#160;</text>
</g>
<!-- _41D0&#45;&gt;_41D6 -->
<g id="edge2" class="edge"><title>_41D0&#45;&gt;_41D6</title>
<path fill="none" stroke="blue" d="M258.282,-110.204C261.215,-109.462 264.124,-108.727 267,-108 323.408,-93.7459 386.176,-77.9374 438.147,-64.8624"/>
<polygon fill="blue" stroke="blue" points="440.179,-71.5696 457.867,-59.9022 436.763,-57.9925 440.179,-71.5696"/>
</g>
<!-- _41C2 -->
<g id="node4" class="node"><title>_41C2</title>
<polygon fill="lightblue" stroke="lightblue" points="833.25,-180 552.75,-180 552.75,-108 833.25,-108 833.25,-180"/>
<polygon fill="lightblue" stroke="lightblue" points="560.5,-112 560.5,-176 825.5,-176 825.5,-112 560.5,-112"/>
<text text-anchor="start" x="565" y="-160.5" font-family="Georgia" font-size="15.00" fill="#00008b">loc_41C2 :</text>
<text text-anchor="start" x="565" y="-139.8" font-family="Monospace" font-size="14.00"> &#160;&#160;&#160;mov &#160;&#160;&#160;&#160;&#160;w[R08], &#160;&#160;&#160;&#160;&#160;&#160;&#160;R02</text>
<polygon fill="yellow" stroke="yellow" points="563,-114 563,-132 824,-132 824,-114 563,-114"/>
<text text-anchor="start" x="565" y="-119.8" font-family="Monospace" font-size="14.00"> &#160;&#160;&#160;jmp &#160;&#160;&#160;&#160;&#160;&#160;&#160;41D6</text>
</g>
<!-- _41C2&#45;&gt;_41D6 -->
<g id="edge4" class="edge"><title>_41C2&#45;&gt;_41D6</title>
<path fill="none" stroke="blue" d="M645.45,-107.998C635.114,-100.389 624.015,-92.2191 613.156,-84.2262"/>
<polygon fill="blue" stroke="blue" points="617.249,-78.5466 596.992,-72.3275 608.949,-89.8213 617.249,-78.5466"/>
</g>
<!-- _4166 -->
<g id="node6" class="node"><title>_4166</title>
<polygon fill="lightblue" stroke="lightblue" points="716.25,-1276 435.75,-1276 435.75,-1204 716.25,-1204 716.25,-1276"/>
<polygon fill="lightblue" stroke="lightblue" points="443.5,-1208 443.5,-1272 708.5,-1272 708.5,-1208 443.5,-1208"/>
<text text-anchor="start" x="448" y="-1256.5" font-family="Georgia" font-size="15.00" fill="#00008b">setOutputByte (4166) :</text>
<text text-anchor="start" x="448" y="-1235.8" font-family="Monospace" font-size="14.00"> &#160;&#160;&#160;and &#160;&#160;&#160;&#160;&#160;&#160;&#160;&#160;R01, &#160;&#160;&#160;&#160;&#160;&#160;&#160;R01</text>
<polygon fill="yellow" stroke="yellow" points="446,-1210 446,-1228 707,-1228 707,-1210 446,-1210"/>
<text text-anchor="start" x="448" y="-1215.8" font-family="Monospace" font-size="14.00" fill="red"> &#160;&#160;&#160;jz &#160;&#160;&#160;&#160;&#160;&#160;&#160;&#160;41A6</text>
</g>
<!-- _41A6 -->
<g id="node8" class="node"><title>_41A6</title>
<polygon fill="lightblue" stroke="lightblue" points="678,-516 420,-516 420,-324 678,-324 678,-516"/>
<polygon fill="lightblue" stroke="lightblue" points="428,-328 428,-512 670,-512 670,-328 428,-328"/>
<text text-anchor="start" x="432" y="-496.5" font-family="Georgia" font-size="15.00" fill="#00008b">loc_41A6 :</text>
<text text-anchor="start" x="432" y="-475.8" font-family="Monospace" font-size="14.00"> &#160;&#160;&#160;pushad</text>
<polygon fill="deepskyblue" stroke="deepskyblue" points="430,-450 430,-468 668,-468 668,-450 430,-450"/>
<text text-anchor="start" x="432" y="-455.8" font-family="Monospace" font-size="14.00"> &#160;&#160;&#160;call &#160;&#160;&#160;&#160;&#160;&#160;getCacheAddress</text>
<text text-anchor="start" x="432" y="-435.8" font-family="Monospace" font-size="14.00"> &#160;&#160;&#160;mov &#160;&#160;&#160;&#160;w[406E], &#160;&#160;&#160;&#160;&#160;&#160;&#160;R00</text>
<text text-anchor="start" x="432" y="-415.8" font-family="Monospace" font-size="14.00"> &#160;&#160;&#160;popad</text>
<text text-anchor="start" x="432" y="-395.8" font-family="Monospace" font-size="14.00"> &#160;&#160;&#160;push &#160;&#160;&#160;&#160;&#160;&#160;&#160;R08</text>
<text text-anchor="start" x="432" y="-375.8" font-family="Monospace" font-size="14.00"> &#160;&#160;&#160;mov &#160;&#160;&#160;&#160;&#160;&#160;&#160;&#160;R08, &#160;&#160;&#160;w[406E]</text>
<text text-anchor="start" x="432" y="-355.8" font-family="Monospace" font-size="14.00"> &#160;&#160;&#160;cmp &#160;&#160;&#160;&#160;&#160;&#160;&#160;&#160;R01, &#160;&#160;&#160;&#160;&#160;&#160;&#160;&#160;&#160;2</text>
<polygon fill="yellow" stroke="yellow" points="430,-330 430,-348 668,-348 668,-330 430,-330"/>
<text text-anchor="start" x="432" y="-335.8" font-family="Monospace" font-size="14.00" fill="red"> &#160;&#160;&#160;jae &#160;&#160;&#160;&#160;&#160;&#160;&#160;41CA</text>
</g>
<!-- _4166&#45;&gt;_41A6 -->
<g id="edge6" class="edge"><title>_4166&#45;&gt;_41A6</title>
<path fill="none" stroke="green" d="M535.924,-1203.97C526.212,-1193.4 516.931,-1181.09 511,-1168 479.082,-1097.54 492,-1072.35 492,-995 492,-995 492,-995 492,-845 492,-714.342 494.636,-680.9 516,-552 516.878,-546.705 517.862,-541.311 518.927,-535.876"/>
<polygon fill="green" stroke="green" points="525.813,-537.144 523.09,-516.13 512.115,-534.256 525.813,-537.144"/>
</g>
<!-- _416A -->
<g id="node10" class="node"><title>_416A</title>
<polygon fill="lightblue" stroke="lightblue" points="801.25,-1168 520.75,-1168 520.75,-1096 801.25,-1096 801.25,-1168"/>
<polygon fill="lightblue" stroke="lightblue" points="528.5,-1100 528.5,-1164 793.5,-1164 793.5,-1100 528.5,-1100"/>
<text text-anchor="start" x="533" y="-1148.5" font-family="Georgia" font-size="15.00" fill="#00008b">loc_416A :</text>
<text text-anchor="start" x="533" y="-1127.8" font-family="Monospace" font-size="14.00"> &#160;&#160;&#160;cmp &#160;&#160;&#160;&#160;&#160;&#160;&#160;&#160;R01, &#160;&#160;&#160;&#160;&#160;&#160;&#160;&#160;&#160;2</text>
<polygon fill="yellow" stroke="yellow" points="531,-1102 531,-1120 792,-1120 792,-1102 531,-1102"/>
<text text-anchor="start" x="533" y="-1107.8" font-family="Monospace" font-size="14.00" fill="red"> &#160;&#160;&#160;jz &#160;&#160;&#160;&#160;&#160;&#160;&#160;&#160;41A6</text>
</g>
<!-- _4166&#45;&gt;_416A -->
<g id="edge8" class="edge"><title>_4166&#45;&gt;_416A</title>
<path fill="none" stroke="red" d="M604.068,-1204C609.164,-1197.64 614.575,-1190.9 619.954,-1184.19"/>
<polygon fill="red" stroke="red" points="625.62,-1188.31 632.671,-1168.33 614.698,-1179.55 625.62,-1188.31"/>
</g>
<!-- _41CA -->
<g id="node12" class="node"><title>_41CA</title>
<polygon fill="lightblue" stroke="lightblue" points="534,-288 276,-288 276,-216 534,-216 534,-288"/>
<polygon fill="lightblue" stroke="lightblue" points="284,-220 284,-284 526,-284 526,-220 284,-220"/>
<text text-anchor="start" x="288" y="-268.5" font-family="Georgia" font-size="15.00" fill="#00008b">loc_41CA :</text>
<text text-anchor="start" x="288" y="-247.8" font-family="Monospace" font-size="14.00"> &#160;&#160;&#160;cmp &#160;&#160;&#160;&#160;&#160;&#160;&#160;&#160;R01, &#160;&#160;&#160;&#160;&#160;&#160;&#160;&#160;&#160;4</text>
<polygon fill="yellow" stroke="yellow" points="286,-222 286,-240 524,-240 524,-222 286,-222"/>
<text text-anchor="start" x="288" y="-227.8" font-family="Monospace" font-size="14.00" fill="red"> &#160;&#160;&#160;jnz &#160;&#160;&#160;&#160;&#160;&#160;&#160;41D4</text>
</g>
<!-- _41A6&#45;&gt;_41CA -->
<g id="edge10" class="edge"><title>_41A6&#45;&gt;_41CA</title>
<path fill="none" stroke="green" d="M466.487,-323.88C460.352,-316.808 454.321,-309.856 448.578,-303.235"/>
<polygon fill="green" stroke="green" points="453.789,-298.56 435.396,-288.039 443.214,-307.734 453.789,-298.56"/>
</g>
<!-- _41BE -->
<g id="node14" class="node"><title>_41BE</title>
<polygon fill="lightblue" stroke="lightblue" points="799,-288 587,-288 587,-216 799,-216 799,-288"/>
<polygon fill="lightblue" stroke="lightblue" points="595,-220 595,-284 791,-284 791,-220 595,-220"/>
<text text-anchor="start" x="599" y="-268.5" font-family="Georgia" font-size="15.00" fill="#00008b">loc_41BE :</text>
<text text-anchor="start" x="599" y="-247.8" font-family="Monospace" font-size="14.00"> &#160;&#160;&#160;and &#160;&#160;&#160;&#160;&#160;&#160;&#160;&#160;R01, &#160;&#160;&#160;&#160;&#160;&#160;&#160;R01</text>
<polygon fill="yellow" stroke="yellow" points="597,-222 597,-240 789,-240 789,-222 597,-222"/>
<text text-anchor="start" x="599" y="-227.8" font-family="Monospace" font-size="14.00" fill="red"> &#160;&#160;&#160;jz &#160;&#160;&#160;&#160;&#160;&#160;&#160;&#160;41C6</text>
</g>
<!-- _41A6&#45;&gt;_41BE -->
<g id="edge12" class="edge"><title>_41A6&#45;&gt;_41BE</title>
<path fill="none" stroke="red" d="M631.513,-323.88C637.648,-316.808 643.679,-309.856 649.422,-303.235"/>
<polygon fill="red" stroke="red" points="654.786,-307.734 662.604,-288.039 644.211,-298.56 654.786,-307.734"/>
</g>
<!-- _416A&#45;&gt;_41A6 -->
<g id="edge16" class="edge"><title>_416A&#45;&gt;_41A6</title>
<path fill="none" stroke="green" d="M582.844,-1095.91C569.313,-1086.25 557.031,-1074.37 549,-1060 500.584,-973.374 519.84,-695.736 535.828,-536.376"/>
<polygon fill="green" stroke="green" points="542.828,-536.738 537.906,-516.128 528.901,-535.309 542.828,-536.738"/>
</g>
<!-- _4170 -->
<g id="node19" class="node"><title>_4170</title>
<polygon fill="lightblue" stroke="lightblue" points="839.25,-1060 558.75,-1060 558.75,-928 839.25,-928 839.25,-1060"/>
<polygon fill="lightblue" stroke="lightblue" points="566.5,-932 566.5,-1056 831.5,-1056 831.5,-932 566.5,-932"/>
<text text-anchor="start" x="571" y="-1040.5" font-family="Georgia" font-size="15.00" fill="#00008b">loc_4170 :</text>
<text text-anchor="start" x="571" y="-1019.8" font-family="Monospace" font-size="14.00"> &#160;&#160;&#160;push &#160;&#160;&#160;&#160;&#160;&#160;&#160;R00</text>
<text text-anchor="start" x="571" y="-999.8" font-family="Monospace" font-size="14.00"> &#160;&#160;&#160;and &#160;&#160;&#160;&#160;&#160;&#160;&#160;&#160;R00, &#160;&#160;&#160;&#160;&#160;&#160;&#160;&#160;&#160;F</text>
<text text-anchor="start" x="571" y="-979.8" font-family="Monospace" font-size="14.00"> &#160;&#160;&#160;cmp &#160;&#160;&#160;&#160;&#160;&#160;&#160;&#160;R00, &#160;&#160;&#160;&#160;&#160;&#160;&#160;&#160;&#160;F</text>
<text text-anchor="start" x="571" y="-959.8" font-family="Monospace" font-size="14.00"> &#160;&#160;&#160;pop &#160;&#160;&#160;&#160;&#160;&#160;&#160;&#160;R00</text>
<polygon fill="yellow" stroke="yellow" points="569,-934 569,-952 830,-952 830,-934 569,-934"/>
<text text-anchor="start" x="571" y="-939.8" font-family="Monospace" font-size="14.00" fill="red"> &#160;&#160;&#160;jnz &#160;&#160;&#160;&#160;&#160;&#160;&#160;41A6</text>
</g>
<!-- _416A&#45;&gt;_4170 -->
<g id="edge18" class="edge"><title>_416A&#45;&gt;_4170</title>
<path fill="none" stroke="red" d="M670.786,-1095.98C672.253,-1090.73 673.817,-1085.13 675.428,-1079.36"/>
<polygon fill="red" stroke="red" points="682.196,-1081.15 680.836,-1060.01 668.713,-1077.38 682.196,-1081.15"/>
</g>
<!-- _41CA&#45;&gt;_41D0 -->
<g id="edge34" class="edge"><title>_41CA&#45;&gt;_41D0</title>
<path fill="none" stroke="red" d="M313.862,-215.998C290.081,-206.864 264.193,-196.922 239.525,-187.448"/>
<polygon fill="red" stroke="red" points="241.693,-180.782 220.513,-180.146 236.674,-193.852 241.693,-180.782"/>
</g>
<!-- _41D4 -->
<g id="node23" class="node"><title>_41D4</title>
<polygon fill="lightblue" stroke="lightblue" points="534,-170 276,-170 276,-118 534,-118 534,-170"/>
<polygon fill="lightblue" stroke="lightblue" points="284,-122 284,-166 526,-166 526,-122 284,-122"/>
<text text-anchor="start" x="288" y="-150.5" font-family="Georgia" font-size="15.00" fill="#00008b">loc_41D4 :</text>
<text text-anchor="start" x="288" y="-129.8" font-family="Monospace" font-size="14.00"> &#160;&#160;&#160;mov &#160;&#160;&#160;&#160;&#160;&#160;&#160;&#160;R00, &#160;&#160;&#160;&#160;b[R08]</text>
</g>
<!-- _41CA&#45;&gt;_41D4 -->
<g id="edge32" class="edge"><title>_41CA&#45;&gt;_41D4</title>
<path fill="none" stroke="green" d="M405,-215.998C405,-207.819 405,-198.992 405,-190.433"/>
<polygon fill="green" stroke="green" points="412,-190.234 405,-170.234 398,-190.234 412,-190.234"/>
</g>
<!-- _41BE&#45;&gt;_41C2 -->
<g id="edge30" class="edge"><title>_41BE&#45;&gt;_41C2</title>
<path fill="none" stroke="red" d="M693,-215.998C693,-210.985 693,-205.729 693,-200.44"/>
<polygon fill="red" stroke="red" points="700,-200.328 693,-180.328 686,-200.328 700,-200.328"/>
</g>
<!-- _41C6 -->
<g id="node15" class="node"><title>_41C6</title>
<polygon fill="lightblue" stroke="lightblue" points="1132.25,-180 851.75,-180 851.75,-108 1132.25,-108 1132.25,-180"/>
<polygon fill="lightblue" stroke="lightblue" points="859.5,-112 859.5,-176 1124.5,-176 1124.5,-112 859.5,-112"/>
<text text-anchor="start" x="864" y="-160.5" font-family="Georgia" font-size="15.00" fill="#00008b">loc_41C6 :</text>
<text text-anchor="start" x="864" y="-139.8" font-family="Monospace" font-size="14.00"> &#160;&#160;&#160;mov &#160;&#160;&#160;&#160;&#160;b[R08], &#160;&#160;&#160;&#160;&#160;&#160;&#160;R02</text>
<polygon fill="yellow" stroke="yellow" points="862,-114 862,-132 1123,-132 1123,-114 862,-114"/>
<text text-anchor="start" x="864" y="-119.8" font-family="Monospace" font-size="14.00"> &#160;&#160;&#160;jmp &#160;&#160;&#160;&#160;&#160;&#160;&#160;41D6</text>
</g>
<!-- _41BE&#45;&gt;_41C6 -->
<g id="edge28" class="edge"><title>_41BE&#45;&gt;_41C6</title>
<path fill="none" stroke="green" d="M791.732,-215.998C818.072,-206.66 846.797,-196.477 874.056,-186.813"/>
<polygon fill="green" stroke="green" points="876.605,-193.336 893.116,-180.056 871.927,-180.141 876.605,-193.336"/>
</g>
<!-- _41C6&#45;&gt;_41D6 -->
<g id="edge14" class="edge"><title>_41C6&#45;&gt;_41D6</title>
<path fill="none" stroke="blue" d="M851.528,-109.388C789.619,-94.5748 717.916,-77.4178 659.858,-63.5259"/>
<polygon fill="blue" stroke="blue" points="661.408,-56.6993 640.328,-58.8529 658.15,-70.3149 661.408,-56.6993"/>
</g>
<!-- _4170&#45;&gt;_41A6 -->
<g id="edge20" class="edge"><title>_4170&#45;&gt;_41A6</title>
<path fill="none" stroke="green" d="M612.081,-927.862C602.184,-916.937 593.377,-904.912 587,-892 557.187,-831.638 549.983,-655.071 548.651,-536.117"/>
<polygon fill="green" stroke="green" points="555.65,-536.022 548.475,-516.084 541.651,-536.144 555.65,-536.022"/>
</g>
<!-- _417E -->
<g id="node22" class="node"><title>_417E</title>
<polygon fill="lightblue" stroke="lightblue" points="877.25,-892 596.75,-892 596.75,-800 877.25,-800 877.25,-892"/>
<polygon fill="lightblue" stroke="lightblue" points="604.5,-804 604.5,-888 869.5,-888 869.5,-804 604.5,-804"/>
<text text-anchor="start" x="609" y="-872.5" font-family="Georgia" font-size="15.00" fill="#00008b">loc_417E :</text>
<text text-anchor="start" x="609" y="-851.8" font-family="Monospace" font-size="14.00"> &#160;&#160;&#160;shr &#160;&#160;&#160;&#160;&#160;&#160;&#160;&#160;R01, &#160;&#160;&#160;&#160;&#160;&#160;&#160;&#160;&#160;1</text>
<text text-anchor="start" x="609" y="-831.8" font-family="Monospace" font-size="14.00"> &#160;&#160;&#160;and &#160;&#160;&#160;&#160;&#160;&#160;&#160;&#160;R01, &#160;&#160;&#160;&#160;&#160;&#160;&#160;R01</text>
<polygon fill="yellow" stroke="yellow" points="607,-806 607,-824 868,-824 868,-806 607,-806"/>
<text text-anchor="start" x="609" y="-811.8" font-family="Monospace" font-size="14.00" fill="red"> &#160;&#160;&#160;jz &#160;&#160;&#160;&#160;&#160;&#160;&#160;&#160;419E</text>
</g>
<!-- _4170&#45;&gt;_417E -->
<g id="edge22" class="edge"><title>_4170&#45;&gt;_417E</title>
<path fill="none" stroke="red" d="M715.999,-927.687C717.39,-922.345 718.795,-916.947 720.184,-911.61"/>
<polygon fill="red" stroke="red" points="726.979,-913.292 725.242,-892.174 713.43,-909.766 726.979,-913.292"/>
</g>
<!-- _419E -->
<g id="node25" class="node"><title>_419E</title>
<polygon fill="lightblue" stroke="lightblue" points="877.25,-704 596.75,-704 596.75,-612 877.25,-612 877.25,-704"/>
<polygon fill="lightblue" stroke="lightblue" points="604.5,-616 604.5,-700 869.5,-700 869.5,-616 604.5,-616"/>
<text text-anchor="start" x="609" y="-684.5" font-family="Georgia" font-size="15.00" fill="#00008b">loc_419E :</text>
<polygon fill="deepskyblue" stroke="deepskyblue" points="607,-658 607,-676 868,-676 868,-658 607,-658"/>
<text text-anchor="start" x="609" y="-663.8" font-family="Monospace" font-size="14.00"> &#160;&#160;&#160;call &#160;&#160;&#160;&#160;&#160;&#160;41A6</text>
<text text-anchor="start" x="609" y="-643.8" font-family="Monospace" font-size="14.00"> &#160;&#160;&#160;shr &#160;&#160;&#160;&#160;&#160;&#160;&#160;&#160;R02, &#160;&#160;&#160;&#160;&#160;&#160;&#160;&#160;&#160;8</text>
<text text-anchor="start" x="609" y="-623.8" font-family="Monospace" font-size="14.00"> &#160;&#160;&#160;addi &#160;&#160;&#160;&#160;&#160;&#160;&#160;R00, &#160;&#160;&#160;&#160;&#160;&#160;&#160;&#160;&#160;1</text>
</g>
<!-- _417E&#45;&gt;_419E -->
<g id="edge36" class="edge"><title>_417E&#45;&gt;_419E</title>
<path fill="none" stroke="green" d="M737,-799.975C737,-777.296 737,-749.376 737,-724.382"/>
<polygon fill="green" stroke="green" points="744,-724.255 737,-704.255 730,-724.255 744,-724.255"/>
</g>
<!-- _4184 -->
<g id="node33" class="node"><title>_4184</title>
<polygon fill="lightblue" stroke="lightblue" points="1252,-764 896,-764 896,-552 1252,-552 1252,-764"/>
<polygon fill="lightblue" stroke="lightblue" points="904,-556 904,-760 1244,-760 1244,-556 904,-556"/>
<text text-anchor="start" x="908" y="-744.5" font-family="Georgia" font-size="15.00" fill="#00008b">loc_4184 :</text>
<text text-anchor="start" x="908" y="-723.8" font-family="Monospace" font-size="14.00"> &#160;&#160;&#160;push &#160;&#160;&#160;&#160;&#160;&#160;&#160;R00</text>
<polygon fill="deepskyblue" stroke="deepskyblue" points="906,-698 906,-716 1242,-716 1242,-698 906,-698"/>
<text text-anchor="start" x="908" y="-703.8" font-family="Monospace" font-size="14.00"> &#160;&#160;&#160;call &#160;&#160;&#160;&#160;&#160;&#160;41A6</text>
<text text-anchor="start" x="908" y="-683.8" font-family="Monospace" font-size="14.00"> &#160;&#160;&#160;mov &#160;&#160;&#160;&#160;w[sizeBuffInReq], &#160;&#160;&#160;&#160;&#160;&#160;&#160;R00</text>
<text text-anchor="start" x="908" y="-663.8" font-family="Monospace" font-size="14.00"> &#160;&#160;&#160;pop &#160;&#160;&#160;&#160;&#160;&#160;&#160;&#160;R00</text>
<text text-anchor="start" x="908" y="-643.8" font-family="Monospace" font-size="14.00"> &#160;&#160;&#160;addi &#160;&#160;&#160;&#160;&#160;&#160;&#160;R00, &#160;&#160;&#160;&#160;&#160;&#160;&#160;&#160;&#160;1</text>
<polygon fill="deepskyblue" stroke="deepskyblue" points="906,-618 906,-636 1242,-636 1242,-618 906,-618"/>
<text text-anchor="start" x="908" y="-623.8" font-family="Monospace" font-size="14.00"> &#160;&#160;&#160;call &#160;&#160;&#160;&#160;&#160;&#160;41A6</text>
<text text-anchor="start" x="908" y="-603.8" font-family="Monospace" font-size="14.00"> &#160;&#160;&#160;shl &#160;&#160;&#160;&#160;&#160;&#160;&#160;&#160;R00, &#160;&#160;&#160;&#160;&#160;&#160;&#160;&#160;&#160;8</text>
<text text-anchor="start" x="908" y="-583.8" font-family="Monospace" font-size="14.00"> &#160;&#160;&#160;and &#160;&#160;&#160;&#160;&#160;&#160;&#160;&#160;R00, &#160;&#160;&#160;b[sizeBuffInReq]</text>
<polygon fill="lightseagreen" stroke="lightseagreen" points="906,-558 906,-576 1242,-576 1242,-558 906,-558"/>
<text text-anchor="start" x="908" y="-563.8" font-family="Monospace" font-size="14.00"> &#160;&#160;&#160;ret &#160;</text>
</g>
<!-- _417E&#45;&gt;_4184 -->
<g id="edge38" class="edge"><title>_417E&#45;&gt;_4184</title>
<path fill="none" stroke="red" d="M820.235,-799.969C837.415,-790.627 855.61,-780.699 878.19,-768.287"/>
<polygon fill="red" stroke="red" points="881.763,-774.311 895.909,-758.534 875.012,-762.046 881.763,-774.311"/>
</g>
<!-- _41D4&#45;&gt;_41D6 -->
<g id="edge24" class="edge"><title>_41D4&#45;&gt;_41D6</title>
<path fill="none" stroke="blue" d="M439.126,-117.879C452.891,-107.747 469.238,-95.7135 485.06,-84.0672"/>
<polygon fill="blue" stroke="blue" points="489.27,-89.6602 501.227,-72.1665 480.97,-78.3855 489.27,-89.6602"/>
</g>
<!-- _419E&#45;&gt;_41A6 -->
<g id="edge26" class="edge"><title>_419E&#45;&gt;_41A6</title>
<path fill="none" stroke="blue" d="M700.974,-611.776C682.886,-589.07 660.1,-560.466 637.715,-532.365"/>
<polygon fill="blue" stroke="blue" points="642.924,-527.67 624.987,-516.388 631.974,-536.393 642.924,-527.67"/>
</g>
</g>
</svg>
