<?xml version="1.0" encoding="UTF-8" standalone="no"?>
<!DOCTYPE svg PUBLIC "-//W3C//DTD SVG 1.1//EN"
 "http://www.w3.org/Graphics/SVG/1.1/DTD/svg11.dtd">
<!-- Generated by graphviz version 2.28.0 (20110507.0327)
 -->
<!-- Title: G_4162 Pages: 1 -->
<svg width="1212pt" height="1324pt"
 viewBox="0.00 0.00 1212.00 1324.00" xmlns="http://www.w3.org/2000/svg" xmlns:xlink="http://www.w3.org/1999/xlink">
<g id="graph1" class="graph" transform="scale(1 1) rotate(0) translate(4 1320)">
<title>G_4162</title>
<polygon fill="white" stroke="white" points="-4,5 -4,-1320 1209,-1320 1209,5 -4,5"/>
<!-- _41D0 -->
<g id="node1" class="node"><title>_41D0</title>
<polygon fill="lightblue" stroke="lightblue" points="280.25,-180 -0.25,-180 -0.25,-108 280.25,-108 280.25,-180"/>
<polygon fill="lightblue" stroke="lightblue" points="7.5,-112 7.5,-176 272.5,-176 272.5,-112 7.5,-112"/>
<text text-anchor="start" x="12" y="-160.5" font-family="Georgia" font-size="15.00" fill="#00008b">loc_41D0 :</text>
<text text-anchor="start" x="12" y="-139.8" font-family="Monospace" font-size="14.00"> &#160;&#160;&#160;mov &#160;&#160;&#160;&#160;&#160;&#160;&#160;&#160;R00, &#160;&#160;&#160;&#160;w[R08]</text>
<polygon fill="yellow" stroke="yellow" points="10,-114 10,-132 271,-132 271,-114 10,-114"/>
<text text-anchor="start" x="12" y="-119.8" font-family="Monospace" font-size="14.00"> &#160;&#160;&#160;jmp &#160;&#160;&#160;&#160;&#160;&#160;&#160;41D6</text>
</g>
<!-- _41D6 -->
<g id="node3" class="node"><title>_41D6</title>
<polygon fill="lightblue" stroke="lightblue" points="662,-72 480,-72 480,-0 662,-0 662,-72"/>
<polygon fill="lightblue" stroke="lightblue" points="488,-4 488,-68 654,-68 654,-4 488,-4"/>
<text text-anchor="start" x="492" y="-52.5" font-family="Georgia" font-size="15.00" fill="#00008b">loc_41D6 :</text>
<text text-anchor="start" x="492" y="-31.8" font-family="Monospace" font-size="14.00"> &#160;&#160;&#160;pop &#160;&#160;&#160;&#160;&#160;&#160;&#160;&#160;R08</text>
<polygon fill="lightseagreen" stroke="lightseagreen" points="490,-6 490,-24 652,-24 652,-6 490,-6"/>
<text text-anchor="start" x="492" y="-11.8" font-family="Monospace" font-size="14.00"> &#160;&#160;&#160;ret &#160;</text>
</g>
<!-- _41D0&#45;&gt;_41D6 -->
<g id="edge2" class="edge"><title>_41D0&#45;&gt;_41D6</title>
<path fill="none" stroke="blue" d="M280.529,-108.438C338.835,-94.0985 405.506,-77.7016 460.256,-64.2364"/>
<polygon fill="blue" stroke="blue" points="462.1,-70.9915 479.85,-59.4175 458.757,-57.3966 462.1,-70.9915"/>
</g>
<!-- _4162 -->
<g id="node4" class="node"><title>_4162</title>
<polygon fill="lightblue" stroke="lightblue" points="732.25,-1316 451.75,-1316 451.75,-1204 732.25,-1204 732.25,-1316"/>
<polygon fill="lightblue" stroke="lightblue" points="459.5,-1208 459.5,-1312 724.5,-1312 724.5,-1208 459.5,-1208"/>
<text text-anchor="start" x="464" y="-1296.5" font-family="Georgia" font-size="15.00" fill="#00008b">getInputByte (4162) :</text>
<text text-anchor="start" x="464" y="-1275.8" font-family="Monospace" font-size="14.00"> &#160;&#160;&#160;addi &#160;&#160;&#160;&#160;&#160;&#160;&#160;R01, &#160;&#160;&#160;&#160;&#160;&#160;&#160;&#160;&#160;1</text>
<text text-anchor="start" x="464" y="-1255.8" font-family="Monospace" font-size="14.00"> &#160;&#160;&#160;shl &#160;&#160;&#160;&#160;&#160;&#160;&#160;&#160;R01, &#160;&#160;&#160;&#160;&#160;&#160;&#160;&#160;&#160;1</text>
<text text-anchor="start" x="464" y="-1235.8" font-family="Monospace" font-size="14.00"> &#160;&#160;&#160;and &#160;&#160;&#160;&#160;&#160;&#160;&#160;&#160;R01, &#160;&#160;&#160;&#160;&#160;&#160;&#160;R01</text>
<polygon fill="yellow" stroke="yellow" points="462,-1210 462,-1228 723,-1228 723,-1210 462,-1210"/>
<text text-anchor="start" x="464" y="-1215.8" font-family="Monospace" font-size="14.00" fill="red"> &#160;&#160;&#160;jz &#160;&#160;&#160;&#160;&#160;&#160;&#160;&#160;41A6</text>
</g>
<!-- _41A6 -->
<g id="node6" class="node"><title>_41A6</title>
<polygon fill="lightblue" stroke="lightblue" points="677,-516 465,-516 465,-324 677,-324 677,-516"/>
<polygon fill="lightblue" stroke="lightblue" points="473,-328 473,-512 669,-512 669,-328 473,-328"/>
<text text-anchor="start" x="477" y="-496.5" font-family="Georgia" font-size="15.00" fill="#00008b">loc_41A6 :</text>
<text text-anchor="start" x="477" y="-475.8" font-family="Monospace" font-size="14.00"> &#160;&#160;&#160;pushad</text>
<polygon fill="deepskyblue" stroke="deepskyblue" points="475,-450 475,-468 667,-468 667,-450 475,-450"/>
<text text-anchor="start" x="477" y="-455.8" font-family="Monospace" font-size="14.00"> &#160;&#160;&#160;call &#160;&#160;&#160;&#160;&#160;&#160;getCacheAddress</text>
<text text-anchor="start" x="477" y="-435.8" font-family="Monospace" font-size="14.00"> &#160;&#160;&#160;mov &#160;&#160;&#160;&#160;w[406E], &#160;&#160;&#160;&#160;&#160;&#160;&#160;R00</text>
<text text-anchor="start" x="477" y="-415.8" font-family="Monospace" font-size="14.00"> &#160;&#160;&#160;popad</text>
<text text-anchor="start" x="477" y="-395.8" font-family="Monospace" font-size="14.00"> &#160;&#160;&#160;push &#160;&#160;&#160;&#160;&#160;&#160;&#160;R08</text>
<text text-anchor="start" x="477" y="-375.8" font-family="Monospace" font-size="14.00"> &#160;&#160;&#160;mov &#160;&#160;&#160;&#160;&#160;&#160;&#160;&#160;R08, &#160;&#160;&#160;w[406E]</text>
<text text-anchor="start" x="477" y="-355.8" font-family="Monospace" font-size="14.00"> &#160;&#160;&#160;cmp &#160;&#160;&#160;&#160;&#160;&#160;&#160;&#160;R01, &#160;&#160;&#160;&#160;&#160;&#160;&#160;&#160;&#160;2</text>
<polygon fill="yellow" stroke="yellow" points="475,-330 475,-348 667,-348 667,-330 475,-330"/>
<text text-anchor="start" x="477" y="-335.8" font-family="Monospace" font-size="14.00" fill="red"> &#160;&#160;&#160;jae &#160;&#160;&#160;&#160;&#160;&#160;&#160;41CA</text>
</g>
<!-- _4162&#45;&gt;_41A6 -->
<g id="edge4" class="edge"><title>_4162&#45;&gt;_41A6</title>
<path fill="none" stroke="green" d="M550.529,-1203.86C543.657,-1192.49 537.361,-1180.24 533,-1168 507.037,-1095.14 514,-1072.35 514,-995 514,-995 514,-995 514,-845 514,-714.266 519.115,-681.055 540,-552 540.854,-546.721 541.804,-541.339 542.824,-535.914"/>
<polygon fill="green" stroke="green" points="549.709,-537.183 546.788,-516.195 535.984,-534.423 549.709,-537.183"/>
</g>
<!-- _416A -->
<g id="node8" class="node"><title>_416A</title>
<polygon fill="lightblue" stroke="lightblue" points="800,-1168 542,-1168 542,-1096 800,-1096 800,-1168"/>
<polygon fill="lightblue" stroke="lightblue" points="550,-1100 550,-1164 792,-1164 792,-1100 550,-1100"/>
<text text-anchor="start" x="554" y="-1148.5" font-family="Georgia" font-size="15.00" fill="#00008b">loc_416A :</text>
<text text-anchor="start" x="554" y="-1127.8" font-family="Monospace" font-size="14.00"> &#160;&#160;&#160;cmp &#160;&#160;&#160;&#160;&#160;&#160;&#160;&#160;R01, &#160;&#160;&#160;&#160;&#160;&#160;&#160;&#160;&#160;2</text>
<polygon fill="yellow" stroke="yellow" points="552,-1102 552,-1120 790,-1120 790,-1102 552,-1102"/>
<text text-anchor="start" x="554" y="-1107.8" font-family="Monospace" font-size="14.00" fill="red"> &#160;&#160;&#160;jz &#160;&#160;&#160;&#160;&#160;&#160;&#160;&#160;41A6</text>
</g>
<!-- _4162&#45;&gt;_416A -->
<g id="edge6" class="edge"><title>_4162&#45;&gt;_416A</title>
<path fill="none" stroke="red" d="M626.651,-1203.73C630.482,-1197.62 634.376,-1191.41 638.184,-1185.34"/>
<polygon fill="red" stroke="red" points="644.188,-1188.94 648.882,-1168.28 632.327,-1181.5 644.188,-1188.94"/>
</g>
<!-- _41CA -->
<g id="node12" class="node"><title>_41CA</title>
<polygon fill="lightblue" stroke="lightblue" points="545,-288 333,-288 333,-216 545,-216 545,-288"/>
<polygon fill="lightblue" stroke="lightblue" points="341,-220 341,-284 537,-284 537,-220 341,-220"/>
<text text-anchor="start" x="345" y="-268.5" font-family="Georgia" font-size="15.00" fill="#00008b">loc_41CA :</text>
<text text-anchor="start" x="345" y="-247.8" font-family="Monospace" font-size="14.00"> &#160;&#160;&#160;cmp &#160;&#160;&#160;&#160;&#160;&#160;&#160;&#160;R01, &#160;&#160;&#160;&#160;&#160;&#160;&#160;&#160;&#160;4</text>
<polygon fill="yellow" stroke="yellow" points="343,-222 343,-240 535,-240 535,-222 343,-222"/>
<text text-anchor="start" x="345" y="-227.8" font-family="Monospace" font-size="14.00" fill="red"> &#160;&#160;&#160;jnz &#160;&#160;&#160;&#160;&#160;&#160;&#160;41D4</text>
</g>
<!-- _41A6&#45;&gt;_41CA -->
<g id="edge10" class="edge"><title>_41A6&#45;&gt;_41CA</title>
<path fill="none" stroke="green" d="M495.363,-323.88C489.898,-317.008 484.522,-310.248 479.392,-303.796"/>
<polygon fill="green" stroke="green" points="484.79,-299.337 466.863,-288.039 473.832,-308.05 484.79,-299.337"/>
</g>
<!-- _41BE -->
<g id="node14" class="node"><title>_41BE</title>
<polygon fill="lightblue" stroke="lightblue" points="810,-288 598,-288 598,-216 810,-216 810,-288"/>
<polygon fill="lightblue" stroke="lightblue" points="606,-220 606,-284 802,-284 802,-220 606,-220"/>
<text text-anchor="start" x="610" y="-268.5" font-family="Georgia" font-size="15.00" fill="#00008b">loc_41BE :</text>
<text text-anchor="start" x="610" y="-247.8" font-family="Monospace" font-size="14.00"> &#160;&#160;&#160;and &#160;&#160;&#160;&#160;&#160;&#160;&#160;&#160;R01, &#160;&#160;&#160;&#160;&#160;&#160;&#160;R01</text>
<polygon fill="yellow" stroke="yellow" points="608,-222 608,-240 800,-240 800,-222 608,-222"/>
<text text-anchor="start" x="610" y="-227.8" font-family="Monospace" font-size="14.00" fill="red"> &#160;&#160;&#160;jz &#160;&#160;&#160;&#160;&#160;&#160;&#160;&#160;41C6</text>
</g>
<!-- _41A6&#45;&gt;_41BE -->
<g id="edge12" class="edge"><title>_41A6&#45;&gt;_41BE</title>
<path fill="none" stroke="red" d="M647.21,-323.88C652.717,-317.008 658.133,-310.248 663.302,-303.796"/>
<polygon fill="red" stroke="red" points="668.884,-308.025 675.926,-288.039 657.958,-299.271 668.884,-308.025"/>
</g>
<!-- _416A&#45;&gt;_41A6 -->
<g id="edge14" class="edge"><title>_416A&#45;&gt;_41A6</title>
<path fill="none" stroke="green" d="M602.745,-1095.97C589.978,-1086.14 578.351,-1074.18 571,-1060 525.347,-971.961 543.461,-695.221 558.541,-536.295"/>
<polygon fill="green" stroke="green" points="565.536,-536.684 560.501,-516.101 551.602,-535.332 565.536,-536.684"/>
</g>
<!-- _4170 -->
<g id="node17" class="node"><title>_4170</title>
<polygon fill="lightblue" stroke="lightblue" points="792,-1060 580,-1060 580,-928 792,-928 792,-1060"/>
<polygon fill="lightblue" stroke="lightblue" points="588,-932 588,-1056 784,-1056 784,-932 588,-932"/>
<text text-anchor="start" x="592" y="-1040.5" font-family="Georgia" font-size="15.00" fill="#00008b">loc_4170 :</text>
<text text-anchor="start" x="592" y="-1019.8" font-family="Monospace" font-size="14.00"> &#160;&#160;&#160;push &#160;&#160;&#160;&#160;&#160;&#160;&#160;R00</text>
<text text-anchor="start" x="592" y="-999.8" font-family="Monospace" font-size="14.00"> &#160;&#160;&#160;and &#160;&#160;&#160;&#160;&#160;&#160;&#160;&#160;R00, &#160;&#160;&#160;&#160;&#160;&#160;&#160;&#160;&#160;F</text>
<text text-anchor="start" x="592" y="-979.8" font-family="Monospace" font-size="14.00"> &#160;&#160;&#160;cmp &#160;&#160;&#160;&#160;&#160;&#160;&#160;&#160;R00, &#160;&#160;&#160;&#160;&#160;&#160;&#160;&#160;&#160;F</text>
<text text-anchor="start" x="592" y="-959.8" font-family="Monospace" font-size="14.00"> &#160;&#160;&#160;pop &#160;&#160;&#160;&#160;&#160;&#160;&#160;&#160;R00</text>
<polygon fill="yellow" stroke="yellow" points="590,-934 590,-952 782,-952 782,-934 590,-934"/>
<text text-anchor="start" x="592" y="-939.8" font-family="Monospace" font-size="14.00" fill="red"> &#160;&#160;&#160;jnz &#160;&#160;&#160;&#160;&#160;&#160;&#160;41A6</text>
</g>
<!-- _416A&#45;&gt;_4170 -->
<g id="edge16" class="edge"><title>_416A&#45;&gt;_4170</title>
<path fill="none" stroke="red" d="M674.863,-1095.98C675.423,-1090.9 676.019,-1085.5 676.633,-1079.93"/>
<polygon fill="red" stroke="red" points="683.595,-1080.65 678.83,-1060.01 669.68,-1079.12 683.595,-1080.65"/>
</g>
<!-- _41C6 -->
<g id="node9" class="node"><title>_41C6</title>
<polygon fill="lightblue" stroke="lightblue" points="810,-180 598,-180 598,-108 810,-108 810,-180"/>
<polygon fill="lightblue" stroke="lightblue" points="606,-112 606,-176 802,-176 802,-112 606,-112"/>
<text text-anchor="start" x="610" y="-160.5" font-family="Georgia" font-size="15.00" fill="#00008b">loc_41C6 :</text>
<text text-anchor="start" x="610" y="-139.8" font-family="Monospace" font-size="14.00"> &#160;&#160;&#160;mov &#160;&#160;&#160;&#160;&#160;b[R08], &#160;&#160;&#160;&#160;&#160;&#160;&#160;R02</text>
<polygon fill="yellow" stroke="yellow" points="608,-114 608,-132 800,-132 800,-114 608,-114"/>
<text text-anchor="start" x="610" y="-119.8" font-family="Monospace" font-size="14.00"> &#160;&#160;&#160;jmp &#160;&#160;&#160;&#160;&#160;&#160;&#160;41D6</text>
</g>
<!-- _41C6&#45;&gt;_41D6 -->
<g id="edge8" class="edge"><title>_41C6&#45;&gt;_41D6</title>
<path fill="none" stroke="blue" d="M660.082,-107.998C650.873,-100.658 641.007,-92.7951 631.318,-85.0731"/>
<polygon fill="blue" stroke="blue" points="635.329,-79.3187 615.326,-72.3275 626.604,-90.2669 635.329,-79.3187"/>
</g>
<!-- _41CA&#45;&gt;_41D0 -->
<g id="edge34" class="edge"><title>_41CA&#45;&gt;_41D0</title>
<path fill="none" stroke="red" d="M340.268,-215.998C313.928,-206.66 285.203,-196.477 257.944,-186.813"/>
<polygon fill="red" stroke="red" points="260.073,-180.141 238.884,-180.056 255.395,-193.336 260.073,-180.141"/>
</g>
<!-- _41D4 -->
<g id="node23" class="node"><title>_41D4</title>
<polygon fill="lightblue" stroke="lightblue" points="579.25,-170 298.75,-170 298.75,-118 579.25,-118 579.25,-170"/>
<polygon fill="lightblue" stroke="lightblue" points="306.5,-122 306.5,-166 571.5,-166 571.5,-122 306.5,-122"/>
<text text-anchor="start" x="311" y="-150.5" font-family="Georgia" font-size="15.00" fill="#00008b">loc_41D4 :</text>
<text text-anchor="start" x="311" y="-129.8" font-family="Monospace" font-size="14.00"> &#160;&#160;&#160;mov &#160;&#160;&#160;&#160;&#160;&#160;&#160;&#160;R00, &#160;&#160;&#160;&#160;b[R08]</text>
</g>
<!-- _41CA&#45;&gt;_41D4 -->
<g id="edge32" class="edge"><title>_41CA&#45;&gt;_41D4</title>
<path fill="none" stroke="green" d="M439,-215.998C439,-207.819 439,-198.992 439,-190.433"/>
<polygon fill="green" stroke="green" points="446,-190.234 439,-170.234 432,-190.234 446,-190.234"/>
</g>
<!-- _41BE&#45;&gt;_41C6 -->
<g id="edge28" class="edge"><title>_41BE&#45;&gt;_41C6</title>
<path fill="none" stroke="green" d="M704,-215.998C704,-210.985 704,-205.729 704,-200.44"/>
<polygon fill="green" stroke="green" points="711,-200.328 704,-180.328 697,-200.328 711,-200.328"/>
</g>
<!-- _41C2 -->
<g id="node18" class="node"><title>_41C2</title>
<polygon fill="lightblue" stroke="lightblue" points="1040,-180 828,-180 828,-108 1040,-108 1040,-180"/>
<polygon fill="lightblue" stroke="lightblue" points="836,-112 836,-176 1032,-176 1032,-112 836,-112"/>
<text text-anchor="start" x="840" y="-160.5" font-family="Georgia" font-size="15.00" fill="#00008b">loc_41C2 :</text>
<text text-anchor="start" x="840" y="-139.8" font-family="Monospace" font-size="14.00"> &#160;&#160;&#160;mov &#160;&#160;&#160;&#160;&#160;w[R08], &#160;&#160;&#160;&#160;&#160;&#160;&#160;R02</text>
<polygon fill="yellow" stroke="yellow" points="838,-114 838,-132 1030,-132 1030,-114 838,-114"/>
<text text-anchor="start" x="840" y="-119.8" font-family="Monospace" font-size="14.00"> &#160;&#160;&#160;jmp &#160;&#160;&#160;&#160;&#160;&#160;&#160;41D6</text>
</g>
<!-- _41BE&#45;&gt;_41C2 -->
<g id="edge30" class="edge"><title>_41BE&#45;&gt;_41C2</title>
<path fill="none" stroke="red" d="M779.948,-215.998C798.985,-207.224 819.642,-197.704 839.461,-188.57"/>
<polygon fill="red" stroke="red" points="842.505,-194.875 857.739,-180.146 836.645,-182.16 842.505,-194.875"/>
</g>
<!-- _4170&#45;&gt;_41A6 -->
<g id="edge20" class="edge"><title>_4170&#45;&gt;_41A6</title>
<path fill="none" stroke="green" d="M628.031,-927.768C620.479,-916.465 613.734,-904.354 609,-892 584.987,-829.335 576.146,-654.395 572.893,-536.282"/>
<polygon fill="green" stroke="green" points="579.884,-535.836 572.374,-516.022 565.888,-536.195 579.884,-535.836"/>
</g>
<!-- _417E -->
<g id="node22" class="node"><title>_417E</title>
<polygon fill="lightblue" stroke="lightblue" points="899.25,-892 618.75,-892 618.75,-800 899.25,-800 899.25,-892"/>
<polygon fill="lightblue" stroke="lightblue" points="626.5,-804 626.5,-888 891.5,-888 891.5,-804 626.5,-804"/>
<text text-anchor="start" x="631" y="-872.5" font-family="Georgia" font-size="15.00" fill="#00008b">loc_417E :</text>
<text text-anchor="start" x="631" y="-851.8" font-family="Monospace" font-size="14.00"> &#160;&#160;&#160;shr &#160;&#160;&#160;&#160;&#160;&#160;&#160;&#160;R01, &#160;&#160;&#160;&#160;&#160;&#160;&#160;&#160;&#160;1</text>
<text text-anchor="start" x="631" y="-831.8" font-family="Monospace" font-size="14.00"> &#160;&#160;&#160;and &#160;&#160;&#160;&#160;&#160;&#160;&#160;&#160;R01, &#160;&#160;&#160;&#160;&#160;&#160;&#160;R01</text>
<polygon fill="yellow" stroke="yellow" points="629,-806 629,-824 890,-824 890,-806 629,-806"/>
<text text-anchor="start" x="631" y="-811.8" font-family="Monospace" font-size="14.00" fill="red"> &#160;&#160;&#160;jz &#160;&#160;&#160;&#160;&#160;&#160;&#160;&#160;419E</text>
</g>
<!-- _4170&#45;&gt;_417E -->
<g id="edge22" class="edge"><title>_4170&#45;&gt;_417E</title>
<path fill="none" stroke="red" d="M718.657,-927.687C721.562,-921.876 724.5,-916 727.396,-910.207"/>
<polygon fill="red" stroke="red" points="733.73,-913.193 736.413,-892.174 721.208,-906.932 733.73,-913.193"/>
</g>
<!-- _41C2&#45;&gt;_41D6 -->
<g id="edge18" class="edge"><title>_41C2&#45;&gt;_41D6</title>
<path fill="none" stroke="blue" d="M827.813,-110.612C824.845,-109.729 821.902,-108.857 819,-108 774.024,-94.7187 724.349,-80.4235 681.344,-68.1659"/>
<polygon fill="blue" stroke="blue" points="683.247,-61.4296 662.095,-62.6883 679.415,-74.8951 683.247,-61.4296"/>
</g>
<!-- _419E -->
<g id="node25" class="node"><title>_419E</title>
<polygon fill="lightblue" stroke="lightblue" points="830,-704 618,-704 618,-612 830,-612 830,-704"/>
<polygon fill="lightblue" stroke="lightblue" points="626,-616 626,-700 822,-700 822,-616 626,-616"/>
<text text-anchor="start" x="630" y="-684.5" font-family="Georgia" font-size="15.00" fill="#00008b">loc_419E :</text>
<polygon fill="deepskyblue" stroke="deepskyblue" points="628,-658 628,-676 820,-676 820,-658 628,-658"/>
<text text-anchor="start" x="630" y="-663.8" font-family="Monospace" font-size="14.00"> &#160;&#160;&#160;call &#160;&#160;&#160;&#160;&#160;&#160;41A6</text>
<text text-anchor="start" x="630" y="-643.8" font-family="Monospace" font-size="14.00"> &#160;&#160;&#160;shr &#160;&#160;&#160;&#160;&#160;&#160;&#160;&#160;R02, &#160;&#160;&#160;&#160;&#160;&#160;&#160;&#160;&#160;8</text>
<text text-anchor="start" x="630" y="-623.8" font-family="Monospace" font-size="14.00"> &#160;&#160;&#160;addi &#160;&#160;&#160;&#160;&#160;&#160;&#160;R00, &#160;&#160;&#160;&#160;&#160;&#160;&#160;&#160;&#160;1</text>
</g>
<!-- _417E&#45;&gt;_419E -->
<g id="edge36" class="edge"><title>_417E&#45;&gt;_419E</title>
<path fill="none" stroke="green" d="M750.527,-799.975C746.239,-777.182 740.954,-749.096 736.233,-724.008"/>
<polygon fill="green" stroke="green" points="743.094,-722.616 732.516,-704.255 729.335,-725.205 743.094,-722.616"/>
</g>
<!-- _4184 -->
<g id="node33" class="node"><title>_4184</title>
<polygon fill="lightblue" stroke="lightblue" points="1204,-764 848,-764 848,-552 1204,-552 1204,-764"/>
<polygon fill="lightblue" stroke="lightblue" points="856,-556 856,-760 1196,-760 1196,-556 856,-556"/>
<text text-anchor="start" x="860" y="-744.5" font-family="Georgia" font-size="15.00" fill="#00008b">loc_4184 :</text>
<text text-anchor="start" x="860" y="-723.8" font-family="Monospace" font-size="14.00"> &#160;&#160;&#160;push &#160;&#160;&#160;&#160;&#160;&#160;&#160;R00</text>
<polygon fill="deepskyblue" stroke="deepskyblue" points="858,-698 858,-716 1194,-716 1194,-698 858,-698"/>
<text text-anchor="start" x="860" y="-703.8" font-family="Monospace" font-size="14.00"> &#160;&#160;&#160;call &#160;&#160;&#160;&#160;&#160;&#160;41A6</text>
<text text-anchor="start" x="860" y="-683.8" font-family="Monospace" font-size="14.00"> &#160;&#160;&#160;mov &#160;&#160;&#160;&#160;w[sizeBuffInReq], &#160;&#160;&#160;&#160;&#160;&#160;&#160;R00</text>
<text text-anchor="start" x="860" y="-663.8" font-family="Monospace" font-size="14.00"> &#160;&#160;&#160;pop &#160;&#160;&#160;&#160;&#160;&#160;&#160;&#160;R00</text>
<text text-anchor="start" x="860" y="-643.8" font-family="Monospace" font-size="14.00"> &#160;&#160;&#160;addi &#160;&#160;&#160;&#160;&#160;&#160;&#160;R00, &#160;&#160;&#160;&#160;&#160;&#160;&#160;&#160;&#160;1</text>
<polygon fill="deepskyblue" stroke="deepskyblue" points="858,-618 858,-636 1194,-636 1194,-618 858,-618"/>
<text text-anchor="start" x="860" y="-623.8" font-family="Monospace" font-size="14.00"> &#160;&#160;&#160;call &#160;&#160;&#160;&#160;&#160;&#160;41A6</text>
<text text-anchor="start" x="860" y="-603.8" font-family="Monospace" font-size="14.00"> &#160;&#160;&#160;shl &#160;&#160;&#160;&#160;&#160;&#160;&#160;&#160;R00, &#160;&#160;&#160;&#160;&#160;&#160;&#160;&#160;&#160;8</text>
<text text-anchor="start" x="860" y="-583.8" font-family="Monospace" font-size="14.00"> &#160;&#160;&#160;and &#160;&#160;&#160;&#160;&#160;&#160;&#160;&#160;R00, &#160;&#160;&#160;b[sizeBuffInReq]</text>
<polygon fill="lightseagreen" stroke="lightseagreen" points="858,-558 858,-576 1194,-576 1194,-558 858,-558"/>
<text text-anchor="start" x="860" y="-563.8" font-family="Monospace" font-size="14.00"> &#160;&#160;&#160;ret &#160;</text>
</g>
<!-- _417E&#45;&gt;_4184 -->
<g id="edge38" class="edge"><title>_417E&#45;&gt;_4184</title>
<path fill="none" stroke="red" d="M823.633,-799.975C834.509,-792.398 846.225,-784.237 858.343,-775.795"/>
<polygon fill="red" stroke="red" points="862.666,-781.314 875.076,-764.138 854.664,-769.827 862.666,-781.314"/>
</g>
<!-- _41D4&#45;&gt;_41D6 -->
<g id="edge24" class="edge"><title>_41D4&#45;&gt;_41D6</title>
<path fill="none" stroke="blue" d="M470.282,-117.879C482.635,-107.96 497.255,-96.2193 511.471,-84.8032"/>
<polygon fill="blue" stroke="blue" points="515.996,-90.1472 527.208,-72.1665 507.231,-79.2312 515.996,-90.1472"/>
</g>
<!-- _419E&#45;&gt;_41A6 -->
<g id="edge26" class="edge"><title>_419E&#45;&gt;_41A6</title>
<path fill="none" stroke="blue" d="M694.681,-611.776C680.166,-589.387 661.933,-561.263 643.961,-533.542"/>
<polygon fill="blue" stroke="blue" points="649.594,-529.362 632.841,-516.388 637.847,-536.978 649.594,-529.362"/>
</g>
</g>
</svg>
