<?xml version="1.0" encoding="UTF-8" standalone="no"?>
<!DOCTYPE svg PUBLIC "-//W3C//DTD SVG 1.1//EN"
 "http://www.w3.org/Graphics/SVG/1.1/DTD/svg11.dtd">
<!-- Generated by graphviz version 2.28.0 (20110507.0327)
 -->
<!-- Title: G_41A6 Pages: 1 -->
<svg width="1163pt" height="524pt"
 viewBox="0.00 0.00 1163.00 524.00" xmlns="http://www.w3.org/2000/svg" xmlns:xlink="http://www.w3.org/1999/xlink">
<g id="graph1" class="graph" transform="scale(1 1) rotate(0) translate(4 520)">
<title>G_41A6</title>
<polygon fill="white" stroke="white" points="-4,5 -4,-520 1160,-520 1160,5 -4,5"/>
<!-- _41C2 -->
<g id="node1" class="node"><title>_41C2</title>
<polygon fill="lightblue" stroke="lightblue" points="856.25,-180 575.75,-180 575.75,-108 856.25,-108 856.25,-180"/>
<polygon fill="lightblue" stroke="lightblue" points="583.5,-112 583.5,-176 848.5,-176 848.5,-112 583.5,-112"/>
<text text-anchor="start" x="588" y="-160.5" font-family="Georgia" font-size="15.00" fill="#00008b">loc_41C2 :</text>
<text text-anchor="start" x="588" y="-139.8" font-family="Monospace" font-size="14.00"> &#160;&#160;&#160;mov &#160;&#160;&#160;&#160;&#160;w[R08], &#160;&#160;&#160;&#160;&#160;&#160;&#160;R02</text>
<polygon fill="yellow" stroke="yellow" points="586,-114 586,-132 847,-132 847,-114 586,-114"/>
<text text-anchor="start" x="588" y="-119.8" font-family="Monospace" font-size="14.00"> &#160;&#160;&#160;jmp &#160;&#160;&#160;&#160;&#160;&#160;&#160;41D6</text>
</g>
<!-- _41D6 -->
<g id="node3" class="node"><title>_41D6</title>
<polygon fill="lightblue" stroke="lightblue" points="657,-72 475,-72 475,-0 657,-0 657,-72"/>
<polygon fill="lightblue" stroke="lightblue" points="483,-4 483,-68 649,-68 649,-4 483,-4"/>
<text text-anchor="start" x="487" y="-52.5" font-family="Georgia" font-size="15.00" fill="#00008b">loc_41D6 :</text>
<text text-anchor="start" x="487" y="-31.8" font-family="Monospace" font-size="14.00"> &#160;&#160;&#160;pop &#160;&#160;&#160;&#160;&#160;&#160;&#160;&#160;R08</text>
<polygon fill="lightseagreen" stroke="lightseagreen" points="485,-6 485,-24 647,-24 647,-6 485,-6"/>
<text text-anchor="start" x="487" y="-11.8" font-family="Monospace" font-size="14.00"> &#160;&#160;&#160;ret &#160;</text>
</g>
<!-- _41C2&#45;&gt;_41D6 -->
<g id="edge2" class="edge"><title>_41C2&#45;&gt;_41D6</title>
<path fill="none" stroke="blue" d="M666.469,-107.998C655.518,-100.259 643.745,-91.9397 632.25,-83.8166"/>
<polygon fill="blue" stroke="blue" points="636.109,-77.9719 615.735,-72.1464 628.029,-89.4053 636.109,-77.9719"/>
</g>
<!-- _41A6 -->
<g id="node4" class="node"><title>_41A6</title>
<polygon fill="lightblue" stroke="lightblue" points="706.25,-516 425.75,-516 425.75,-324 706.25,-324 706.25,-516"/>
<polygon fill="lightblue" stroke="lightblue" points="433.5,-328 433.5,-512 698.5,-512 698.5,-328 433.5,-328"/>
<text text-anchor="start" x="438" y="-496.5" font-family="Georgia" font-size="15.00" fill="#00008b">loc_41A6 :</text>
<text text-anchor="start" x="438" y="-475.8" font-family="Monospace" font-size="14.00"> &#160;&#160;&#160;pushad</text>
<polygon fill="deepskyblue" stroke="deepskyblue" points="436,-450 436,-468 697,-468 697,-450 436,-450"/>
<text text-anchor="start" x="438" y="-455.8" font-family="Monospace" font-size="14.00"> &#160;&#160;&#160;call &#160;&#160;&#160;&#160;&#160;&#160;getCacheAddress</text>
<text text-anchor="start" x="438" y="-435.8" font-family="Monospace" font-size="14.00"> &#160;&#160;&#160;mov &#160;&#160;&#160;&#160;w[406E], &#160;&#160;&#160;&#160;&#160;&#160;&#160;R00</text>
<text text-anchor="start" x="438" y="-415.8" font-family="Monospace" font-size="14.00"> &#160;&#160;&#160;popad</text>
<text text-anchor="start" x="438" y="-395.8" font-family="Monospace" font-size="14.00"> &#160;&#160;&#160;push &#160;&#160;&#160;&#160;&#160;&#160;&#160;R08</text>
<text text-anchor="start" x="438" y="-375.8" font-family="Monospace" font-size="14.00"> &#160;&#160;&#160;mov &#160;&#160;&#160;&#160;&#160;&#160;&#160;&#160;R08, &#160;&#160;&#160;w[406E]</text>
<text text-anchor="start" x="438" y="-355.8" font-family="Monospace" font-size="14.00"> &#160;&#160;&#160;cmp &#160;&#160;&#160;&#160;&#160;&#160;&#160;&#160;R01, &#160;&#160;&#160;&#160;&#160;&#160;&#160;&#160;&#160;2</text>
<polygon fill="yellow" stroke="yellow" points="436,-330 436,-348 697,-348 697,-330 436,-330"/>
<text text-anchor="start" x="438" y="-335.8" font-family="Monospace" font-size="14.00" fill="red"> &#160;&#160;&#160;jae &#160;&#160;&#160;&#160;&#160;&#160;&#160;41CA</text>
</g>
<!-- _41CA -->
<g id="node6" class="node"><title>_41CA</title>
<polygon fill="lightblue" stroke="lightblue" points="557.25,-288 276.75,-288 276.75,-216 557.25,-216 557.25,-288"/>
<polygon fill="lightblue" stroke="lightblue" points="284.5,-220 284.5,-284 549.5,-284 549.5,-220 284.5,-220"/>
<text text-anchor="start" x="289" y="-268.5" font-family="Georgia" font-size="15.00" fill="#00008b">loc_41CA :</text>
<text text-anchor="start" x="289" y="-247.8" font-family="Monospace" font-size="14.00"> &#160;&#160;&#160;cmp &#160;&#160;&#160;&#160;&#160;&#160;&#160;&#160;R01, &#160;&#160;&#160;&#160;&#160;&#160;&#160;&#160;&#160;4</text>
<polygon fill="yellow" stroke="yellow" points="287,-222 287,-240 548,-240 548,-222 287,-222"/>
<text text-anchor="start" x="289" y="-227.8" font-family="Monospace" font-size="14.00" fill="red"> &#160;&#160;&#160;jnz &#160;&#160;&#160;&#160;&#160;&#160;&#160;41D4</text>
</g>
<!-- _41A6&#45;&gt;_41CA -->
<g id="edge4" class="edge"><title>_41A6&#45;&gt;_41CA</title>
<path fill="none" stroke="green" d="M480.622,-323.88C474.184,-316.709 467.858,-309.66 461.84,-302.956"/>
<polygon fill="green" stroke="green" points="467.02,-298.247 448.451,-288.039 456.601,-307.599 467.02,-298.247"/>
</g>
<!-- _41BE -->
<g id="node8" class="node"><title>_41BE</title>
<polygon fill="lightblue" stroke="lightblue" points="822,-288 610,-288 610,-216 822,-216 822,-288"/>
<polygon fill="lightblue" stroke="lightblue" points="618,-220 618,-284 814,-284 814,-220 618,-220"/>
<text text-anchor="start" x="622" y="-268.5" font-family="Georgia" font-size="15.00" fill="#00008b">loc_41BE :</text>
<text text-anchor="start" x="622" y="-247.8" font-family="Monospace" font-size="14.00"> &#160;&#160;&#160;and &#160;&#160;&#160;&#160;&#160;&#160;&#160;&#160;R01, &#160;&#160;&#160;&#160;&#160;&#160;&#160;R01</text>
<polygon fill="yellow" stroke="yellow" points="620,-222 620,-240 812,-240 812,-222 620,-222"/>
<text text-anchor="start" x="622" y="-227.8" font-family="Monospace" font-size="14.00" fill="red"> &#160;&#160;&#160;jz &#160;&#160;&#160;&#160;&#160;&#160;&#160;&#160;41C6</text>
</g>
<!-- _41A6&#45;&gt;_41BE -->
<g id="edge6" class="edge"><title>_41A6&#45;&gt;_41BE</title>
<path fill="none" stroke="red" d="M651.951,-323.88C658.432,-316.709 664.801,-309.66 670.859,-302.956"/>
<polygon fill="red" stroke="red" points="676.123,-307.572 684.338,-288.039 665.735,-298.186 676.123,-307.572"/>
</g>
<!-- _41D4 -->
<g id="node12" class="node"><title>_41D4</title>
<polygon fill="lightblue" stroke="lightblue" points="258,-170 0,-170 0,-118 258,-118 258,-170"/>
<polygon fill="lightblue" stroke="lightblue" points="8,-122 8,-166 250,-166 250,-122 8,-122"/>
<text text-anchor="start" x="12" y="-150.5" font-family="Georgia" font-size="15.00" fill="#00008b">loc_41D4 :</text>
<text text-anchor="start" x="12" y="-129.8" font-family="Monospace" font-size="14.00"> &#160;&#160;&#160;mov &#160;&#160;&#160;&#160;&#160;&#160;&#160;&#160;R00, &#160;&#160;&#160;&#160;b[R08]</text>
</g>
<!-- _41CA&#45;&gt;_41D4 -->
<g id="edge10" class="edge"><title>_41CA&#45;&gt;_41D4</title>
<path fill="none" stroke="green" d="M321.9,-215.998C287.796,-203.446 249.54,-189.365 216.144,-177.074"/>
<polygon fill="green" stroke="green" points="218.298,-170.408 197.111,-170.069 213.462,-183.546 218.298,-170.408"/>
</g>
<!-- _41D0 -->
<g id="node14" class="node"><title>_41D0</title>
<polygon fill="lightblue" stroke="lightblue" points="557.25,-180 276.75,-180 276.75,-108 557.25,-108 557.25,-180"/>
<polygon fill="lightblue" stroke="lightblue" points="284.5,-112 284.5,-176 549.5,-176 549.5,-112 284.5,-112"/>
<text text-anchor="start" x="289" y="-160.5" font-family="Georgia" font-size="15.00" fill="#00008b">loc_41D0 :</text>
<text text-anchor="start" x="289" y="-139.8" font-family="Monospace" font-size="14.00"> &#160;&#160;&#160;mov &#160;&#160;&#160;&#160;&#160;&#160;&#160;&#160;R00, &#160;&#160;&#160;&#160;w[R08]</text>
<polygon fill="yellow" stroke="yellow" points="287,-114 287,-132 548,-132 548,-114 287,-114"/>
<text text-anchor="start" x="289" y="-119.8" font-family="Monospace" font-size="14.00"> &#160;&#160;&#160;jmp &#160;&#160;&#160;&#160;&#160;&#160;&#160;41D6</text>
</g>
<!-- _41CA&#45;&gt;_41D0 -->
<g id="edge12" class="edge"><title>_41CA&#45;&gt;_41D0</title>
<path fill="none" stroke="red" d="M417,-215.998C417,-210.985 417,-205.729 417,-200.44"/>
<polygon fill="red" stroke="red" points="424,-200.328 417,-180.328 410,-200.328 424,-200.328"/>
</g>
<!-- _41BE&#45;&gt;_41C2 -->
<g id="edge20" class="edge"><title>_41BE&#45;&gt;_41C2</title>
<path fill="none" stroke="red" d="M716,-215.998C716,-210.985 716,-205.729 716,-200.44"/>
<polygon fill="red" stroke="red" points="723,-200.328 716,-180.328 709,-200.328 723,-200.328"/>
</g>
<!-- _41C6 -->
<g id="node9" class="node"><title>_41C6</title>
<polygon fill="lightblue" stroke="lightblue" points="1155.25,-180 874.75,-180 874.75,-108 1155.25,-108 1155.25,-180"/>
<polygon fill="lightblue" stroke="lightblue" points="882.5,-112 882.5,-176 1147.5,-176 1147.5,-112 882.5,-112"/>
<text text-anchor="start" x="887" y="-160.5" font-family="Georgia" font-size="15.00" fill="#00008b">loc_41C6 :</text>
<text text-anchor="start" x="887" y="-139.8" font-family="Monospace" font-size="14.00"> &#160;&#160;&#160;mov &#160;&#160;&#160;&#160;&#160;b[R08], &#160;&#160;&#160;&#160;&#160;&#160;&#160;R02</text>
<polygon fill="yellow" stroke="yellow" points="885,-114 885,-132 1146,-132 1146,-114 885,-114"/>
<text text-anchor="start" x="887" y="-119.8" font-family="Monospace" font-size="14.00"> &#160;&#160;&#160;jmp &#160;&#160;&#160;&#160;&#160;&#160;&#160;41D6</text>
</g>
<!-- _41BE&#45;&gt;_41C6 -->
<g id="edge18" class="edge"><title>_41BE&#45;&gt;_41C6</title>
<path fill="none" stroke="green" d="M814.732,-215.998C841.072,-206.66 869.797,-196.477 897.056,-186.813"/>
<polygon fill="green" stroke="green" points="899.605,-193.336 916.116,-180.056 894.927,-180.141 899.605,-193.336"/>
</g>
<!-- _41C6&#45;&gt;_41D6 -->
<g id="edge8" class="edge"><title>_41C6&#45;&gt;_41D6</title>
<path fill="none" stroke="blue" d="M874.473,-109.824C810.8,-94.7924 736.597,-77.2746 676.927,-63.1876"/>
<polygon fill="blue" stroke="blue" points="678.357,-56.3329 657.284,-58.5503 675.14,-69.9584 678.357,-56.3329"/>
</g>
<!-- _41D4&#45;&gt;_41D6 -->
<g id="edge16" class="edge"><title>_41D4&#45;&gt;_41D6</title>
<path fill="none" stroke="blue" d="M226.958,-117.959C240.404,-114.58 254.038,-111.183 267,-108 329.204,-92.7273 398.821,-76.1649 455.22,-62.8811"/>
<polygon fill="blue" stroke="blue" points="457.106,-69.6286 474.972,-58.2354 453.9,-56.0005 457.106,-69.6286"/>
</g>
<!-- _41D0&#45;&gt;_41D6 -->
<g id="edge14" class="edge"><title>_41D0&#45;&gt;_41D6</title>
<path fill="none" stroke="blue" d="M466.201,-107.998C477.079,-100.259 488.773,-91.9397 500.192,-83.8166"/>
<polygon fill="blue" stroke="blue" points="504.357,-89.444 516.596,-72.1464 496.242,-78.0362 504.357,-89.444"/>
</g>
</g>
</svg>
