<?xml version="1.0" encoding="UTF-8" standalone="no"?>
<!DOCTYPE svg PUBLIC "-//W3C//DTD SVG 1.1//EN"
 "http://www.w3.org/Graphics/SVG/1.1/DTD/svg11.dtd">
<!-- Generated by graphviz version 2.28.0 (20110507.0327)
 -->
<!-- Title: G_4156 Pages: 1 -->
<svg width="370pt" height="296pt"
 viewBox="0.00 0.00 370.00 296.00" xmlns="http://www.w3.org/2000/svg" xmlns:xlink="http://www.w3.org/1999/xlink">
<g id="graph1" class="graph" transform="scale(1 1) rotate(0) translate(4 292)">
<title>G_4156</title>
<polygon fill="white" stroke="white" points="-4,5 -4,-292 367,-292 367,5 -4,5"/>
<!-- _415A -->
<g id="node1" class="node"><title>_415A</title>
<polygon fill="lightblue" stroke="lightblue" points="280.25,-180 -0.25,-180 -0.25,-88 280.25,-88 280.25,-180"/>
<polygon fill="lightblue" stroke="lightblue" points="7.5,-92 7.5,-176 272.5,-176 272.5,-92 7.5,-92"/>
<text text-anchor="start" x="12" y="-160.5" font-family="Georgia" font-size="15.00" fill="#00008b">loc_415A :</text>
<text text-anchor="start" x="12" y="-139.8" font-family="Monospace" font-size="14.00"> &#160;&#160;&#160;shl &#160;&#160;&#160;&#160;&#160;&#160;&#160;&#160;R00, &#160;&#160;&#160;&#160;&#160;&#160;&#160;&#160;&#160;1</text>
<text text-anchor="start" x="12" y="-119.8" font-family="Monospace" font-size="14.00"> &#160;&#160;&#160;subi &#160;&#160;&#160;&#160;&#160;&#160;&#160;R01, &#160;&#160;&#160;&#160;&#160;&#160;&#160;&#160;&#160;1</text>
<polygon fill="yellow" stroke="yellow" points="10,-94 10,-112 271,-112 271,-94 10,-94"/>
<text text-anchor="start" x="12" y="-99.8" font-family="Monospace" font-size="14.00" fill="red"> &#160;&#160;&#160;jnz &#160;&#160;&#160;&#160;&#160;&#160;&#160;415A</text>
</g>
<!-- _415A&#45;&gt;_415A -->
<g id="edge2" class="edge"><title>_415A&#45;&gt;_415A</title>
<path fill="none" stroke="green" d="M280.467,-149.266C291.313,-145.891 298,-140.803 298,-134 298,-132.618 297.724,-131.307 297.194,-130.067"/>
<polygon fill="green" stroke="green" points="300.951,-124.157 280.467,-118.734 293.098,-135.747 300.951,-124.157"/>
</g>
<!-- _4160 -->
<g id="node4" class="node"><title>_4160</title>
<polygon fill="lightblue" stroke="lightblue" points="283,-52 183,-52 183,-0 283,-0 283,-52"/>
<polygon fill="lightblue" stroke="lightblue" points="191,-4 191,-48 275,-48 275,-4 191,-4"/>
<text text-anchor="start" x="195" y="-32.5" font-family="Georgia" font-size="15.00" fill="#00008b">loc_4160 :</text>
<polygon fill="lightseagreen" stroke="lightseagreen" points="193,-6 193,-24 273,-24 273,-6 193,-6"/>
<text text-anchor="start" x="195" y="-11.8" font-family="Monospace" font-size="14.00"> &#160;&#160;&#160;ret &#160;</text>
</g>
<!-- _415A&#45;&gt;_4160 -->
<g id="edge4" class="edge"><title>_415A&#45;&gt;_4160</title>
<path fill="none" stroke="red" d="M179.71,-87.739C185.625,-80.9971 191.69,-74.0844 197.511,-67.4501"/>
<polygon fill="red" stroke="red" points="202.925,-71.8929 210.853,-52.2424 192.401,-62.6598 202.925,-71.8929"/>
</g>
<!-- _4156 -->
<g id="node5" class="node"><title>_4156</title>
<polygon fill="lightblue" stroke="lightblue" points="362,-288 104,-288 104,-216 362,-216 362,-288"/>
<polygon fill="lightblue" stroke="lightblue" points="112,-220 112,-284 354,-284 354,-220 112,-220"/>
<text text-anchor="start" x="116" y="-268.5" font-family="Georgia" font-size="15.00" fill="#00008b">shl R00, R01 (4156) :</text>
<text text-anchor="start" x="116" y="-247.8" font-family="Monospace" font-size="14.00"> &#160;&#160;&#160;and &#160;&#160;&#160;&#160;&#160;&#160;&#160;&#160;R01, &#160;&#160;&#160;&#160;&#160;&#160;&#160;R01</text>
<polygon fill="yellow" stroke="yellow" points="114,-222 114,-240 352,-240 352,-222 114,-222"/>
<text text-anchor="start" x="116" y="-227.8" font-family="Monospace" font-size="14.00" fill="red"> &#160;&#160;&#160;jz &#160;&#160;&#160;&#160;&#160;&#160;&#160;&#160;4160</text>
</g>
<!-- _4156&#45;&gt;_415A -->
<g id="edge8" class="edge"><title>_4156&#45;&gt;_415A</title>
<path fill="none" stroke="red" d="M204.845,-215.881C199.792,-209.58 194.396,-202.849 188.955,-196.062"/>
<polygon fill="red" stroke="red" points="194.29,-191.526 176.318,-180.3 183.367,-200.283 194.29,-191.526"/>
</g>
<!-- _4156&#45;&gt;_4160 -->
<g id="edge6" class="edge"><title>_4156&#45;&gt;_4160</title>
<path fill="none" stroke="green" d="M281.151,-215.8C291.624,-205.541 301.274,-193.43 307,-180 323.037,-142.387 324.442,-124.982 307,-88 303.099,-79.7295 297.466,-72.2 291.024,-65.4743"/>
<polygon fill="green" stroke="green" points="295.57,-60.1493 275.986,-52.0588 286.25,-70.5964 295.57,-60.1493"/>
</g>
</g>
</svg>
