<?xml version="1.0" encoding="UTF-8" standalone="no"?>
<!DOCTYPE svg PUBLIC "-//W3C//DTD SVG 1.1//EN"
 "http://www.w3.org/Graphics/SVG/1.1/DTD/svg11.dtd">
<!-- Generated by graphviz version 2.28.0 (20110507.0327)
 -->
<!-- Title: G_41DA Pages: 1 -->
<svg width="1276pt" height="1128pt"
 viewBox="0.00 0.00 1276.02 1128.00" xmlns="http://www.w3.org/2000/svg" xmlns:xlink="http://www.w3.org/1999/xlink">
<g id="graph1" class="graph" transform="scale(1 1) rotate(0) translate(4 1124)">
<title>G_41DA</title>
<polygon fill="white" stroke="white" points="-4,5 -4,-1124 1273.02,-1124 1273.02,5 -4,5"/>
<!-- _421A -->
<g id="node1" class="node"><title>_421A</title>
<polygon fill="lightblue" stroke="lightblue" points="430.25,-962 149.75,-962 149.75,-870 430.25,-870 430.25,-962"/>
<polygon fill="lightblue" stroke="lightblue" points="157.5,-874 157.5,-958 422.5,-958 422.5,-874 157.5,-874"/>
<text text-anchor="start" x="162" y="-942.5" font-family="Georgia" font-size="15.00" fill="#00008b">loc_421A :</text>
<text text-anchor="start" x="162" y="-921.8" font-family="Monospace" font-size="14.00"> &#160;&#160;&#160;subi &#160;&#160;&#160;&#160;&#160;&#160;&#160;R09, &#160;&#160;&#160;&#160;&#160;&#160;&#160;&#160;&#160;2</text>
<text text-anchor="start" x="162" y="-901.8" font-family="Monospace" font-size="14.00"> &#160;&#160;&#160;and &#160;&#160;&#160;&#160;&#160;&#160;&#160;&#160;R06, &#160;&#160;&#160;&#160;&#160;&#160;&#160;&#160;&#160;6</text>
<polygon fill="yellow" stroke="yellow" points="160,-876 160,-894 421,-894 421,-876 160,-876"/>
<text text-anchor="start" x="162" y="-881.8" font-family="Monospace" font-size="14.00" fill="red"> &#160;&#160;&#160;jnz &#160;&#160;&#160;&#160;&#160;&#160;&#160;4226</text>
</g>
<!-- _4226 -->
<g id="node3" class="node"><title>_4226</title>
<polygon fill="lightblue" stroke="lightblue" points="309.25,-496 28.75,-496 28.75,-384 309.25,-384 309.25,-496"/>
<polygon fill="lightblue" stroke="lightblue" points="36.5,-388 36.5,-492 301.5,-492 301.5,-388 36.5,-388"/>
<text text-anchor="start" x="41" y="-476.5" font-family="Georgia" font-size="15.00" fill="#00008b">loc_4226 :</text>
<text text-anchor="start" x="41" y="-455.8" font-family="Monospace" font-size="14.00"> &#160;&#160;&#160;sub &#160;&#160;&#160;&#160;&#160;&#160;&#160;&#160;R00, &#160;&#160;&#160;&#160;&#160;&#160;&#160;R05</text>
<text text-anchor="start" x="41" y="-435.8" font-family="Monospace" font-size="14.00"> &#160;&#160;&#160;add &#160;&#160;&#160;&#160;&#160;&#160;&#160;&#160;R00, &#160;&#160;&#160;&#160;&#160;&#160;&#160;R10</text>
<text text-anchor="start" x="41" y="-415.8" font-family="Monospace" font-size="14.00"> &#160;&#160;&#160;xor &#160;&#160;&#160;&#160;&#160;w[R08], &#160;&#160;&#160;&#160;w[R08]</text>
<polygon fill="lightseagreen" stroke="lightseagreen" points="39,-390 39,-408 300,-408 300,-390 39,-390"/>
<text text-anchor="start" x="41" y="-395.8" font-family="Monospace" font-size="14.00"> &#160;&#160;&#160;ret &#160;</text>
</g>
<!-- _421A&#45;&gt;_4226 -->
<g id="edge2" class="edge"><title>_421A&#45;&gt;_4226</title>
<path fill="none" stroke="green" d="M308.411,-869.922C336.057,-794.564 378.918,-640.586 318,-532 313.542,-524.053 308.076,-516.717 301.9,-509.96"/>
<polygon fill="green" stroke="green" points="306.661,-504.827 287.363,-496.074 296.991,-514.951 306.661,-504.827"/>
</g>
<!-- _4222 -->
<g id="node5" class="node"><title>_4222</title>
<polygon fill="lightblue" stroke="lightblue" points="309.25,-704 28.75,-704 28.75,-652 309.25,-652 309.25,-704"/>
<polygon fill="lightblue" stroke="lightblue" points="36.5,-656 36.5,-700 301.5,-700 301.5,-656 36.5,-656"/>
<text text-anchor="start" x="41" y="-684.5" font-family="Georgia" font-size="15.00" fill="#00008b">loc_4222 :</text>
<text text-anchor="start" x="41" y="-663.8" font-family="Monospace" font-size="14.00"> &#160;&#160;&#160;or &#160;&#160;&#160;&#160;&#160;&#160;w[R09], &#160;&#160;&#160;&#160;&#160;&#160;&#160;&#160;&#160;1</text>
</g>
<!-- _421A&#45;&gt;_4222 -->
<g id="edge4" class="edge"><title>_421A&#45;&gt;_4222</title>
<path fill="none" stroke="red" d="M266.813,-869.776C244.964,-827.16 212.461,-763.767 191.006,-721.921"/>
<polygon fill="red" stroke="red" points="197.221,-718.699 181.867,-704.095 184.763,-725.086 197.221,-718.699"/>
</g>
<!-- _4222&#45;&gt;_4226 -->
<g id="edge10" class="edge"><title>_4222&#45;&gt;_4226</title>
<path fill="none" stroke="blue" d="M169,-651.744C169,-619.706 169,-563.026 169,-516.512"/>
<polygon fill="blue" stroke="blue" points="176,-516.313 169,-496.313 162,-516.313 176,-516.313"/>
</g>
<!-- _4244 -->
<g id="node6" class="node"><title>_4244</title>
<polygon fill="lightblue" stroke="lightblue" points="636,-308 468,-308 468,-256 636,-256 636,-308"/>
<polygon fill="lightblue" stroke="lightblue" points="476,-260 476,-304 628,-304 628,-260 476,-260"/>
<text text-anchor="start" x="480" y="-288.5" font-family="Georgia" font-size="15.00" fill="#00008b">loc_4244 :</text>
<polygon fill="yellow" stroke="yellow" points="478,-262 478,-280 626,-280 626,-262 478,-262"/>
<text text-anchor="start" x="480" y="-267.8" font-family="Monospace" font-size="14.00"> &#160;&#160;&#160;jmp &#160;&#160;&#160;&#160;&#160;&#160;&#160;4204</text>
</g>
<!-- _4204 -->
<g id="node8" class="node"><title>_4204</title>
<polygon fill="lightblue" stroke="lightblue" points="796,-180 538,-180 538,-88 796,-88 796,-180"/>
<polygon fill="lightblue" stroke="lightblue" points="546,-92 546,-176 788,-176 788,-92 546,-92"/>
<text text-anchor="start" x="550" y="-160.5" font-family="Georgia" font-size="15.00" fill="#00008b">loc_4204 :</text>
<text text-anchor="start" x="550" y="-139.8" font-family="Monospace" font-size="14.00"> &#160;&#160;&#160;mov &#160;&#160;&#160;&#160;&#160;&#160;&#160;&#160;R04, &#160;&#160;&#160;&#160;w[R09]</text>
<text text-anchor="start" x="550" y="-119.8" font-family="Monospace" font-size="14.00"> &#160;&#160;&#160;and &#160;&#160;&#160;&#160;&#160;&#160;&#160;&#160;R04, &#160;&#160;&#160;&#160;&#160;&#160;&#160;&#160;&#160;1</text>
<polygon fill="yellow" stroke="yellow" points="548,-94 548,-112 786,-112 786,-94 548,-94"/>
<text text-anchor="start" x="550" y="-99.8" font-family="Monospace" font-size="14.00" fill="red"> &#160;&#160;&#160;jz &#160;&#160;&#160;&#160;&#160;&#160;&#160;&#160;4210</text>
</g>
<!-- _4244&#45;&gt;_4204 -->
<g id="edge6" class="edge"><title>_4244&#45;&gt;_4204</title>
<path fill="none" stroke="blue" d="M571.769,-255.902C584.819,-239.334 602.51,-216.874 619.104,-195.807"/>
<polygon fill="blue" stroke="blue" points="624.607,-200.133 631.484,-180.09 613.609,-191.47 624.607,-200.133"/>
</g>
<!-- _420C -->
<g id="node9" class="node"><title>_420C</title>
<polygon fill="lightblue" stroke="lightblue" points="462,-52 204,-52 204,-0 462,-0 462,-52"/>
<polygon fill="lightblue" stroke="lightblue" points="212,-4 212,-48 454,-48 454,-4 212,-4"/>
<text text-anchor="start" x="216" y="-32.5" font-family="Georgia" font-size="15.00" fill="#00008b">loc_420C :</text>
<text text-anchor="start" x="216" y="-11.8" font-family="Monospace" font-size="14.00"> &#160;&#160;&#160;mov &#160;&#160;&#160;&#160;&#160;&#160;&#160;&#160;R01, &#160;&#160;&#160;&#160;&#160;&#160;FFFF</text>
</g>
<!-- _4204&#45;&gt;_420C -->
<g id="edge30" class="edge"><title>_4204&#45;&gt;_420C</title>
<path fill="none" stroke="red" d="M537.867,-92.0176C502.419,-80.7678 464.569,-68.7554 431.171,-58.1559"/>
<polygon fill="red" stroke="red" points="433.253,-51.4728 412.072,-52.0948 429.018,-64.8169 433.253,-51.4728"/>
</g>
<!-- _4210 -->
<g id="node11" class="node"><title>_4210</title>
<polygon fill="lightblue" stroke="lightblue" points="528,-1120 316,-1120 316,-1008 528,-1008 528,-1120"/>
<polygon fill="lightblue" stroke="lightblue" points="324,-1012 324,-1116 520,-1116 520,-1012 324,-1012"/>
<text text-anchor="start" x="328" y="-1100.5" font-family="Georgia" font-size="15.00" fill="#00008b">loc_4210 :</text>
<text text-anchor="start" x="328" y="-1079.8" font-family="Monospace" font-size="14.00"> &#160;&#160;&#160;mov &#160;&#160;&#160;&#160;&#160;&#160;&#160;&#160;R04, &#160;&#160;w[R09++]</text>
<text text-anchor="start" x="328" y="-1059.8" font-family="Monospace" font-size="14.00"> &#160;&#160;&#160;and &#160;&#160;&#160;&#160;&#160;&#160;&#160;&#160;R04, &#160;&#160;&#160;&#160;&#160;&#160;FFFE</text>
<text text-anchor="start" x="328" y="-1039.8" font-family="Monospace" font-size="14.00"> &#160;&#160;&#160;cmp &#160;&#160;&#160;&#160;&#160;&#160;&#160;&#160;R05, &#160;&#160;&#160;&#160;&#160;&#160;&#160;R04</text>
<polygon fill="yellow" stroke="yellow" points="326,-1014 326,-1032 518,-1032 518,-1014 326,-1014"/>
<text text-anchor="start" x="328" y="-1019.8" font-family="Monospace" font-size="14.00" fill="red"> &#160;&#160;&#160;jnz &#160;&#160;&#160;&#160;&#160;&#160;&#160;422E</text>
</g>
<!-- _4204&#45;&gt;_4210 -->
<g id="edge28" class="edge"><title>_4204&#45;&gt;_4210</title>
<path fill="none" stroke="green" d="M796.106,-144.608C971.1,-165.463 1262,-231.359 1262,-439 1262,-679 1262,-679 1262,-679 1262,-744.055 1284.51,-774.755 1242,-824 1151.33,-929.032 755.016,-1008.22 548.38,-1043.23"/>
<polygon fill="green" stroke="green" points="546.955,-1036.37 528.386,-1046.57 549.268,-1050.17 546.955,-1036.37"/>
</g>
<!-- _420C&#45;&gt;_4210 -->
<g id="edge8" class="edge"><title>_420C&#45;&gt;_4210</title>
<path fill="none" stroke="blue" d="M245.073,-52.0369C146.414,-86.1523 0,-157.574 0,-281 0,-679 0,-679 0,-679 0,-823.324 20.7857,-890.653 140,-972 186.535,-1003.75 244.86,-1024.99 296.373,-1038.9"/>
<polygon fill="blue" stroke="blue" points="294.631,-1045.68 315.744,-1043.88 298.116,-1032.12 294.631,-1045.68"/>
</g>
<!-- _4210&#45;&gt;_421A -->
<g id="edge18" class="edge"><title>_4210&#45;&gt;_421A</title>
<path fill="none" stroke="red" d="M372.096,-1007.8C363.079,-997.83 353.634,-987.383 344.494,-977.273"/>
<polygon fill="red" stroke="red" points="349.554,-972.433 330.949,-962.292 339.17,-981.822 349.554,-972.433"/>
</g>
<!-- _422E -->
<g id="node13" class="node"><title>_422E</title>
<polygon fill="lightblue" stroke="lightblue" points="661,-972 449,-972 449,-860 661,-860 661,-972"/>
<polygon fill="lightblue" stroke="lightblue" points="457,-864 457,-968 653,-968 653,-864 457,-864"/>
<text text-anchor="start" x="461" y="-952.5" font-family="Georgia" font-size="15.00" fill="#00008b">loc_422E :</text>
<text text-anchor="start" x="461" y="-931.8" font-family="Monospace" font-size="14.00"> &#160;&#160;&#160;addi &#160;&#160;&#160;&#160;&#160;&#160;&#160;R08, &#160;&#160;&#160;&#160;&#160;&#160;&#160;&#160;&#160;2</text>
<text text-anchor="start" x="461" y="-911.8" font-family="Monospace" font-size="14.00"> &#160;&#160;&#160;add &#160;&#160;&#160;&#160;&#160;&#160;&#160;&#160;R10, &#160;&#160;&#160;&#160;&#160;&#160;&#160;&#160;10</text>
<text text-anchor="start" x="461" y="-891.8" font-family="Monospace" font-size="14.00"> &#160;&#160;&#160;subi &#160;&#160;&#160;&#160;&#160;&#160;&#160;R07, &#160;&#160;&#160;&#160;&#160;&#160;&#160;&#160;&#160;1</text>
<polygon fill="yellow" stroke="yellow" points="459,-866 459,-884 651,-884 651,-866 459,-866"/>
<text text-anchor="start" x="461" y="-871.8" font-family="Monospace" font-size="14.00" fill="red"> &#160;&#160;&#160;jz &#160;&#160;&#160;&#160;&#160;&#160;&#160;&#160;4246</text>
</g>
<!-- _4210&#45;&gt;_422E -->
<g id="edge16" class="edge"><title>_4210&#45;&gt;_422E</title>
<path fill="none" stroke="green" d="M472.282,-1007.8C478.406,-1001.08 484.725,-994.144 491.014,-987.24"/>
<polygon fill="green" stroke="green" points="496.353,-991.773 504.647,-972.274 486.004,-982.345 496.353,-991.773"/>
</g>
<!-- _4246 -->
<g id="node15" class="node"><title>_4246</title>
<polygon fill="lightblue" stroke="lightblue" points="1233.25,-824 902.75,-824 902.75,-532 1233.25,-532 1233.25,-824"/>
<polygon fill="lightblue" stroke="lightblue" points="910.5,-536 910.5,-820 1225.5,-820 1225.5,-536 910.5,-536"/>
<text text-anchor="start" x="915" y="-804.5" font-family="Georgia" font-size="15.00" fill="#00008b">loc_4246 :</text>
<text text-anchor="start" x="915" y="-783.8" font-family="Monospace" font-size="14.00"> &#160;&#160;&#160;xor &#160;&#160;&#160;&#160;&#160;w[R11], &#160;&#160;&#160;&#160;w[R11]</text>
<text text-anchor="start" x="915" y="-763.8" font-family="Monospace" font-size="14.00"> &#160;&#160;&#160;mov &#160;&#160;&#160;&#160;&#160;&#160;&#160;&#160;R10, &#160;&#160;&#160;&#160;&#160;&#160;addrBuffIn</text>
<text text-anchor="start" x="915" y="-743.8" font-family="Monospace" font-size="14.00"> &#160;&#160;&#160;mov &#160;&#160;&#160;w[R10++], &#160;&#160;&#160;&#160;&#160;&#160;&#160;R03</text>
<text text-anchor="start" x="915" y="-723.8" font-family="Monospace" font-size="14.00"> &#160;&#160;&#160;mov &#160;&#160;&#160;w[R10++], &#160;&#160;&#160;&#160;&#160;&#160;&#160;R02</text>
<text text-anchor="start" x="915" y="-703.8" font-family="Monospace" font-size="14.00"> &#160;&#160;&#160;addi &#160;&#160;&#160;&#160;&#160;&#160;&#160;R10, &#160;&#160;&#160;&#160;&#160;&#160;&#160;&#160;&#160;2</text>
<text text-anchor="start" x="915" y="-683.8" font-family="Monospace" font-size="14.00"> &#160;&#160;&#160;mov &#160;&#160;&#160;w[R10++], &#160;&#160;&#160;&#160;&#160;&#160;&#160;R00</text>
<text text-anchor="start" x="915" y="-663.8" font-family="Monospace" font-size="14.00"> &#160;&#160;&#160;mov &#160;&#160;&#160;&#160;&#160;&#160;&#160;&#160;R10, &#160;&#160;&#160;&#160;&#160;&#160;V_R14</text>
<text text-anchor="start" x="915" y="-643.8" font-family="Monospace" font-size="14.00"> &#160;&#160;&#160;mov &#160;&#160;&#160;&#160;&#160;&#160;&#160;&#160;R11, &#160;&#160;&#160;&#160;&#160;&#160;CtxtCpy</text>
<text text-anchor="start" x="915" y="-623.8" font-family="Monospace" font-size="14.00"> &#160;&#160;&#160;mov &#160;&#160;&#160;w[R10++], &#160;&#160;w[R11++]</text>
<text text-anchor="start" x="915" y="-603.8" font-family="Monospace" font-size="14.00"> &#160;&#160;&#160;mov &#160;&#160;&#160;w[R10++], &#160;&#160;w[R11++]</text>
<text text-anchor="start" x="915" y="-583.8" font-family="Monospace" font-size="14.00"> &#160;&#160;&#160;mov &#160;&#160;&#160;w[R10++], &#160;&#160;w[R11++]</text>
<text text-anchor="start" x="915" y="-563.8" font-family="Monospace" font-size="14.00"> &#160;&#160;&#160;mov &#160;&#160;&#160;&#160;&#160;&#160;&#160;&#160;R15, &#160;&#160;&#160;w[addrRet]</text>
<polygon fill="lightseagreen" stroke="lightseagreen" points="913,-538 913,-556 1224,-556 1224,-538 913,-538"/>
<text text-anchor="start" x="915" y="-543.8" font-family="Monospace" font-size="14.00"> &#160;&#160;&#160;ret &#160;</text>
</g>
<!-- _422E&#45;&gt;_4246 -->
<g id="edge12" class="edge"><title>_422E&#45;&gt;_4246</title>
<path fill="none" stroke="green" d="M661.316,-898.495C725.153,-885.923 807.237,-865.008 884.697,-827.773"/>
<polygon fill="green" stroke="green" points="887.945,-833.976 902.703,-818.771 881.684,-821.454 887.945,-833.976"/>
</g>
<!-- _4238 -->
<g id="node17" class="node"><title>_4238</title>
<polygon fill="lightblue" stroke="lightblue" points="647.25,-714 366.75,-714 366.75,-642 647.25,-642 647.25,-714"/>
<polygon fill="lightblue" stroke="lightblue" points="374.5,-646 374.5,-710 639.5,-710 639.5,-646 374.5,-646"/>
<text text-anchor="start" x="379" y="-694.5" font-family="Georgia" font-size="15.00" fill="#00008b">loc_4238 :</text>
<text text-anchor="start" x="379" y="-673.8" font-family="Monospace" font-size="14.00"> &#160;&#160;&#160;cmp &#160;&#160;&#160;&#160;&#160;w[R08], &#160;&#160;&#160;&#160;&#160;&#160;&#160;R01</text>
<polygon fill="yellow" stroke="yellow" points="377,-648 377,-666 638,-666 638,-648 377,-648"/>
<text text-anchor="start" x="379" y="-653.8" font-family="Monospace" font-size="14.00" fill="red"> &#160;&#160;&#160;jb &#160;&#160;&#160;&#160;&#160;&#160;&#160;&#160;4244</text>
</g>
<!-- _422E&#45;&gt;_4238 -->
<g id="edge14" class="edge"><title>_422E&#45;&gt;_4238</title>
<path fill="none" stroke="red" d="M543.807,-859.966C536.093,-822.042 525.884,-771.846 518.175,-733.942"/>
<polygon fill="red" stroke="red" points="525.026,-732.508 514.181,-714.305 511.307,-735.299 525.026,-732.508"/>
</g>
<!-- _4238&#45;&gt;_4244 -->
<g id="edge24" class="edge"><title>_4238&#45;&gt;_4244</title>
<path fill="none" stroke="green" d="M530.164,-641.72C551.803,-606.493 582.576,-549.969 595,-496 606.167,-447.491 604.95,-432.773 595,-384 590.987,-364.328 582.994,-343.742 574.977,-326.326"/>
<polygon fill="green" stroke="green" points="581.201,-323.119 566.126,-308.227 568.625,-329.269 581.201,-323.119"/>
</g>
<!-- _423C -->
<g id="node26" class="node"><title>_423C</title>
<polygon fill="lightblue" stroke="lightblue" points="586,-496 328,-496 328,-384 586,-384 586,-496"/>
<polygon fill="lightblue" stroke="lightblue" points="336,-388 336,-492 578,-492 578,-388 336,-388"/>
<text text-anchor="start" x="340" y="-476.5" font-family="Georgia" font-size="15.00" fill="#00008b">loc_423C :</text>
<text text-anchor="start" x="340" y="-455.8" font-family="Monospace" font-size="14.00"> &#160;&#160;&#160;mov &#160;&#160;&#160;&#160;&#160;&#160;&#160;&#160;R01, &#160;&#160;&#160;&#160;w[R08]</text>
<text text-anchor="start" x="340" y="-435.8" font-family="Monospace" font-size="14.00"> &#160;&#160;&#160;mov &#160;&#160;&#160;&#160;&#160;&#160;&#160;&#160;R11, &#160;&#160;&#160;&#160;&#160;&#160;&#160;R08</text>
<text text-anchor="start" x="340" y="-415.8" font-family="Monospace" font-size="14.00"> &#160;&#160;&#160;mov &#160;&#160;&#160;&#160;&#160;&#160;&#160;&#160;R02, &#160;&#160;&#160;&#160;&#160;&#160;&#160;R09</text>
<text text-anchor="start" x="340" y="-395.8" font-family="Monospace" font-size="14.00"> &#160;&#160;&#160;mov &#160;&#160;&#160;&#160;&#160;&#160;&#160;&#160;R03, &#160;&#160;&#160;&#160;&#160;&#160;&#160;R10</text>
</g>
<!-- _4238&#45;&gt;_423C -->
<g id="edge26" class="edge"><title>_4238&#45;&gt;_423C</title>
<path fill="none" stroke="red" d="M499.568,-641.923C492.539,-608.744 481.762,-557.879 472.811,-515.63"/>
<polygon fill="red" stroke="red" points="479.647,-514.118 468.653,-496.003 465.951,-517.02 479.647,-514.118"/>
</g>
<!-- _41F4 -->
<g id="node20" class="node"><title>_41F4</title>
<polygon fill="lightblue" stroke="lightblue" points="923.25,-486 642.75,-486 642.75,-394 923.25,-394 923.25,-486"/>
<polygon fill="lightblue" stroke="lightblue" points="650.5,-398 650.5,-482 915.5,-482 915.5,-398 650.5,-398"/>
<text text-anchor="start" x="655" y="-466.5" font-family="Georgia" font-size="15.00" fill="#00008b">loc_41F4 :</text>
<text text-anchor="start" x="655" y="-445.8" font-family="Monospace" font-size="14.00"> &#160;&#160;&#160;addi &#160;&#160;w[R08++], &#160;&#160;&#160;&#160;&#160;&#160;&#160;&#160;&#160;1</text>
<text text-anchor="start" x="655" y="-425.8" font-family="Monospace" font-size="14.00"> &#160;&#160;&#160;subi &#160;&#160;&#160;&#160;&#160;&#160;&#160;R07, &#160;&#160;&#160;&#160;&#160;&#160;&#160;&#160;&#160;1</text>
<polygon fill="yellow" stroke="yellow" points="653,-400 653,-418 914,-418 914,-400 653,-400"/>
<text text-anchor="start" x="655" y="-405.8" font-family="Monospace" font-size="14.00" fill="red"> &#160;&#160;&#160;jnz &#160;&#160;&#160;&#160;&#160;&#160;&#160;41F4</text>
</g>
<!-- _41F4&#45;&gt;_41F4 -->
<g id="edge20" class="edge"><title>_41F4&#45;&gt;_41F4</title>
<path fill="none" stroke="green" d="M923.467,-462.334C934.313,-457.397 941,-449.952 941,-440 941,-436.579 940.21,-433.454 938.732,-430.626"/>
<polygon fill="green" stroke="green" points="943.244,-425.274 923.467,-417.666 934.183,-435.946 943.244,-425.274"/>
</g>
<!-- _41FA -->
<g id="node23" class="node"><title>_41FA</title>
<polygon fill="lightblue" stroke="lightblue" points="912,-348 654,-348 654,-216 912,-216 912,-348"/>
<polygon fill="lightblue" stroke="lightblue" points="662,-220 662,-344 904,-344 904,-220 662,-220"/>
<text text-anchor="start" x="666" y="-328.5" font-family="Georgia" font-size="15.00" fill="#00008b">loc_41FA :</text>
<text text-anchor="start" x="666" y="-307.8" font-family="Monospace" font-size="14.00"> &#160;&#160;&#160;popad</text>
<text text-anchor="start" x="666" y="-287.8" font-family="Monospace" font-size="14.00"> &#160;&#160;&#160;mov &#160;&#160;&#160;&#160;&#160;&#160;&#160;&#160;R11, &#160;&#160;&#160;&#160;&#160;&#160;&#160;R08</text>
<text text-anchor="start" x="666" y="-267.8" font-family="Monospace" font-size="14.00"> &#160;&#160;&#160;mov &#160;&#160;&#160;&#160;&#160;&#160;&#160;&#160;R01, &#160;&#160;&#160;&#160;w[R08]</text>
<text text-anchor="start" x="666" y="-247.8" font-family="Monospace" font-size="14.00"> &#160;&#160;&#160;mov &#160;&#160;&#160;&#160;&#160;&#160;&#160;&#160;R02, &#160;&#160;&#160;&#160;&#160;&#160;&#160;R09</text>
<text text-anchor="start" x="666" y="-227.8" font-family="Monospace" font-size="14.00"> &#160;&#160;&#160;mov &#160;&#160;&#160;&#160;&#160;&#160;&#160;&#160;R03, &#160;&#160;&#160;&#160;&#160;&#160;&#160;R10</text>
</g>
<!-- _41F4&#45;&gt;_41FA -->
<g id="edge22" class="edge"><title>_41F4&#45;&gt;_41FA</title>
<path fill="none" stroke="red" d="M783,-393.878C783,-385.718 783,-376.971 783,-368.1"/>
<polygon fill="red" stroke="red" points="790,-368.037 783,-348.037 776,-368.037 790,-368.037"/>
</g>
<!-- _41FA&#45;&gt;_4204 -->
<g id="edge36" class="edge"><title>_41FA&#45;&gt;_4204</title>
<path fill="none" stroke="blue" d="M731.107,-215.687C725.895,-209.126 720.616,-202.482 715.441,-195.969"/>
<polygon fill="blue" stroke="blue" points="720.814,-191.478 702.891,-180.174 709.852,-200.187 720.814,-191.478"/>
</g>
<!-- _423C&#45;&gt;_4244 -->
<g id="edge34" class="edge"><title>_423C&#45;&gt;_4244</title>
<path fill="none" stroke="blue" d="M490.761,-383.561C502.398,-364.452 515.239,-343.366 526.144,-325.459"/>
<polygon fill="blue" stroke="blue" points="532.252,-328.887 536.676,-308.164 520.294,-321.605 532.252,-328.887"/>
</g>
<!-- _41DA -->
<g id="node29" class="node"><title>_41DA</title>
<polygon fill="lightblue" stroke="lightblue" points="884,-774 666,-774 666,-582 884,-582 884,-774"/>
<polygon fill="lightblue" stroke="lightblue" points="674,-586 674,-770 876,-770 876,-586 674,-586"/>
<text text-anchor="start" x="678" y="-754.5" font-family="Georgia" font-size="15.00" fill="#00008b">getCacheAddress (41DA) :</text>
<text text-anchor="start" x="678" y="-733.8" font-family="Monospace" font-size="14.00"> &#160;&#160;&#160;mov &#160;&#160;&#160;&#160;&#160;&#160;&#160;&#160;R05, &#160;&#160;&#160;&#160;&#160;&#160;&#160;R00</text>
<text text-anchor="start" x="678" y="-713.8" font-family="Monospace" font-size="14.00"> &#160;&#160;&#160;and &#160;&#160;&#160;&#160;&#160;&#160;&#160;&#160;R05, &#160;&#160;&#160;&#160;&#160;&#160;FFF0</text>
<text text-anchor="start" x="678" y="-693.8" font-family="Monospace" font-size="14.00"> &#160;&#160;&#160;mov &#160;&#160;&#160;&#160;&#160;&#160;&#160;&#160;R06, &#160;&#160;&#160;&#160;&#160;&#160;&#160;R01</text>
<text text-anchor="start" x="678" y="-673.8" font-family="Monospace" font-size="14.00"> &#160;&#160;&#160;mov &#160;&#160;&#160;&#160;&#160;&#160;&#160;&#160;R07, &#160;&#160;&#160;&#160;&#160;&#160;&#160;&#160;&#160;5</text>
<text text-anchor="start" x="678" y="-653.8" font-family="Monospace" font-size="14.00"> &#160;&#160;&#160;mov &#160;&#160;&#160;&#160;&#160;&#160;&#160;&#160;R08, &#160;&#160;&#160;&#160;&#160;&#160;405E</text>
<text text-anchor="start" x="678" y="-633.8" font-family="Monospace" font-size="14.00"> &#160;&#160;&#160;mov &#160;&#160;&#160;&#160;&#160;&#160;&#160;&#160;R09, &#160;&#160;&#160;&#160;&#160;&#160;index</text>
<text text-anchor="start" x="678" y="-613.8" font-family="Monospace" font-size="14.00"> &#160;&#160;&#160;mov &#160;&#160;&#160;&#160;&#160;&#160;&#160;&#160;R10, &#160;&#160;&#160;&#160;&#160;&#160;4000</text>
<text text-anchor="start" x="678" y="-593.8" font-family="Monospace" font-size="14.00"> &#160;&#160;&#160;pushad</text>
</g>
<!-- _41DA&#45;&gt;_41F4 -->
<g id="edge32" class="edge"><title>_41DA&#45;&gt;_41F4</title>
<path fill="none" stroke="blue" d="M778.231,-581.69C779.087,-556.42 779.993,-529.708 780.782,-506.428"/>
<polygon fill="blue" stroke="blue" points="787.788,-506.378 781.469,-486.152 773.796,-505.903 787.788,-506.378"/>
</g>
</g>
</svg>
