<?xml version="1.0" encoding="UTF-8" standalone="no"?>
<!DOCTYPE svg PUBLIC "-//W3C//DTD SVG 1.1//EN"
 "http://www.w3.org/Graphics/SVG/1.1/DTD/svg11.dtd">
<!-- Generated by graphviz version 2.28.0 (20110507.0327)
 -->
<!-- Title: G_4268 Pages: 1 -->
<svg width="624pt" height="2008pt"
 viewBox="0.00 0.00 624.00 2008.00" xmlns="http://www.w3.org/2000/svg" xmlns:xlink="http://www.w3.org/1999/xlink">
<g id="graph1" class="graph" transform="scale(1 1) rotate(0) translate(4 2004)">
<title>G_4268</title>
<polygon fill="white" stroke="white" points="-4,5 -4,-2004 621,-2004 621,5 -4,5"/>
<!-- _4282 -->
<g id="node1" class="node"><title>_4282</title>
<polygon fill="lightblue" stroke="lightblue" points="280.25,-1444 -0.25,-1444 -0.25,-1172 280.25,-1172 280.25,-1444"/>
<polygon fill="lightblue" stroke="lightblue" points="7.5,-1176 7.5,-1440 272.5,-1440 272.5,-1176 7.5,-1176"/>
<text text-anchor="start" x="12" y="-1424.5" font-family="Georgia" font-size="15.00" fill="#00008b">loc_4282 :</text>
<text text-anchor="start" x="12" y="-1403.8" font-family="Monospace" font-size="14.00"> &#160;&#160;&#160;mov &#160;&#160;&#160;&#160;&#160;&#160;&#160;&#160;R01, &#160;&#160;&#160;&#160;&#160;&#160;&#160;R11</text>
<text text-anchor="start" x="12" y="-1383.8" font-family="Monospace" font-size="14.00"> &#160;&#160;&#160;mov &#160;&#160;&#160;&#160;&#160;&#160;&#160;&#160;R00, &#160;&#160;&#160;w[PC]</text>
<polygon fill="deepskyblue" stroke="deepskyblue" points="10,-1358 10,-1376 271,-1376 271,-1358 10,-1358"/>
<text text-anchor="start" x="12" y="-1363.8" font-family="Monospace" font-size="14.00"> &#160;&#160;&#160;call &#160;&#160;&#160;&#160;&#160;&#160;getInputByte</text>
<text text-anchor="start" x="12" y="-1343.8" font-family="Monospace" font-size="14.00"> &#160;&#160;&#160;mov &#160;&#160;&#160;&#160;&#160;&#160;&#160;&#160;R01, &#160;&#160;&#160;&#160;&#160;&#160;&#160;R05</text>
<text text-anchor="start" x="12" y="-1323.8" font-family="Monospace" font-size="14.00"> &#160;&#160;&#160;sub &#160;&#160;&#160;&#160;&#160;&#160;&#160;&#160;R01, &#160;&#160;&#160;&#160;&#160;&#160;&#160;R10</text>
<polygon fill="deepskyblue" stroke="deepskyblue" points="10,-1298 10,-1316 271,-1316 271,-1298 10,-1298"/>
<text text-anchor="start" x="12" y="-1303.8" font-family="Monospace" font-size="14.00"> &#160;&#160;&#160;call &#160;&#160;&#160;&#160;&#160;&#160;shr R00, R01</text>
<text text-anchor="start" x="12" y="-1283.8" font-family="Monospace" font-size="14.00"> &#160;&#160;&#160;mov &#160;&#160;&#160;&#160;&#160;&#160;&#160;&#160;R13, &#160;&#160;&#160;&#160;&#160;&#160;&#160;R00</text>
<text text-anchor="start" x="12" y="-1263.8" font-family="Monospace" font-size="14.00"> &#160;&#160;&#160;mov &#160;&#160;&#160;&#160;&#160;&#160;&#160;&#160;R01, &#160;&#160;&#160;&#160;&#160;&#160;&#160;R10</text>
<text text-anchor="start" x="12" y="-1243.8" font-family="Monospace" font-size="14.00"> &#160;&#160;&#160;mov &#160;&#160;&#160;&#160;&#160;&#160;&#160;&#160;R00, &#160;&#160;&#160;&#160;&#160;&#160;FFFF</text>
<polygon fill="deepskyblue" stroke="deepskyblue" points="10,-1218 10,-1236 271,-1236 271,-1218 10,-1218"/>
<text text-anchor="start" x="12" y="-1223.8" font-family="Monospace" font-size="14.00"> &#160;&#160;&#160;call &#160;&#160;&#160;&#160;&#160;&#160;shl R00, R01</text>
<text text-anchor="start" x="12" y="-1203.8" font-family="Monospace" font-size="14.00"> &#160;&#160;&#160;not &#160;&#160;&#160;&#160;&#160;&#160;&#160;&#160;R00</text>
<text text-anchor="start" x="12" y="-1183.8" font-family="Monospace" font-size="14.00"> &#160;&#160;&#160;and &#160;&#160;&#160;&#160;&#160;&#160;&#160;&#160;R00, &#160;&#160;&#160;&#160;&#160;&#160;&#160;R13</text>
</g>
<!-- _42A4 -->
<g id="node3" class="node"><title>_42A4</title>
<polygon fill="lightblue" stroke="lightblue" points="374,-272 76,-272 76,-0 374,-0 374,-272"/>
<polygon fill="lightblue" stroke="lightblue" points="84,-4 84,-268 366,-268 366,-4 84,-4"/>
<text text-anchor="start" x="88" y="-252.5" font-family="Georgia" font-size="15.00" fill="#00008b">loc_42A4 :</text>
<text text-anchor="start" x="88" y="-231.8" font-family="Monospace" font-size="14.00"> &#160;&#160;&#160;pop &#160;&#160;&#160;&#160;&#160;&#160;&#160;&#160;R10</text>
<text text-anchor="start" x="88" y="-211.8" font-family="Monospace" font-size="14.00"> &#160;&#160;&#160;mov &#160;&#160;&#160;&#160;&#160;&#160;&#160;&#160;R04, &#160;&#160;&#160;w[PC.low]</text>
<text text-anchor="start" x="88" y="-191.8" font-family="Monospace" font-size="14.00"> &#160;&#160;&#160;add &#160;&#160;&#160;&#160;&#160;&#160;&#160;&#160;R04, &#160;&#160;&#160;&#160;&#160;&#160;&#160;R10</text>
<text text-anchor="start" x="88" y="-171.8" font-family="Monospace" font-size="14.00"> &#160;&#160;&#160;mov &#160;&#160;&#160;&#160;&#160;&#160;&#160;&#160;R05, &#160;&#160;&#160;&#160;&#160;&#160;&#160;R04</text>
<text text-anchor="start" x="88" y="-151.8" font-family="Monospace" font-size="14.00"> &#160;&#160;&#160;shr &#160;&#160;&#160;&#160;&#160;&#160;&#160;&#160;R05, &#160;&#160;&#160;&#160;&#160;&#160;&#160;&#160;&#160;3</text>
<text text-anchor="start" x="88" y="-131.8" font-family="Monospace" font-size="14.00"> &#160;&#160;&#160;and &#160;&#160;&#160;&#160;&#160;&#160;&#160;&#160;R05, &#160;&#160;&#160;&#160;&#160;&#160;1FFF</text>
<text text-anchor="start" x="88" y="-111.8" font-family="Monospace" font-size="14.00"> &#160;&#160;&#160;add &#160;&#160;&#160;&#160;w[PC], &#160;&#160;&#160;&#160;&#160;&#160;&#160;R05</text>
<text text-anchor="start" x="88" y="-91.8" font-family="Monospace" font-size="14.00"> &#160;&#160;&#160;and &#160;&#160;&#160;&#160;&#160;&#160;&#160;&#160;R04, &#160;&#160;&#160;&#160;&#160;&#160;&#160;&#160;&#160;7</text>
<text text-anchor="start" x="88" y="-71.8" font-family="Monospace" font-size="14.00"> &#160;&#160;&#160;mov &#160;&#160;&#160;&#160;w[PC.low], &#160;&#160;&#160;&#160;&#160;&#160;&#160;R04</text>
<text text-anchor="start" x="88" y="-51.8" font-family="Monospace" font-size="14.00"> &#160;&#160;&#160;mov &#160;&#160;w[R15+1C], &#160;&#160;&#160;&#160;&#160;&#160;&#160;R00</text>
<text text-anchor="start" x="88" y="-31.8" font-family="Monospace" font-size="14.00"> &#160;&#160;&#160;popad</text>
<polygon fill="lightseagreen" stroke="lightseagreen" points="86,-6 86,-24 364,-24 364,-6 86,-6"/>
<text text-anchor="start" x="88" y="-11.8" font-family="Monospace" font-size="14.00"> &#160;&#160;&#160;ret &#160;</text>
</g>
<!-- _4282&#45;&gt;_42A4 -->
<g id="edge2" class="edge"><title>_4282&#45;&gt;_42A4</title>
<path fill="none" stroke="blue" d="M130.557,-1171.96C119.963,-978.713 110.783,-612.949 166,-308 166.963,-302.679 168.064,-297.3 169.28,-291.895"/>
<polygon fill="blue" stroke="blue" points="176.127,-293.365 174.14,-272.269 162.537,-290 176.127,-293.365"/>
</g>
<!-- _4268 -->
<g id="node4" class="node"><title>_4268</title>
<polygon fill="lightblue" stroke="lightblue" points="451,-2000 153,-2000 153,-1768 451,-1768 451,-2000"/>
<polygon fill="lightblue" stroke="lightblue" points="161,-1772 161,-1996 443,-1996 443,-1772 161,-1772"/>
<text text-anchor="start" x="165" y="-1980.5" font-family="Georgia" font-size="15.00" fill="#00008b">getBits (4268) :</text>
<text text-anchor="start" x="165" y="-1959.8" font-family="Monospace" font-size="14.00"> &#160;&#160;&#160;pushad</text>
<text text-anchor="start" x="165" y="-1939.8" font-family="Monospace" font-size="14.00"> &#160;&#160;&#160;push &#160;&#160;&#160;&#160;&#160;&#160;&#160;R00</text>
<text text-anchor="start" x="165" y="-1919.8" font-family="Monospace" font-size="14.00"> &#160;&#160;&#160;mov &#160;&#160;&#160;&#160;&#160;&#160;&#160;&#160;R10, &#160;&#160;&#160;&#160;&#160;&#160;&#160;R00</text>
<text text-anchor="start" x="165" y="-1899.8" font-family="Monospace" font-size="14.00"> &#160;&#160;&#160;xor &#160;&#160;&#160;&#160;&#160;&#160;&#160;&#160;R11, &#160;&#160;&#160;&#160;&#160;&#160;&#160;R11</text>
<text text-anchor="start" x="165" y="-1879.8" font-family="Monospace" font-size="14.00"> &#160;&#160;&#160;mov &#160;&#160;&#160;&#160;&#160;&#160;&#160;&#160;R14, &#160;&#160;&#160;&#160;&#160;&#160;&#160;&#160;&#160;1</text>
<text text-anchor="start" x="165" y="-1859.8" font-family="Monospace" font-size="14.00"> &#160;&#160;&#160;mov &#160;&#160;&#160;&#160;&#160;&#160;&#160;&#160;R13, &#160;&#160;&#160;&#160;&#160;&#160;&#160;&#160;&#160;8</text>
<text text-anchor="start" x="165" y="-1839.8" font-family="Monospace" font-size="14.00"> &#160;&#160;&#160;mov &#160;&#160;&#160;&#160;&#160;&#160;&#160;&#160;R05, &#160;&#160;&#160;&#160;&#160;&#160;&#160;R13</text>
<text text-anchor="start" x="165" y="-1819.8" font-family="Monospace" font-size="14.00"> &#160;&#160;&#160;sub &#160;&#160;&#160;&#160;&#160;&#160;&#160;&#160;R05, &#160;&#160;&#160;w[PC.low]</text>
<text text-anchor="start" x="165" y="-1799.8" font-family="Monospace" font-size="14.00"> &#160;&#160;&#160;cmp &#160;&#160;&#160;&#160;&#160;&#160;&#160;&#160;R10, &#160;&#160;&#160;&#160;&#160;&#160;&#160;R05</text>
<polygon fill="yellow" stroke="yellow" points="163,-1774 163,-1792 441,-1792 441,-1774 163,-1774"/>
<text text-anchor="start" x="165" y="-1779.8" font-family="Monospace" font-size="14.00" fill="red"> &#160;&#160;&#160;ja &#160;&#160;&#160;&#160;&#160;&#160;&#160;&#160;42C8</text>
</g>
<!-- _4268&#45;&gt;_4282 -->
<g id="edge6" class="edge"><title>_4268&#45;&gt;_4282</title>
<path fill="none" stroke="red" d="M269.509,-1767.88C244.838,-1680.46 210.662,-1559.37 183.613,-1463.53"/>
<polygon fill="red" stroke="red" points="190.298,-1461.45 178.129,-1444.1 176.824,-1465.25 190.298,-1461.45"/>
</g>
<!-- _42C8 -->
<g id="node6" class="node"><title>_42C8</title>
<polygon fill="lightblue" stroke="lightblue" points="503,-1732 279,-1732 279,-1480 503,-1480 503,-1732"/>
<polygon fill="lightblue" stroke="lightblue" points="287,-1484 287,-1728 495,-1728 495,-1484 287,-1484"/>
<text text-anchor="start" x="291" y="-1712.5" font-family="Georgia" font-size="15.00" fill="#00008b">loc_42C8 :</text>
<text text-anchor="start" x="291" y="-1691.8" font-family="Monospace" font-size="14.00"> &#160;&#160;&#160;mov &#160;&#160;&#160;&#160;&#160;&#160;&#160;&#160;R01, &#160;&#160;&#160;&#160;&#160;&#160;&#160;R11</text>
<text text-anchor="start" x="291" y="-1671.8" font-family="Monospace" font-size="14.00"> &#160;&#160;&#160;mov &#160;&#160;&#160;&#160;&#160;&#160;&#160;&#160;R00, &#160;&#160;&#160;w[PC]</text>
<polygon fill="deepskyblue" stroke="deepskyblue" points="289,-1646 289,-1664 493,-1664 493,-1646 289,-1646"/>
<text text-anchor="start" x="291" y="-1651.8" font-family="Monospace" font-size="14.00"> &#160;&#160;&#160;call &#160;&#160;&#160;&#160;&#160;&#160;getInputByte</text>
<text text-anchor="start" x="291" y="-1631.8" font-family="Monospace" font-size="14.00"> &#160;&#160;&#160;mov &#160;&#160;&#160;&#160;&#160;&#160;&#160;&#160;R12, &#160;&#160;&#160;&#160;&#160;&#160;&#160;R00</text>
<text text-anchor="start" x="291" y="-1611.8" font-family="Monospace" font-size="14.00"> &#160;&#160;&#160;sub &#160;&#160;&#160;&#160;&#160;&#160;&#160;&#160;R13, &#160;&#160;&#160;w[PC.low]</text>
<text text-anchor="start" x="291" y="-1591.8" font-family="Monospace" font-size="14.00"> &#160;&#160;&#160;mov &#160;&#160;&#160;&#160;&#160;&#160;&#160;&#160;R01, &#160;&#160;&#160;&#160;&#160;&#160;&#160;R13</text>
<text text-anchor="start" x="291" y="-1571.8" font-family="Monospace" font-size="14.00"> &#160;&#160;&#160;mov &#160;&#160;&#160;&#160;&#160;&#160;&#160;&#160;R00, &#160;&#160;&#160;&#160;&#160;&#160;FFFF</text>
<polygon fill="deepskyblue" stroke="deepskyblue" points="289,-1546 289,-1564 493,-1564 493,-1546 289,-1546"/>
<text text-anchor="start" x="291" y="-1551.8" font-family="Monospace" font-size="14.00"> &#160;&#160;&#160;call &#160;&#160;&#160;&#160;&#160;&#160;shl R00, R01</text>
<text text-anchor="start" x="291" y="-1531.8" font-family="Monospace" font-size="14.00"> &#160;&#160;&#160;not &#160;&#160;&#160;&#160;&#160;&#160;&#160;&#160;R00</text>
<text text-anchor="start" x="291" y="-1511.8" font-family="Monospace" font-size="14.00"> &#160;&#160;&#160;and &#160;&#160;&#160;&#160;&#160;&#160;&#160;&#160;R12, &#160;&#160;&#160;&#160;&#160;&#160;&#160;R00</text>
<text text-anchor="start" x="291" y="-1491.8" font-family="Monospace" font-size="14.00"> &#160;&#160;&#160;sub &#160;&#160;&#160;&#160;&#160;&#160;&#160;&#160;R10, &#160;&#160;&#160;&#160;&#160;&#160;&#160;R13</text>
</g>
<!-- _4268&#45;&gt;_42C8 -->
<g id="edge4" class="edge"><title>_4268&#45;&gt;_42C8</title>
<path fill="none" stroke="green" d="M339.1,-1767.95C340.888,-1762.4 342.693,-1756.81 344.503,-1751.19"/>
<polygon fill="green" stroke="green" points="351.178,-1753.3 350.654,-1732.12 337.854,-1749 351.178,-1753.3"/>
</g>
<!-- _42E8 -->
<g id="node8" class="node"><title>_42E8</title>
<polygon fill="lightblue" stroke="lightblue" points="557,-1344 299,-1344 299,-1272 557,-1272 557,-1344"/>
<polygon fill="lightblue" stroke="lightblue" points="307,-1276 307,-1340 549,-1340 549,-1276 307,-1276"/>
<text text-anchor="start" x="311" y="-1324.5" font-family="Georgia" font-size="15.00" fill="#00008b">loc_42E8 :</text>
<text text-anchor="start" x="311" y="-1303.8" font-family="Monospace" font-size="14.00"> &#160;&#160;&#160;cmp &#160;&#160;&#160;&#160;&#160;&#160;&#160;&#160;R10, &#160;&#160;&#160;&#160;&#160;&#160;&#160;&#160;&#160;7</text>
<polygon fill="yellow" stroke="yellow" points="309,-1278 309,-1296 547,-1296 547,-1278 309,-1278"/>
<text text-anchor="start" x="311" y="-1283.8" font-family="Monospace" font-size="14.00" fill="red"> &#160;&#160;&#160;jbe &#160;&#160;&#160;&#160;&#160;&#160;&#160;4310</text>
</g>
<!-- _42C8&#45;&gt;_42E8 -->
<g id="edge18" class="edge"><title>_42C8&#45;&gt;_42E8</title>
<path fill="none" stroke="blue" d="M406.638,-1479.9C411.702,-1439.39 417.059,-1396.53 421.142,-1363.87"/>
<polygon fill="blue" stroke="blue" points="428.09,-1364.71 423.625,-1344 414.198,-1362.98 428.09,-1364.71"/>
</g>
<!-- _4310 -->
<g id="node10" class="node"><title>_4310</title>
<polygon fill="lightblue" stroke="lightblue" points="433,-720 175,-720 175,-308 433,-308 433,-720"/>
<polygon fill="lightblue" stroke="lightblue" points="183,-312 183,-716 425,-716 425,-312 183,-312"/>
<text text-anchor="start" x="187" y="-700.5" font-family="Georgia" font-size="15.00" fill="#00008b">loc_4310 :</text>
<text text-anchor="start" x="187" y="-679.8" font-family="Monospace" font-size="14.00"> &#160;&#160;&#160;mov &#160;&#160;&#160;&#160;&#160;&#160;&#160;&#160;R01, &#160;&#160;&#160;&#160;&#160;&#160;&#160;R10</text>
<text text-anchor="start" x="187" y="-659.8" font-family="Monospace" font-size="14.00"> &#160;&#160;&#160;mov &#160;&#160;&#160;&#160;&#160;&#160;&#160;&#160;R00, &#160;&#160;&#160;&#160;&#160;&#160;&#160;R12</text>
<polygon fill="deepskyblue" stroke="deepskyblue" points="185,-634 185,-652 423,-652 423,-634 185,-634"/>
<text text-anchor="start" x="187" y="-639.8" font-family="Monospace" font-size="14.00"> &#160;&#160;&#160;call &#160;&#160;&#160;&#160;&#160;&#160;shl R00, R01</text>
<text text-anchor="start" x="187" y="-619.8" font-family="Monospace" font-size="14.00"> &#160;&#160;&#160;mov &#160;&#160;&#160;&#160;&#160;&#160;&#160;&#160;R12, &#160;&#160;&#160;&#160;&#160;&#160;&#160;R00</text>
<text text-anchor="start" x="187" y="-599.8" font-family="Monospace" font-size="14.00"> &#160;&#160;&#160;mov &#160;&#160;&#160;&#160;&#160;&#160;&#160;&#160;R00, &#160;&#160;&#160;w[PC]</text>
<text text-anchor="start" x="187" y="-579.8" font-family="Monospace" font-size="14.00"> &#160;&#160;&#160;add &#160;&#160;&#160;&#160;&#160;&#160;&#160;&#160;R00, &#160;&#160;&#160;&#160;&#160;&#160;&#160;R14</text>
<text text-anchor="start" x="187" y="-559.8" font-family="Monospace" font-size="14.00"> &#160;&#160;&#160;xor &#160;&#160;&#160;&#160;&#160;&#160;&#160;&#160;R01, &#160;&#160;&#160;&#160;&#160;&#160;&#160;R01</text>
<polygon fill="deepskyblue" stroke="deepskyblue" points="185,-534 185,-552 423,-552 423,-534 185,-534"/>
<text text-anchor="start" x="187" y="-539.8" font-family="Monospace" font-size="14.00"> &#160;&#160;&#160;call &#160;&#160;&#160;&#160;&#160;&#160;getInputByte</text>
<text text-anchor="start" x="187" y="-519.8" font-family="Monospace" font-size="14.00"> &#160;&#160;&#160;mov &#160;&#160;&#160;&#160;&#160;&#160;&#160;&#160;R01, &#160;&#160;&#160;&#160;&#160;&#160;&#160;&#160;&#160;8</text>
<text text-anchor="start" x="187" y="-499.8" font-family="Monospace" font-size="14.00"> &#160;&#160;&#160;sub &#160;&#160;&#160;&#160;&#160;&#160;&#160;&#160;R01, &#160;&#160;&#160;&#160;&#160;&#160;&#160;R10</text>
<polygon fill="deepskyblue" stroke="deepskyblue" points="185,-474 185,-492 423,-492 423,-474 185,-474"/>
<text text-anchor="start" x="187" y="-479.8" font-family="Monospace" font-size="14.00"> &#160;&#160;&#160;call &#160;&#160;&#160;&#160;&#160;&#160;shr R00, R01</text>
<text text-anchor="start" x="187" y="-459.8" font-family="Monospace" font-size="14.00"> &#160;&#160;&#160;mov &#160;&#160;&#160;&#160;&#160;&#160;&#160;&#160;R13, &#160;&#160;&#160;&#160;&#160;&#160;&#160;R00</text>
<text text-anchor="start" x="187" y="-439.8" font-family="Monospace" font-size="14.00"> &#160;&#160;&#160;mov &#160;&#160;&#160;&#160;&#160;&#160;&#160;&#160;R01, &#160;&#160;&#160;&#160;&#160;&#160;&#160;R10</text>
<text text-anchor="start" x="187" y="-419.8" font-family="Monospace" font-size="14.00"> &#160;&#160;&#160;mov &#160;&#160;&#160;&#160;&#160;&#160;&#160;&#160;R00, &#160;&#160;&#160;&#160;&#160;&#160;FFFF</text>
<polygon fill="deepskyblue" stroke="deepskyblue" points="185,-394 185,-412 423,-412 423,-394 185,-394"/>
<text text-anchor="start" x="187" y="-399.8" font-family="Monospace" font-size="14.00"> &#160;&#160;&#160;call &#160;&#160;&#160;&#160;&#160;&#160;shl R00, R01</text>
<text text-anchor="start" x="187" y="-379.8" font-family="Monospace" font-size="14.00"> &#160;&#160;&#160;not &#160;&#160;&#160;&#160;&#160;&#160;&#160;&#160;R00</text>
<text text-anchor="start" x="187" y="-359.8" font-family="Monospace" font-size="14.00"> &#160;&#160;&#160;and &#160;&#160;&#160;&#160;&#160;&#160;&#160;&#160;R00, &#160;&#160;&#160;&#160;&#160;&#160;&#160;R13</text>
<text text-anchor="start" x="187" y="-339.8" font-family="Monospace" font-size="14.00"> &#160;&#160;&#160;or &#160;&#160;&#160;&#160;&#160;&#160;&#160;&#160;&#160;R00, &#160;&#160;&#160;&#160;&#160;&#160;&#160;R12</text>
<polygon fill="yellow" stroke="yellow" points="185,-314 185,-332 423,-332 423,-314 185,-314"/>
<text text-anchor="start" x="187" y="-319.8" font-family="Monospace" font-size="14.00"> &#160;&#160;&#160;jmp &#160;&#160;&#160;&#160;&#160;&#160;&#160;42A4</text>
</g>
<!-- _42E8&#45;&gt;_4310 -->
<g id="edge8" class="edge"><title>_42E8&#45;&gt;_4310</title>
<path fill="none" stroke="green" d="M386.718,-1271.75C353.049,-1240.12 307.921,-1190.4 288,-1136 242.028,-1010.45 244.334,-860.863 258.94,-739.966"/>
<polygon fill="green" stroke="green" points="265.893,-740.777 261.487,-720.05 252.006,-739.001 265.893,-740.777"/>
</g>
<!-- _42EE -->
<g id="node12" class="node"><title>_42EE</title>
<polygon fill="lightblue" stroke="lightblue" points="555,-1136 297,-1136 297,-984 555,-984 555,-1136"/>
<polygon fill="lightblue" stroke="lightblue" points="305,-988 305,-1132 547,-1132 547,-988 305,-988"/>
<text text-anchor="start" x="309" y="-1116.5" font-family="Georgia" font-size="15.00" fill="#00008b">loc_42EE :</text>
<text text-anchor="start" x="309" y="-1095.8" font-family="Monospace" font-size="14.00"> &#160;&#160;&#160;shl &#160;&#160;&#160;&#160;&#160;&#160;&#160;&#160;R12, &#160;&#160;&#160;&#160;&#160;&#160;&#160;&#160;&#160;8</text>
<text text-anchor="start" x="309" y="-1075.8" font-family="Monospace" font-size="14.00"> &#160;&#160;&#160;mov &#160;&#160;&#160;&#160;&#160;&#160;&#160;&#160;R05, &#160;&#160;&#160;w[PC]</text>
<text text-anchor="start" x="309" y="-1055.8" font-family="Monospace" font-size="14.00"> &#160;&#160;&#160;add &#160;&#160;&#160;&#160;&#160;&#160;&#160;&#160;R05, &#160;&#160;&#160;&#160;&#160;&#160;&#160;R14</text>
<text text-anchor="start" x="309" y="-1035.8" font-family="Monospace" font-size="14.00"> &#160;&#160;&#160;xor &#160;&#160;&#160;&#160;&#160;&#160;&#160;&#160;R01, &#160;&#160;&#160;&#160;&#160;&#160;&#160;R01</text>
<text text-anchor="start" x="309" y="-1015.8" font-family="Monospace" font-size="14.00"> &#160;&#160;&#160;clc &#160;</text>
<polygon fill="yellow" stroke="yellow" points="307,-990 307,-1008 545,-1008 545,-990 307,-990"/>
<text text-anchor="start" x="309" y="-995.8" font-family="Monospace" font-size="14.00" fill="red"> &#160;&#160;&#160;jb &#160;&#160;&#160;&#160;&#160;&#160;&#160;&#160;4310</text>
</g>
<!-- _42E8&#45;&gt;_42EE -->
<g id="edge10" class="edge"><title>_42E8&#45;&gt;_42EE</title>
<path fill="none" stroke="red" d="M427.713,-1271.75C427.469,-1241.64 427.105,-1196.87 426.775,-1156.33"/>
<polygon fill="red" stroke="red" points="433.774,-1156.18 426.612,-1136.24 419.775,-1156.3 433.774,-1156.18"/>
</g>
<!-- _4310&#45;&gt;_42A4 -->
<g id="edge16" class="edge"><title>_4310&#45;&gt;_42A4</title>
<path fill="none" stroke="blue" d="M260.917,-307.947C259.791,-302.59 258.67,-297.252 257.556,-291.95"/>
<polygon fill="blue" stroke="blue" points="264.399,-290.473 253.436,-272.34 250.698,-293.352 264.399,-290.473"/>
</g>
<!-- _42EE&#45;&gt;_4310 -->
<g id="edge12" class="edge"><title>_42EE&#45;&gt;_4310</title>
<path fill="none" stroke="green" d="M346.755,-983.946C338.477,-972.675 331.203,-960.584 326,-948 299.367,-883.582 289.124,-809.106 286.898,-740.28"/>
<polygon fill="green" stroke="green" points="293.892,-739.923 286.465,-720.078 279.895,-740.223 293.892,-739.923"/>
</g>
<!-- _42FC -->
<g id="node15" class="node"><title>_42FC</title>
<polygon fill="lightblue" stroke="lightblue" points="616.25,-948 335.75,-948 335.75,-756 616.25,-756 616.25,-948"/>
<polygon fill="lightblue" stroke="lightblue" points="343.5,-760 343.5,-944 608.5,-944 608.5,-760 343.5,-760"/>
<text text-anchor="start" x="348" y="-928.5" font-family="Georgia" font-size="15.00" fill="#00008b">loc_42FC :</text>
<text text-anchor="start" x="348" y="-907.8" font-family="Monospace" font-size="14.00"> &#160;&#160;&#160;mov &#160;&#160;&#160;&#160;&#160;&#160;&#160;&#160;R00, &#160;&#160;&#160;&#160;&#160;&#160;&#160;R05</text>
<polygon fill="deepskyblue" stroke="deepskyblue" points="346,-882 346,-900 607,-900 607,-882 346,-882"/>
<text text-anchor="start" x="348" y="-887.8" font-family="Monospace" font-size="14.00"> &#160;&#160;&#160;call &#160;&#160;&#160;&#160;&#160;&#160;getInputByte</text>
<text text-anchor="start" x="348" y="-867.8" font-family="Monospace" font-size="14.00"> &#160;&#160;&#160;or &#160;&#160;&#160;&#160;&#160;&#160;&#160;&#160;&#160;R12, &#160;&#160;&#160;&#160;&#160;&#160;&#160;R00</text>
<text text-anchor="start" x="348" y="-847.8" font-family="Monospace" font-size="14.00"> &#160;&#160;&#160;addi &#160;&#160;&#160;&#160;&#160;&#160;&#160;R14, &#160;&#160;&#160;&#160;&#160;&#160;&#160;&#160;&#160;1</text>
<text text-anchor="start" x="348" y="-827.8" font-family="Monospace" font-size="14.00"> &#160;&#160;&#160;add &#160;&#160;&#160;&#160;&#160;&#160;&#160;&#160;R10, &#160;&#160;&#160;&#160;&#160;&#160;FFF8</text>
<text text-anchor="start" x="348" y="-807.8" font-family="Monospace" font-size="14.00"> &#160;&#160;&#160;xor &#160;&#160;&#160;&#160;&#160;&#160;&#160;&#160;R00, &#160;&#160;&#160;&#160;&#160;&#160;&#160;R00</text>
<text text-anchor="start" x="348" y="-787.8" font-family="Monospace" font-size="14.00"> &#160;&#160;&#160;clc &#160;</text>
<polygon fill="yellow" stroke="yellow" points="346,-762 346,-780 607,-780 607,-762 346,-762"/>
<text text-anchor="start" x="348" y="-767.8" font-family="Monospace" font-size="14.00" fill="red"> &#160;&#160;&#160;jae &#160;&#160;&#160;&#160;&#160;&#160;&#160;42E8</text>
</g>
<!-- _42EE&#45;&gt;_42FC -->
<g id="edge14" class="edge"><title>_42EE&#45;&gt;_42FC</title>
<path fill="none" stroke="red" d="M444.263,-983.755C445.54,-978.495 446.842,-973.13 448.155,-967.722"/>
<polygon fill="red" stroke="red" points="455.013,-969.144 452.928,-948.057 441.408,-965.842 455.013,-969.144"/>
</g>
<!-- _42FC&#45;&gt;_42E8 -->
<g id="edge20" class="edge"><title>_42FC&#45;&gt;_42E8</title>
<path fill="none" stroke="green" d="M548.884,-948.118C555.019,-959.731 560.287,-971.813 564,-984 583.69,-1048.62 586.27,-1072.22 564,-1136 547.72,-1182.62 512.823,-1226.05 482.456,-1257.48"/>
<polygon fill="green" stroke="green" points="477.218,-1252.82 468.014,-1271.9 487.111,-1262.72 477.218,-1252.82"/>
</g>
<!-- _42FC&#45;&gt;_4310 -->
<g id="edge22" class="edge"><title>_42FC&#45;&gt;_4310</title>
<path fill="none" stroke="red" d="M427.172,-755.615C424.267,-749.94 421.292,-744.128 418.264,-738.213"/>
<polygon fill="red" stroke="red" points="424.385,-734.809 409.041,-720.195 411.923,-741.188 424.385,-734.809"/>
</g>
</g>
</svg>
