<?xml version="1.0" encoding="UTF-8" standalone="no"?>
<!DOCTYPE svg PUBLIC "-//W3C//DTD SVG 1.1//EN"
 "http://www.w3.org/Graphics/SVG/1.1/DTD/svg11.dtd">
<!-- Generated by graphviz version 2.28.0 (20110507.0327)
 -->
<!-- Title: G_4346 Pages: 1 -->
<svg width="304pt" height="356pt"
 viewBox="0.00 0.00 304.00 356.00" xmlns="http://www.w3.org/2000/svg" xmlns:xlink="http://www.w3.org/1999/xlink">
<g id="graph1" class="graph" transform="scale(1 1) rotate(0) translate(4 352)">
<title>G_4346</title>
<polygon fill="white" stroke="white" points="-4,5 -4,-352 301,-352 301,5 -4,5"/>
<!-- _4354 -->
<g id="node1" class="node"><title>_4354</title>
<polygon fill="lightblue" stroke="lightblue" points="277,-200 19,-200 19,-108 277,-108 277,-200"/>
<polygon fill="lightblue" stroke="lightblue" points="27,-112 27,-196 269,-196 269,-112 27,-112"/>
<text text-anchor="start" x="31" y="-180.5" font-family="Georgia" font-size="15.00" fill="#00008b">loc_4354 :</text>
<text text-anchor="start" x="31" y="-159.8" font-family="Monospace" font-size="14.00"> &#160;&#160;&#160;mov &#160;&#160;&#160;w[R10++], &#160;&#160;w[R11++]</text>
<text text-anchor="start" x="31" y="-139.8" font-family="Monospace" font-size="14.00"> &#160;&#160;&#160;subi &#160;&#160;&#160;&#160;&#160;&#160;&#160;R00, &#160;&#160;&#160;&#160;&#160;&#160;&#160;&#160;&#160;1</text>
<polygon fill="yellow" stroke="yellow" points="29,-114 29,-132 267,-132 267,-114 29,-114"/>
<text text-anchor="start" x="31" y="-119.8" font-family="Monospace" font-size="14.00" fill="red"> &#160;&#160;&#160;jnz &#160;&#160;&#160;&#160;&#160;&#160;&#160;4354</text>
</g>
<!-- _4354&#45;&gt;_4354 -->
<g id="edge2" class="edge"><title>_4354&#45;&gt;_4354</title>
<path fill="none" stroke="green" d="M277.011,-171.264C288.085,-167.59 295,-161.836 295,-154 295,-151.919 294.512,-149.984 293.588,-148.196"/>
<polygon fill="green" stroke="green" points="297.443,-142.352 277.011,-136.736 289.482,-153.868 297.443,-142.352"/>
</g>
<!-- _435A -->
<g id="node4" class="node"><title>_435A</title>
<polygon fill="lightblue" stroke="lightblue" points="194.25,-72 101.75,-72 101.75,-0 194.25,-0 194.25,-72"/>
<polygon fill="lightblue" stroke="lightblue" points="109.5,-4 109.5,-68 186.5,-68 186.5,-4 109.5,-4"/>
<text text-anchor="start" x="114" y="-52.5" font-family="Georgia" font-size="15.00" fill="#00008b">loc_435A :</text>
<text text-anchor="start" x="114" y="-31.8" font-family="Monospace" font-size="14.00"> &#160;&#160;&#160;popad</text>
<polygon fill="lightseagreen" stroke="lightseagreen" points="112,-6 112,-24 185,-24 185,-6 112,-6"/>
<text text-anchor="start" x="114" y="-11.8" font-family="Monospace" font-size="14.00"> &#160;&#160;&#160;ret &#160;</text>
</g>
<!-- _4354&#45;&gt;_435A -->
<g id="edge4" class="edge"><title>_4354&#45;&gt;_435A</title>
<path fill="none" stroke="red" d="M148,-107.819C148,-102.735 148,-97.5124 148,-92.3186"/>
<polygon fill="red" stroke="red" points="155,-92.1802 148,-72.1802 141,-92.1802 155,-92.1802"/>
</g>
<!-- _4346 -->
<g id="node5" class="node"><title>_4346</title>
<polygon fill="lightblue" stroke="lightblue" points="296,-348 0,-348 0,-236 296,-236 296,-348"/>
<polygon fill="lightblue" stroke="lightblue" points="8,-240 8,-344 288,-344 288,-240 8,-240"/>
<text text-anchor="start" x="12" y="-328.5" font-family="Georgia" font-size="15.00" fill="#00008b">memcpy(4126, 4134, 6*2) (4346) :</text>
<text text-anchor="start" x="12" y="-307.8" font-family="Monospace" font-size="14.00"> &#160;&#160;&#160;pushad</text>
<text text-anchor="start" x="12" y="-287.8" font-family="Monospace" font-size="14.00"> &#160;&#160;&#160;mov &#160;&#160;&#160;&#160;&#160;&#160;&#160;&#160;R11, &#160;&#160;&#160;&#160;&#160;&#160;OperandV</text>
<text text-anchor="start" x="12" y="-267.8" font-family="Monospace" font-size="14.00"> &#160;&#160;&#160;mov &#160;&#160;&#160;&#160;&#160;&#160;&#160;&#160;R10, &#160;&#160;&#160;&#160;&#160;&#160;OperandV2</text>
<text text-anchor="start" x="12" y="-247.8" font-family="Monospace" font-size="14.00"> &#160;&#160;&#160;mov &#160;&#160;&#160;&#160;&#160;&#160;&#160;&#160;R00, &#160;&#160;&#160;&#160;&#160;&#160;&#160;&#160;&#160;6</text>
</g>
<!-- _4346&#45;&gt;_4354 -->
<g id="edge6" class="edge"><title>_4346&#45;&gt;_4354</title>
<path fill="none" stroke="blue" d="M148,-235.684C148,-230.628 148,-225.475 148,-220.342"/>
<polygon fill="blue" stroke="blue" points="155,-220.286 148,-200.286 141,-220.286 155,-220.286"/>
</g>
</g>
</svg>
