<?xml version="1.0" encoding="UTF-8" standalone="no"?>
<!DOCTYPE svg PUBLIC "-//W3C//DTD SVG 1.1//EN"
 "http://www.w3.org/Graphics/SVG/1.1/DTD/svg11.dtd">
<!-- Generated by graphviz version 2.28.0 (20110507.0327)
 -->
<!-- Title: G_435E Pages: 1 -->
<svg width="1084pt" height="820pt"
 viewBox="0.00 0.00 1084.00 820.00" xmlns="http://www.w3.org/2000/svg" xmlns:xlink="http://www.w3.org/1999/xlink">
<g id="graph1" class="graph" transform="scale(1 1) rotate(0) translate(4 816)">
<title>G_435E</title>
<polygon fill="white" stroke="white" points="-4,5 -4,-816 1081,-816 1081,5 -4,5"/>
<!-- _4382 -->
<g id="node1" class="node"><title>_4382</title>
<polygon fill="lightblue" stroke="lightblue" points="675.25,-160 344.75,-160 344.75,-88 675.25,-88 675.25,-160"/>
<polygon fill="lightblue" stroke="lightblue" points="352.5,-92 352.5,-156 667.5,-156 667.5,-92 352.5,-92"/>
<text text-anchor="start" x="357" y="-140.5" font-family="Georgia" font-size="15.00" fill="#00008b">loc_4382 :</text>
<text text-anchor="start" x="357" y="-119.8" font-family="Monospace" font-size="14.00"> &#160;&#160;&#160;mov &#160;w[R09+V_R00], &#160;&#160;&#160;w[OperandV]</text>
<polygon fill="yellow" stroke="yellow" points="355,-94 355,-112 666,-112 666,-94 355,-94"/>
<text text-anchor="start" x="357" y="-99.8" font-family="Monospace" font-size="14.00"> &#160;&#160;&#160;jmp &#160;&#160;&#160;&#160;&#160;&#160;&#160;4372</text>
</g>
<!-- _4372 -->
<g id="node3" class="node"><title>_4372</title>
<polygon fill="lightblue" stroke="lightblue" points="560,-52 460,-52 460,-0 560,-0 560,-52"/>
<polygon fill="lightblue" stroke="lightblue" points="468,-4 468,-48 552,-48 552,-4 468,-4"/>
<text text-anchor="start" x="472" y="-32.5" font-family="Georgia" font-size="15.00" fill="#00008b">loc_4372 :</text>
<polygon fill="lightseagreen" stroke="lightseagreen" points="470,-6 470,-24 550,-24 550,-6 470,-6"/>
<text text-anchor="start" x="472" y="-11.8" font-family="Monospace" font-size="14.00"> &#160;&#160;&#160;ret &#160;</text>
</g>
<!-- _4382&#45;&gt;_4372 -->
<g id="edge2" class="edge"><title>_4382&#45;&gt;_4372</title>
<path fill="none" stroke="blue" d="M510,-87.7983C510,-82.8316 510,-77.6678 510,-72.5415"/>
<polygon fill="blue" stroke="blue" points="517,-72.2817 510,-52.2817 503,-72.2817 517,-72.2817"/>
</g>
<!-- _4368 -->
<g id="node4" class="node"><title>_4368</title>
<polygon fill="lightblue" stroke="lightblue" points="553.25,-684 272.75,-684 272.75,-612 553.25,-612 553.25,-684"/>
<polygon fill="lightblue" stroke="lightblue" points="280.5,-616 280.5,-680 545.5,-680 545.5,-616 280.5,-616"/>
<text text-anchor="start" x="285" y="-664.5" font-family="Georgia" font-size="15.00" fill="#00008b">loc_4368 :</text>
<text text-anchor="start" x="285" y="-643.8" font-family="Monospace" font-size="14.00"> &#160;&#160;&#160;cmp &#160;&#160;&#160;&#160;&#160;&#160;&#160;&#160;R05, &#160;&#160;&#160;&#160;&#160;&#160;&#160;&#160;&#160;3</text>
<polygon fill="yellow" stroke="yellow" points="283,-618 283,-636 544,-636 544,-618 283,-618"/>
<text text-anchor="start" x="285" y="-623.8" font-family="Monospace" font-size="14.00" fill="red"> &#160;&#160;&#160;jz &#160;&#160;&#160;&#160;&#160;&#160;&#160;&#160;4392</text>
</g>
<!-- _4392 -->
<g id="node6" class="node"><title>_4392</title>
<polygon fill="lightblue" stroke="lightblue" points="288,-408 0,-408 0,-196 288,-196 288,-408"/>
<polygon fill="lightblue" stroke="lightblue" points="8,-200 8,-404 280,-404 280,-200 8,-200"/>
<text text-anchor="start" x="12" y="-388.5" font-family="Georgia" font-size="15.00" fill="#00008b">loc_4392 :</text>
<text text-anchor="start" x="12" y="-367.8" font-family="Monospace" font-size="14.00"> &#160;&#160;&#160;mov &#160;&#160;&#160;&#160;&#160;&#160;&#160;&#160;R03, &#160;&#160;&#160;b[is16b2]</text>
<text text-anchor="start" x="12" y="-347.8" font-family="Monospace" font-size="14.00"> &#160;&#160;&#160;mov &#160;&#160;&#160;&#160;&#160;&#160;&#160;&#160;R09, &#160;&#160;&#160;w[curReg2]</text>
<text text-anchor="start" x="12" y="-327.8" font-family="Monospace" font-size="14.00"> &#160;&#160;&#160;shl &#160;&#160;&#160;&#160;&#160;&#160;&#160;&#160;R09, &#160;&#160;&#160;&#160;&#160;&#160;&#160;&#160;&#160;1</text>
<text text-anchor="start" x="12" y="-307.8" font-family="Monospace" font-size="14.00"> &#160;&#160;&#160;mov &#160;&#160;&#160;&#160;&#160;&#160;&#160;&#160;R04, &#160;&#160;&#160;w[OperandV]</text>
<text text-anchor="start" x="12" y="-287.8" font-family="Monospace" font-size="14.00"> &#160;&#160;&#160;mov &#160;&#160;&#160;&#160;&#160;&#160;&#160;&#160;R02, &#160;&#160;&#160;w[curKey2]</text>
<text text-anchor="start" x="12" y="-267.8" font-family="Monospace" font-size="14.00"> &#160;&#160;&#160;mov &#160;&#160;&#160;&#160;&#160;&#160;&#160;&#160;R01, w[R09+V_R00]</text>
<text text-anchor="start" x="12" y="-247.8" font-family="Monospace" font-size="14.00"> &#160;&#160;&#160;mov &#160;&#160;&#160;&#160;&#160;&#160;&#160;&#160;R00, &#160;&#160;&#160;w[curAddr2]</text>
<polygon fill="deepskyblue" stroke="deepskyblue" points="10,-222 10,-240 278,-240 278,-222 10,-222"/>
<text text-anchor="start" x="12" y="-227.8" font-family="Monospace" font-size="14.00"> &#160;&#160;&#160;call &#160;&#160;&#160;&#160;&#160;&#160;hash_set</text>
<polygon fill="yellow" stroke="yellow" points="10,-202 10,-220 278,-220 278,-202 10,-202"/>
<text text-anchor="start" x="12" y="-207.8" font-family="Monospace" font-size="14.00"> &#160;&#160;&#160;jmp &#160;&#160;&#160;&#160;&#160;&#160;&#160;4372</text>
</g>
<!-- _4368&#45;&gt;_4392 -->
<g id="edge4" class="edge"><title>_4368&#45;&gt;_4392</title>
<path fill="none" stroke="green" d="M323.646,-611.841C306.062,-602.093 288.807,-590.196 275,-576 234.529,-534.389 204.599,-477.885 183.646,-427.077"/>
<polygon fill="green" stroke="green" points="190.075,-424.299 176.191,-408.291 177.062,-429.463 190.075,-424.299"/>
</g>
<!-- _436E -->
<g id="node8" class="node"><title>_436E</title>
<polygon fill="lightblue" stroke="lightblue" points="542,-546 284,-546 284,-474 542,-474 542,-546"/>
<polygon fill="lightblue" stroke="lightblue" points="292,-478 292,-542 534,-542 534,-478 292,-478"/>
<text text-anchor="start" x="296" y="-526.5" font-family="Georgia" font-size="15.00" fill="#00008b">loc_436E :</text>
<text text-anchor="start" x="296" y="-505.8" font-family="Monospace" font-size="14.00"> &#160;&#160;&#160;and &#160;&#160;&#160;&#160;&#160;&#160;&#160;&#160;R05, &#160;&#160;&#160;&#160;&#160;&#160;&#160;R05</text>
<polygon fill="yellow" stroke="yellow" points="294,-480 294,-498 532,-498 532,-480 294,-480"/>
<text text-anchor="start" x="296" y="-485.8" font-family="Monospace" font-size="14.00" fill="red"> &#160;&#160;&#160;jz &#160;&#160;&#160;&#160;&#160;&#160;&#160;&#160;4374</text>
</g>
<!-- _4368&#45;&gt;_436E -->
<g id="edge6" class="edge"><title>_4368&#45;&gt;_436E</title>
<path fill="none" stroke="red" d="M413,-611.977C413,-598.125 413,-581.864 413,-566.488"/>
<polygon fill="red" stroke="red" points="420,-566.377 413,-546.377 406,-566.377 420,-566.377"/>
</g>
<!-- _4392&#45;&gt;_4372 -->
<g id="edge10" class="edge"><title>_4392&#45;&gt;_4372</title>
<path fill="none" stroke="blue" d="M202.119,-195.791C228.158,-157.037 262.062,-115.85 302,-88 342.945,-59.4484 397.301,-44.1076 440.179,-35.9528"/>
<polygon fill="blue" stroke="blue" points="441.375,-42.8499 459.892,-32.5477 438.992,-29.0542 441.375,-42.8499"/>
</g>
<!-- _436E&#45;&gt;_4372 -->
<g id="edge14" class="edge"><title>_436E&#45;&gt;_4372</title>
<path fill="none" stroke="red" d="M383.963,-473.934C370.446,-455.494 355.683,-431.814 348,-408 326.146,-340.268 293.781,-146.019 335,-88 358.717,-54.6157 402.109,-39.349 439.749,-32.4366"/>
<polygon fill="red" stroke="red" points="440.896,-39.3429 459.622,-29.4282 438.8,-25.5006 440.896,-39.3429"/>
</g>
<!-- _4374 -->
<g id="node13" class="node"><title>_4374</title>
<polygon fill="lightblue" stroke="lightblue" points="663,-358 357,-358 357,-246 663,-246 663,-358"/>
<polygon fill="lightblue" stroke="lightblue" points="365,-250 365,-354 655,-354 655,-250 365,-250"/>
<text text-anchor="start" x="369" y="-338.5" font-family="Georgia" font-size="15.00" fill="#00008b">loc_4374 :</text>
<text text-anchor="start" x="369" y="-317.8" font-family="Monospace" font-size="14.00"> &#160;&#160;&#160;mov &#160;&#160;&#160;&#160;&#160;&#160;&#160;&#160;R09, &#160;&#160;&#160;w[curReg2]</text>
<text text-anchor="start" x="369" y="-297.8" font-family="Monospace" font-size="14.00"> &#160;&#160;&#160;shl &#160;&#160;&#160;&#160;&#160;&#160;&#160;&#160;R09, &#160;&#160;&#160;&#160;&#160;&#160;&#160;&#160;&#160;1</text>
<text text-anchor="start" x="369" y="-277.8" font-family="Monospace" font-size="14.00"> &#160;&#160;&#160;cmp &#160;&#160;&#160;&#160;w[is16b2], &#160;&#160;&#160;&#160;&#160;&#160;&#160;&#160;&#160;0</text>
<polygon fill="yellow" stroke="yellow" points="367,-252 367,-270 653,-270 653,-252 367,-252"/>
<text text-anchor="start" x="369" y="-257.8" font-family="Monospace" font-size="14.00" fill="red"> &#160;&#160;&#160;jz &#160;&#160;&#160;&#160;&#160;&#160;&#160;&#160;438A</text>
</g>
<!-- _436E&#45;&gt;_4374 -->
<g id="edge12" class="edge"><title>_436E&#45;&gt;_4374</title>
<path fill="none" stroke="green" d="M429.675,-473.587C442.231,-446.922 459.881,-409.437 475.44,-376.395"/>
<polygon fill="green" stroke="green" points="481.876,-379.158 484.064,-358.082 469.21,-373.194 481.876,-379.158"/>
</g>
<!-- _438A -->
<g id="node9" class="node"><title>_438A</title>
<polygon fill="lightblue" stroke="lightblue" points="996.25,-160 693.75,-160 693.75,-88 996.25,-88 996.25,-160"/>
<polygon fill="lightblue" stroke="lightblue" points="701.5,-92 701.5,-156 988.5,-156 988.5,-92 701.5,-92"/>
<text text-anchor="start" x="706" y="-140.5" font-family="Georgia" font-size="15.00" fill="#00008b">loc_438A :</text>
<text text-anchor="start" x="706" y="-119.8" font-family="Monospace" font-size="14.00"> &#160;&#160;&#160;mov &#160;b[R09+V_R00], &#160;&#160;&#160;b[OperandV]</text>
<polygon fill="yellow" stroke="yellow" points="704,-94 704,-112 987,-112 987,-94 704,-94"/>
<text text-anchor="start" x="706" y="-99.8" font-family="Monospace" font-size="14.00"> &#160;&#160;&#160;jmp &#160;&#160;&#160;&#160;&#160;&#160;&#160;4372</text>
</g>
<!-- _438A&#45;&gt;_4372 -->
<g id="edge8" class="edge"><title>_438A&#45;&gt;_4372</title>
<path fill="none" stroke="blue" d="M722.635,-87.9343C674.557,-74.1567 621.118,-58.8429 579.84,-47.0138"/>
<polygon fill="blue" stroke="blue" points="581.491,-40.2054 560.337,-41.4249 577.635,-53.6637 581.491,-40.2054"/>
</g>
<!-- _4374&#45;&gt;_4382 -->
<g id="edge20" class="edge"><title>_4374&#45;&gt;_4382</title>
<path fill="none" stroke="red" d="M510,-245.795C510,-224.886 510,-201.094 510,-180.186"/>
<polygon fill="red" stroke="red" points="517,-180.07 510,-160.07 503,-180.07 517,-180.07"/>
</g>
<!-- _4374&#45;&gt;_438A -->
<g id="edge18" class="edge"><title>_4374&#45;&gt;_438A</title>
<path fill="none" stroke="green" d="M615.077,-245.795C661.857,-221.218 716.217,-192.659 760.333,-169.482"/>
<polygon fill="green" stroke="green" points="763.799,-175.568 778.248,-160.07 757.287,-163.175 763.799,-175.568"/>
</g>
<!-- _43B2 -->
<g id="node15" class="node"><title>_43B2</title>
<polygon fill="lightblue" stroke="lightblue" points="1076,-576 762,-576 762,-444 1076,-444 1076,-576"/>
<polygon fill="lightblue" stroke="lightblue" points="770,-448 770,-572 1068,-572 1068,-448 770,-448"/>
<text text-anchor="start" x="774" y="-556.5" font-family="Georgia" font-size="15.00" fill="#00008b">loc_43B2 :</text>
<text text-anchor="start" x="774" y="-535.8" font-family="Monospace" font-size="14.00"> &#160;&#160;&#160;mov &#160;&#160;&#160;&#160;&#160;&#160;&#160;&#160;R01, &#160;&#160;&#160;b[is16b2]</text>
<text text-anchor="start" x="774" y="-515.8" font-family="Monospace" font-size="14.00"> &#160;&#160;&#160;mov &#160;&#160;&#160;&#160;&#160;&#160;&#160;&#160;R02, &#160;&#160;&#160;w[OperandV]</text>
<text text-anchor="start" x="774" y="-495.8" font-family="Monospace" font-size="14.00"> &#160;&#160;&#160;mov &#160;&#160;&#160;&#160;&#160;&#160;&#160;&#160;R00, &#160;&#160;&#160;w[curAddr2]</text>
<polygon fill="deepskyblue" stroke="deepskyblue" points="772,-470 772,-488 1066,-488 1066,-470 772,-470"/>
<text text-anchor="start" x="774" y="-475.8" font-family="Monospace" font-size="14.00"> &#160;&#160;&#160;call &#160;&#160;&#160;&#160;&#160;&#160;setOutputByte</text>
<polygon fill="yellow" stroke="yellow" points="772,-450 772,-468 1066,-468 1066,-450 772,-450"/>
<text text-anchor="start" x="774" y="-455.8" font-family="Monospace" font-size="14.00"> &#160;&#160;&#160;jmp &#160;&#160;&#160;&#160;&#160;&#160;&#160;4372</text>
</g>
<!-- _43B2&#45;&gt;_4372 -->
<g id="edge16" class="edge"><title>_43B2&#45;&gt;_4372</title>
<path fill="none" stroke="blue" d="M962.356,-443.653C1016.81,-352.614 1093.09,-187.611 1005,-88 977.328,-56.709 710.123,-37.9318 580.217,-30.5822"/>
<polygon fill="blue" stroke="blue" points="580.589,-23.5921 560.234,-29.4807 579.818,-37.5709 580.589,-23.5921"/>
</g>
<!-- _435E -->
<g id="node19" class="node"><title>_435E</title>
<polygon fill="lightblue" stroke="lightblue" points="730,-812 432,-812 432,-720 730,-720 730,-812"/>
<polygon fill="lightblue" stroke="lightblue" points="440,-724 440,-808 722,-808 722,-724 440,-724"/>
<text text-anchor="start" x="444" y="-792.5" font-family="Georgia" font-size="15.00" fill="#00008b">setOutputOp (435E) :</text>
<text text-anchor="start" x="444" y="-771.8" font-family="Monospace" font-size="14.00"> &#160;&#160;&#160;mov &#160;&#160;&#160;&#160;&#160;&#160;&#160;&#160;R05, &#160;&#160;&#160;w[modRM2]</text>
<text text-anchor="start" x="444" y="-751.8" font-family="Monospace" font-size="14.00"> &#160;&#160;&#160;cmp &#160;&#160;&#160;&#160;&#160;&#160;&#160;&#160;R05, &#160;&#160;&#160;&#160;&#160;&#160;&#160;&#160;&#160;2</text>
<polygon fill="yellow" stroke="yellow" points="442,-726 442,-744 720,-744 720,-726 442,-726"/>
<text text-anchor="start" x="444" y="-731.8" font-family="Monospace" font-size="14.00" fill="red"> &#160;&#160;&#160;jz &#160;&#160;&#160;&#160;&#160;&#160;&#160;&#160;43B2</text>
</g>
<!-- _435E&#45;&gt;_4368 -->
<g id="edge24" class="edge"><title>_435E&#45;&gt;_4368</title>
<path fill="none" stroke="red" d="M515.566,-719.819C504.052,-711.869 492.049,-703.581 480.48,-695.594"/>
<polygon fill="red" stroke="red" points="484.386,-689.784 463.951,-684.18 476.431,-701.304 484.386,-689.784"/>
</g>
<!-- _435E&#45;&gt;_43B2 -->
<g id="edge22" class="edge"><title>_435E&#45;&gt;_43B2</title>
<path fill="none" stroke="green" d="M641.038,-719.883C689.486,-683.475 758.762,-631.416 816.032,-588.378"/>
<polygon fill="green" stroke="green" points="820.441,-593.821 832.224,-576.21 812.03,-582.629 820.441,-593.821"/>
</g>
</g>
</svg>
