<?xml version="1.0" encoding="UTF-8" standalone="no"?>
<!DOCTYPE svg PUBLIC "-//W3C//DTD SVG 1.1//EN"
 "http://www.w3.org/Graphics/SVG/1.1/DTD/svg11.dtd">
<!-- Generated by graphviz version 2.28.0 (20110507.0327)
 -->
<!-- Title: G_43C4 Pages: 1 -->
<svg width="1014pt" height="1800pt"
 viewBox="0.00 0.00 1014.00 1800.00" xmlns="http://www.w3.org/2000/svg" xmlns:xlink="http://www.w3.org/1999/xlink">
<g id="graph1" class="graph" transform="scale(1 1) rotate(0) translate(4 1796)">
<title>G_43C4</title>
<polygon fill="white" stroke="white" points="-4,5 -4,-1796 1011,-1796 1011,5 -4,5"/>
<!-- _4440 -->
<g id="node1" class="node"><title>_4440</title>
<polygon fill="lightblue" stroke="lightblue" points="804,-1042 546,-1042 546,-970 804,-970 804,-1042"/>
<polygon fill="lightblue" stroke="lightblue" points="554,-974 554,-1038 796,-1038 796,-974 554,-974"/>
<text text-anchor="start" x="558" y="-1022.5" font-family="Georgia" font-size="15.00" fill="#00008b">loc_4440 :</text>
<text text-anchor="start" x="558" y="-1001.8" font-family="Monospace" font-size="14.00"> &#160;&#160;&#160;cmp &#160;&#160;&#160;&#160;&#160;&#160;&#160;&#160;R00, &#160;&#160;&#160;&#160;&#160;&#160;&#160;&#160;&#160;2</text>
<polygon fill="yellow" stroke="yellow" points="556,-976 556,-994 794,-994 794,-976 556,-976"/>
<text text-anchor="start" x="558" y="-981.8" font-family="Monospace" font-size="14.00" fill="red"> &#160;&#160;&#160;jz &#160;&#160;&#160;&#160;&#160;&#160;&#160;&#160;4454</text>
</g>
<!-- _4454 -->
<g id="node3" class="node"><title>_4454</title>
<polygon fill="lightblue" stroke="lightblue" points="851,-864 555,-864 555,-552 851,-552 851,-864"/>
<polygon fill="lightblue" stroke="lightblue" points="563,-556 563,-860 843,-860 843,-556 563,-556"/>
<text text-anchor="start" x="567" y="-844.5" font-family="Georgia" font-size="15.00" fill="#00008b">loc_4454 :</text>
<text text-anchor="start" x="567" y="-823.8" font-family="Monospace" font-size="14.00"> &#160;&#160;&#160;mov &#160;&#160;&#160;&#160;&#160;&#160;&#160;&#160;R00, &#160;&#160;&#160;&#160;&#160;&#160;&#160;&#160;10</text>
<polygon fill="deepskyblue" stroke="deepskyblue" points="565,-798 565,-816 841,-816 841,-798 565,-798"/>
<text text-anchor="start" x="567" y="-803.8" font-family="Monospace" font-size="14.00"> &#160;&#160;&#160;call &#160;&#160;&#160;&#160;&#160;&#160;getBits</text>
<text text-anchor="start" x="567" y="-783.8" font-family="Monospace" font-size="14.00"> &#160;&#160;&#160;mov &#160;&#160;&#160;&#160;w[curAddr], &#160;&#160;&#160;&#160;&#160;&#160;&#160;R00</text>
<text text-anchor="start" x="567" y="-763.8" font-family="Monospace" font-size="14.00"> &#160;&#160;&#160;mov &#160;&#160;&#160;&#160;&#160;&#160;&#160;&#160;R00, &#160;&#160;&#160;&#160;&#160;&#160;&#160;&#160;&#160;4</text>
<polygon fill="deepskyblue" stroke="deepskyblue" points="565,-738 565,-756 841,-756 841,-738 565,-738"/>
<text text-anchor="start" x="567" y="-743.8" font-family="Monospace" font-size="14.00"> &#160;&#160;&#160;call &#160;&#160;&#160;&#160;&#160;&#160;getBits</text>
<text text-anchor="start" x="567" y="-723.8" font-family="Monospace" font-size="14.00"> &#160;&#160;&#160;xor &#160;&#160;&#160;&#160;&#160;&#160;&#160;&#160;R01, &#160;&#160;&#160;&#160;&#160;&#160;&#160;R01</text>
<text text-anchor="start" x="567" y="-703.8" font-family="Monospace" font-size="14.00"> &#160;&#160;&#160;subi &#160;&#160;&#160;&#160;&#160;&#160;&#160;R01, &#160;&#160;&#160;&#160;&#160;&#160;&#160;&#160;&#160;1</text>
<text text-anchor="start" x="567" y="-683.8" font-family="Monospace" font-size="14.00"> &#160;&#160;&#160;mov &#160;&#160;&#160;&#160;&#160;&#160;&#160;&#160;R09, &#160;&#160;&#160;&#160;&#160;&#160;&#160;R00</text>
<text text-anchor="start" x="567" y="-663.8" font-family="Monospace" font-size="14.00"> &#160;&#160;&#160;mov &#160;&#160;&#160;&#160;w[curReg], &#160;&#160;&#160;&#160;&#160;&#160;&#160;R00</text>
<text text-anchor="start" x="567" y="-643.8" font-family="Monospace" font-size="14.00"> &#160;&#160;&#160;add &#160;&#160;&#160;&#160;&#160;&#160;&#160;&#160;R09, &#160;&#160;&#160;&#160;&#160;&#160;&#160;R00</text>
<text text-anchor="start" x="567" y="-623.8" font-family="Monospace" font-size="14.00"> &#160;&#160;&#160;add &#160;&#160;&#160;&#160;w[curAddr], w[R09+V_R00]</text>
<text text-anchor="start" x="567" y="-603.8" font-family="Monospace" font-size="14.00"> &#160;&#160;&#160;add &#160;&#160;&#160;&#160;&#160;&#160;&#160;&#160;R01, &#160;&#160;&#160;&#160;&#160;&#160;&#160;&#160;13</text>
<text text-anchor="start" x="567" y="-583.8" font-family="Monospace" font-size="14.00"> &#160;&#160;&#160;stc &#160;</text>
<polygon fill="yellow" stroke="yellow" points="565,-558 565,-576 841,-576 841,-558 565,-558"/>
<text text-anchor="start" x="567" y="-563.8" font-family="Monospace" font-size="14.00" fill="red"> &#160;&#160;&#160;jbe &#160;&#160;&#160;&#160;&#160;&#160;&#160;4446</text>
</g>
<!-- _4440&#45;&gt;_4454 -->
<g id="edge2" class="edge"><title>_4440&#45;&gt;_4454</title>
<path fill="none" stroke="green" d="M678.322,-969.883C680.437,-947.521 683.353,-916.695 686.441,-884.051"/>
<polygon fill="green" stroke="green" points="693.412,-884.683 688.327,-864.113 679.475,-883.365 693.412,-884.683"/>
</g>
<!-- _4446 -->
<g id="node5" class="node"><title>_4446</title>
<polygon fill="lightblue" stroke="lightblue" points="642,-288 412,-288 412,-176 642,-176 642,-288"/>
<polygon fill="lightblue" stroke="lightblue" points="420,-180 420,-284 634,-284 634,-180 420,-180"/>
<text text-anchor="start" x="424" y="-268.5" font-family="Georgia" font-size="15.00" fill="#00008b">loc_4446 :</text>
<text text-anchor="start" x="424" y="-247.8" font-family="Monospace" font-size="14.00"> &#160;&#160;&#160;mov &#160;&#160;&#160;&#160;&#160;&#160;&#160;&#160;R01, &#160;&#160;&#160;b[is16b]</text>
<text text-anchor="start" x="424" y="-227.8" font-family="Monospace" font-size="14.00"> &#160;&#160;&#160;mov &#160;&#160;&#160;&#160;&#160;&#160;&#160;&#160;R00, &#160;&#160;&#160;w[curAddr]</text>
<polygon fill="deepskyblue" stroke="deepskyblue" points="422,-202 422,-220 632,-220 632,-202 422,-202"/>
<text text-anchor="start" x="424" y="-207.8" font-family="Monospace" font-size="14.00"> &#160;&#160;&#160;call &#160;&#160;&#160;&#160;&#160;&#160;getInputByte</text>
<polygon fill="yellow" stroke="yellow" points="422,-182 422,-200 632,-200 632,-182 422,-182"/>
<text text-anchor="start" x="424" y="-187.8" font-family="Monospace" font-size="14.00"> &#160;&#160;&#160;jmp &#160;&#160;&#160;&#160;&#160;&#160;&#160;442A</text>
</g>
<!-- _4440&#45;&gt;_4446 -->
<g id="edge4" class="edge"><title>_4440&#45;&gt;_4446</title>
<path fill="none" stroke="red" d="M620.618,-969.865C592.891,-948.664 561.766,-918.995 546,-884 500.636,-783.306 513.442,-457.204 522.056,-308.345"/>
<polygon fill="red" stroke="red" points="529.058,-308.519 523.263,-288.137 515.083,-307.684 529.058,-308.519"/>
</g>
<!-- _4454&#45;&gt;_4446 -->
<g id="edge36" class="edge"><title>_4454&#45;&gt;_4446</title>
<path fill="none" stroke="green" d="M608.758,-551.96C599.576,-533.478 591.065,-514.573 584,-496 571.139,-462.188 552.98,-373.043 540.638,-307.882"/>
<polygon fill="green" stroke="green" points="547.494,-306.462 536.929,-288.094 533.734,-309.041 547.494,-306.462"/>
</g>
<!-- _4482 -->
<g id="node22" class="node"><title>_4482</title>
<polygon fill="lightblue" stroke="lightblue" points="835,-496 593,-496 593,-324 835,-324 835,-496"/>
<polygon fill="lightblue" stroke="lightblue" points="601,-328 601,-492 827,-492 827,-328 601,-328"/>
<text text-anchor="start" x="605" y="-476.5" font-family="Georgia" font-size="15.00" fill="#00008b">loc_4482 :</text>
<text text-anchor="start" x="605" y="-455.8" font-family="Monospace" font-size="14.00"> &#160;&#160;&#160;mov &#160;&#160;&#160;&#160;&#160;&#160;&#160;&#160;R00, &#160;&#160;&#160;&#160;&#160;&#160;&#160;&#160;&#160;4</text>
<polygon fill="deepskyblue" stroke="deepskyblue" points="603,-430 603,-448 825,-448 825,-430 603,-430"/>
<text text-anchor="start" x="605" y="-435.8" font-family="Monospace" font-size="14.00"> &#160;&#160;&#160;call &#160;&#160;&#160;&#160;&#160;&#160;getBits</text>
<text text-anchor="start" x="605" y="-415.8" font-family="Monospace" font-size="14.00"> &#160;&#160;&#160;mov &#160;&#160;&#160;&#160;&#160;&#160;&#160;&#160;R09, &#160;&#160;&#160;&#160;&#160;&#160;&#160;R00</text>
<text text-anchor="start" x="605" y="-395.8" font-family="Monospace" font-size="14.00"> &#160;&#160;&#160;mov &#160;&#160;&#160;&#160;w[curReg], &#160;&#160;&#160;&#160;&#160;&#160;&#160;R00</text>
<text text-anchor="start" x="605" y="-375.8" font-family="Monospace" font-size="14.00"> &#160;&#160;&#160;add &#160;&#160;&#160;&#160;&#160;&#160;&#160;&#160;R09, &#160;&#160;&#160;&#160;&#160;&#160;&#160;R00</text>
<text text-anchor="start" x="605" y="-355.8" font-family="Monospace" font-size="14.00"> &#160;&#160;&#160;mov &#160;&#160;&#160;&#160;w[curAddr], w[R09+V_R00]</text>
<polygon fill="yellow" stroke="yellow" points="603,-330 603,-348 825,-348 825,-330 603,-330"/>
<text text-anchor="start" x="605" y="-335.8" font-family="Monospace" font-size="14.00"> &#160;&#160;&#160;jmp &#160;&#160;&#160;&#160;&#160;&#160;&#160;4446</text>
</g>
<!-- _4454&#45;&gt;_4482 -->
<g id="edge38" class="edge"><title>_4454&#45;&gt;_4482</title>
<path fill="none" stroke="red" d="M708.774,-551.632C709.218,-539.68 709.66,-527.793 710.087,-516.283"/>
<polygon fill="red" stroke="red" points="717.092,-516.286 710.84,-496.039 703.102,-515.766 717.092,-516.286"/>
</g>
<!-- _442A -->
<g id="node17" class="node"><title>_442A</title>
<polygon fill="lightblue" stroke="lightblue" points="530,-140 294,-140 294,-88 530,-88 530,-140"/>
<polygon fill="lightblue" stroke="lightblue" points="302,-92 302,-136 522,-136 522,-92 302,-92"/>
<text text-anchor="start" x="306" y="-120.5" font-family="Georgia" font-size="15.00" fill="#00008b">loc_442A :</text>
<text text-anchor="start" x="306" y="-99.8" font-family="Monospace" font-size="14.00"> &#160;&#160;&#160;mov &#160;&#160;&#160;&#160;w[OperandV], &#160;&#160;&#160;&#160;&#160;&#160;&#160;R00</text>
</g>
<!-- _4446&#45;&gt;_442A -->
<g id="edge14" class="edge"><title>_4446&#45;&gt;_442A</title>
<path fill="none" stroke="blue" d="M472.194,-175.718C465.037,-168.498 457.824,-161.223 451,-154.339"/>
<polygon fill="blue" stroke="blue" points="455.908,-149.347 436.856,-140.072 445.966,-159.204 455.908,-149.347"/>
</g>
<!-- _44C2 -->
<g id="node6" class="node"><title>_44C2</title>
<polygon fill="lightblue" stroke="lightblue" points="842,-1564 552,-1564 552,-1472 842,-1472 842,-1564"/>
<polygon fill="lightblue" stroke="lightblue" points="560,-1476 560,-1560 834,-1560 834,-1476 560,-1476"/>
<text text-anchor="start" x="564" y="-1544.5" font-family="Georgia" font-size="15.00" fill="#00008b">loc_44C2 :</text>
<text text-anchor="start" x="564" y="-1523.8" font-family="Monospace" font-size="14.00"> &#160;&#160;&#160;mov &#160;&#160;&#160;&#160;&#160;&#160;&#160;&#160;R00, &#160;&#160;&#160;&#160;&#160;&#160;&#160;&#160;10</text>
<text text-anchor="start" x="564" y="-1503.8" font-family="Monospace" font-size="14.00"> &#160;&#160;&#160;cmp &#160;&#160;&#160;&#160;w[is16b], &#160;&#160;&#160;&#160;&#160;&#160;&#160;&#160;&#160;0</text>
<polygon fill="yellow" stroke="yellow" points="562,-1478 562,-1496 832,-1496 832,-1478 562,-1478"/>
<text text-anchor="start" x="564" y="-1483.8" font-family="Monospace" font-size="14.00" fill="red"> &#160;&#160;&#160;jnz &#160;&#160;&#160;&#160;&#160;&#160;&#160;44D2</text>
</g>
<!-- _44D2 -->
<g id="node8" class="node"><title>_44D2</title>
<polygon fill="lightblue" stroke="lightblue" points="969.25,-1308 762.75,-1308 762.75,-1236 969.25,-1236 969.25,-1308"/>
<polygon fill="lightblue" stroke="lightblue" points="770.5,-1240 770.5,-1304 961.5,-1304 961.5,-1240 770.5,-1240"/>
<text text-anchor="start" x="775" y="-1288.5" font-family="Georgia" font-size="15.00" fill="#00008b">loc_44D2 :</text>
<polygon fill="deepskyblue" stroke="deepskyblue" points="773,-1262 773,-1280 960,-1280 960,-1262 773,-1262"/>
<text text-anchor="start" x="775" y="-1267.8" font-family="Monospace" font-size="14.00"> &#160;&#160;&#160;call &#160;&#160;&#160;&#160;&#160;&#160;getBits</text>
<polygon fill="yellow" stroke="yellow" points="773,-1242 773,-1260 960,-1260 960,-1242 773,-1242"/>
<text text-anchor="start" x="775" y="-1247.8" font-family="Monospace" font-size="14.00"> &#160;&#160;&#160;jmp &#160;&#160;&#160;&#160;&#160;&#160;&#160;442A</text>
</g>
<!-- _44C2&#45;&gt;_44D2 -->
<g id="edge6" class="edge"><title>_44C2&#45;&gt;_44D2</title>
<path fill="none" stroke="green" d="M692.66,-1471.98C691.758,-1439.49 695.345,-1395.91 716,-1364 727.663,-1345.98 744.268,-1330.99 762.213,-1318.72"/>
<polygon fill="green" stroke="green" points="766.1,-1324.55 779.335,-1308 758.669,-1312.68 766.1,-1324.55"/>
</g>
<!-- _44CE -->
<g id="node10" class="node"><title>_44CE</title>
<polygon fill="lightblue" stroke="lightblue" points="1006.25,-1426 725.75,-1426 725.75,-1374 1006.25,-1374 1006.25,-1426"/>
<polygon fill="lightblue" stroke="lightblue" points="733.5,-1378 733.5,-1422 998.5,-1422 998.5,-1378 733.5,-1378"/>
<text text-anchor="start" x="738" y="-1406.5" font-family="Georgia" font-size="15.00" fill="#00008b">loc_44CE :</text>
<text text-anchor="start" x="738" y="-1385.8" font-family="Monospace" font-size="14.00"> &#160;&#160;&#160;mov &#160;&#160;&#160;&#160;&#160;&#160;&#160;&#160;R00, &#160;&#160;&#160;&#160;&#160;&#160;&#160;&#160;&#160;8</text>
</g>
<!-- _44C2&#45;&gt;_44CE -->
<g id="edge8" class="edge"><title>_44C2&#45;&gt;_44CE</title>
<path fill="none" stroke="red" d="M762.824,-1471.82C779.343,-1460.48 796.864,-1448.45 812.688,-1437.59"/>
<polygon fill="red" stroke="red" points="816.847,-1443.23 829.375,-1426.14 808.924,-1431.69 816.847,-1443.23"/>
</g>
<!-- _44D2&#45;&gt;_442A -->
<g id="edge34" class="edge"><title>_44D2&#45;&gt;_442A</title>
<path fill="none" stroke="blue" d="M877.192,-1235.97C892.205,-1185.8 917,-1090.33 917,-1007 917,-1007 917,-1007 917,-409 917,-238.486 699.311,-165.142 549.784,-134.877"/>
<polygon fill="blue" stroke="blue" points="551.048,-127.992 530.081,-131.056 548.383,-141.735 551.048,-127.992"/>
</g>
<!-- _44CE&#45;&gt;_44D2 -->
<g id="edge20" class="edge"><title>_44CE&#45;&gt;_44D2</title>
<path fill="none" stroke="blue" d="M866,-1373.8C866,-1360.72 866,-1344.19 866,-1328.31"/>
<polygon fill="blue" stroke="blue" points="873,-1328.17 866,-1308.17 859,-1328.17 873,-1328.17"/>
</g>
<!-- _43E4 -->
<g id="node11" class="node"><title>_43E4</title>
<polygon fill="lightblue" stroke="lightblue" points="483,-1544 315,-1544 315,-1492 483,-1492 483,-1544"/>
<polygon fill="lightblue" stroke="lightblue" points="323,-1496 323,-1540 475,-1540 475,-1496 323,-1496"/>
<text text-anchor="start" x="327" y="-1524.5" font-family="Georgia" font-size="15.00" fill="#00008b">loc_43E4 :</text>
<polygon fill="yellow" stroke="yellow" points="325,-1498 325,-1516 473,-1516 473,-1498 325,-1498"/>
<text text-anchor="start" x="327" y="-1503.8" font-family="Monospace" font-size="14.00" fill="red"> &#160;&#160;&#160;jb &#160;&#160;&#160;&#160;&#160;&#160;&#160;&#160;44A8</text>
</g>
<!-- _44A8 -->
<g id="node13" class="node"><title>_44A8</title>
<polygon fill="lightblue" stroke="lightblue" points="302.25,-1092 -0.25,-1092 -0.25,-920 302.25,-920 302.25,-1092"/>
<polygon fill="lightblue" stroke="lightblue" points="7.5,-924 7.5,-1088 294.5,-1088 294.5,-924 7.5,-924"/>
<text text-anchor="start" x="12" y="-1072.5" font-family="Georgia" font-size="15.00" fill="#00008b">loc_44A8 :</text>
<text text-anchor="start" x="12" y="-1051.8" font-family="Monospace" font-size="14.00"> &#160;&#160;&#160;mov &#160;&#160;&#160;&#160;&#160;&#160;&#160;&#160;R00, &#160;&#160;&#160;&#160;&#160;&#160;&#160;&#160;&#160;4</text>
<polygon fill="deepskyblue" stroke="deepskyblue" points="10,-1026 10,-1044 293,-1044 293,-1026 10,-1026"/>
<text text-anchor="start" x="12" y="-1031.8" font-family="Monospace" font-size="14.00"> &#160;&#160;&#160;call &#160;&#160;&#160;&#160;&#160;&#160;getBits</text>
<text text-anchor="start" x="12" y="-1011.8" font-family="Monospace" font-size="14.00"> &#160;&#160;&#160;mov &#160;&#160;&#160;&#160;&#160;&#160;&#160;&#160;R09, &#160;&#160;&#160;&#160;&#160;&#160;&#160;R00</text>
<text text-anchor="start" x="12" y="-991.8" font-family="Monospace" font-size="14.00"> &#160;&#160;&#160;mov &#160;&#160;&#160;&#160;w[curReg], &#160;&#160;&#160;&#160;&#160;&#160;&#160;R00</text>
<text text-anchor="start" x="12" y="-971.8" font-family="Monospace" font-size="14.00"> &#160;&#160;&#160;add &#160;&#160;&#160;&#160;&#160;&#160;&#160;&#160;R09, &#160;&#160;&#160;&#160;&#160;&#160;&#160;R00</text>
<text text-anchor="start" x="12" y="-951.8" font-family="Monospace" font-size="14.00"> &#160;&#160;&#160;mov &#160;&#160;&#160;&#160;w[OperandV], w[R09+V_R00]</text>
<polygon fill="yellow" stroke="yellow" points="10,-926 10,-944 293,-944 293,-926 10,-926"/>
<text text-anchor="start" x="12" y="-931.8" font-family="Monospace" font-size="14.00"> &#160;&#160;&#160;jmp &#160;&#160;&#160;&#160;&#160;&#160;&#160;442E</text>
</g>
<!-- _43E4&#45;&gt;_44A8 -->
<g id="edge10" class="edge"><title>_43E4&#45;&gt;_44A8</title>
<path fill="none" stroke="green" d="M324.412,-1491.88C296.97,-1479.15 267.989,-1460.97 249,-1436 177.775,-1342.33 156.781,-1206.08 151.357,-1112.4"/>
<polygon fill="green" stroke="green" points="158.339,-1111.84 150.39,-1092.2 144.355,-1112.51 158.339,-1111.84"/>
</g>
<!-- _43E8 -->
<g id="node15" class="node"><title>_43E8</title>
<polygon fill="lightblue" stroke="lightblue" points="539.25,-1436 258.75,-1436 258.75,-1364 539.25,-1364 539.25,-1436"/>
<polygon fill="lightblue" stroke="lightblue" points="266.5,-1368 266.5,-1432 531.5,-1432 531.5,-1368 266.5,-1368"/>
<text text-anchor="start" x="271" y="-1416.5" font-family="Georgia" font-size="15.00" fill="#00008b">loc_43E8 :</text>
<text text-anchor="start" x="271" y="-1395.8" font-family="Monospace" font-size="14.00"> &#160;&#160;&#160;cmp &#160;&#160;&#160;&#160;&#160;&#160;&#160;&#160;R00, &#160;&#160;&#160;&#160;&#160;&#160;&#160;&#160;&#160;2</text>
<polygon fill="yellow" stroke="yellow" points="269,-1370 269,-1388 530,-1388 530,-1370 269,-1370"/>
<text text-anchor="start" x="271" y="-1375.8" font-family="Monospace" font-size="14.00" fill="red"> &#160;&#160;&#160;jz &#160;&#160;&#160;&#160;&#160;&#160;&#160;&#160;4430</text>
</g>
<!-- _43E4&#45;&gt;_43E8 -->
<g id="edge12" class="edge"><title>_43E4&#45;&gt;_43E8</title>
<path fill="none" stroke="red" d="M399,-1491.83C399,-1481.41 399,-1468.89 399,-1456.52"/>
<polygon fill="red" stroke="red" points="406,-1456.24 399,-1436.24 392,-1456.24 406,-1456.24"/>
</g>
<!-- _442E -->
<g id="node19" class="node"><title>_442E</title>
<polygon fill="lightblue" stroke="lightblue" points="321,-52 241,-52 241,-0 321,-0 321,-52"/>
<polygon fill="lightblue" stroke="lightblue" points="249,-4 249,-48 313,-48 313,-4 249,-4"/>
<text text-anchor="start" x="253" y="-32.5" font-family="Georgia" font-size="15.00" fill="#00008b">loc_442E :</text>
<polygon fill="lightseagreen" stroke="lightseagreen" points="251,-6 251,-24 311,-24 311,-6 251,-6"/>
<text text-anchor="start" x="253" y="-11.8" font-family="Monospace" font-size="14.00"> &#160;&#160;&#160;ret &#160;</text>
</g>
<!-- _44A8&#45;&gt;_442E -->
<g id="edge16" class="edge"><title>_44A8&#45;&gt;_442E</title>
<path fill="none" stroke="blue" d="M151,-919.914C151,-804.591 151,-592.242 151,-411 151,-411 151,-411 151,-231 151,-165.522 199.22,-104.133 236.924,-66.139"/>
<polygon fill="blue" stroke="blue" points="241.982,-70.9856 251.501,-52.0542 232.254,-60.9176 241.982,-70.9856"/>
</g>
<!-- _43EE -->
<g id="node24" class="node"><title>_43EE</title>
<polygon fill="lightblue" stroke="lightblue" points="460.25,-884 179.75,-884 179.75,-532 460.25,-532 460.25,-884"/>
<polygon fill="lightblue" stroke="lightblue" points="187.5,-536 187.5,-880 452.5,-880 452.5,-536 187.5,-536"/>
<text text-anchor="start" x="192" y="-864.5" font-family="Georgia" font-size="15.00" fill="#00008b">loc_43EE :</text>
<text text-anchor="start" x="192" y="-843.8" font-family="Monospace" font-size="14.00"> &#160;&#160;&#160;mov &#160;&#160;&#160;&#160;&#160;&#160;&#160;&#160;R00, &#160;&#160;&#160;&#160;&#160;&#160;&#160;&#160;10</text>
<polygon fill="deepskyblue" stroke="deepskyblue" points="190,-818 190,-836 451,-836 451,-818 190,-818"/>
<text text-anchor="start" x="192" y="-823.8" font-family="Monospace" font-size="14.00"> &#160;&#160;&#160;call &#160;&#160;&#160;&#160;&#160;&#160;getBits</text>
<text text-anchor="start" x="192" y="-803.8" font-family="Monospace" font-size="14.00"> &#160;&#160;&#160;mov &#160;&#160;&#160;&#160;w[curAddr], &#160;&#160;&#160;&#160;&#160;&#160;&#160;R00</text>
<text text-anchor="start" x="192" y="-783.8" font-family="Monospace" font-size="14.00"> &#160;&#160;&#160;mov &#160;&#160;&#160;&#160;&#160;&#160;&#160;&#160;R00, &#160;&#160;&#160;&#160;&#160;&#160;&#160;&#160;&#160;4</text>
<polygon fill="deepskyblue" stroke="deepskyblue" points="190,-758 190,-776 451,-776 451,-758 190,-758"/>
<text text-anchor="start" x="192" y="-763.8" font-family="Monospace" font-size="14.00"> &#160;&#160;&#160;call &#160;&#160;&#160;&#160;&#160;&#160;getBits</text>
<text text-anchor="start" x="192" y="-743.8" font-family="Monospace" font-size="14.00"> &#160;&#160;&#160;mov &#160;&#160;&#160;&#160;w[curReg], &#160;&#160;&#160;&#160;&#160;&#160;&#160;R00</text>
<text text-anchor="start" x="192" y="-723.8" font-family="Monospace" font-size="14.00"> &#160;&#160;&#160;mov &#160;&#160;&#160;&#160;&#160;&#160;&#160;&#160;R00, &#160;&#160;&#160;&#160;&#160;&#160;&#160;&#160;&#160;6</text>
<polygon fill="deepskyblue" stroke="deepskyblue" points="190,-698 190,-716 451,-716 451,-698 190,-698"/>
<text text-anchor="start" x="192" y="-703.8" font-family="Monospace" font-size="14.00"> &#160;&#160;&#160;call &#160;&#160;&#160;&#160;&#160;&#160;getBits</text>
<text text-anchor="start" x="192" y="-683.8" font-family="Monospace" font-size="14.00"> &#160;&#160;&#160;mov &#160;&#160;&#160;&#160;&#160;&#160;&#160;&#160;R02, &#160;&#160;&#160;&#160;&#160;&#160;&#160;R00</text>
<text text-anchor="start" x="192" y="-663.8" font-family="Monospace" font-size="14.00"> &#160;&#160;&#160;mov &#160;&#160;&#160;&#160;w[curKey], &#160;&#160;&#160;&#160;&#160;&#160;&#160;R00</text>
<text text-anchor="start" x="192" y="-643.8" font-family="Monospace" font-size="14.00"> &#160;&#160;&#160;mov &#160;&#160;&#160;&#160;&#160;&#160;&#160;&#160;R03, &#160;&#160;&#160;b[is16b]</text>
<text text-anchor="start" x="192" y="-623.8" font-family="Monospace" font-size="14.00"> &#160;&#160;&#160;mov &#160;&#160;&#160;&#160;&#160;&#160;&#160;&#160;R09, &#160;&#160;&#160;w[curReg]</text>
<text text-anchor="start" x="192" y="-603.8" font-family="Monospace" font-size="14.00"> &#160;&#160;&#160;shl &#160;&#160;&#160;&#160;&#160;&#160;&#160;&#160;R09, &#160;&#160;&#160;&#160;&#160;&#160;&#160;&#160;&#160;1</text>
<text text-anchor="start" x="192" y="-583.8" font-family="Monospace" font-size="14.00"> &#160;&#160;&#160;mov &#160;&#160;&#160;&#160;&#160;&#160;&#160;&#160;R01, w[R09+V_R00]</text>
<text text-anchor="start" x="192" y="-563.8" font-family="Monospace" font-size="14.00"> &#160;&#160;&#160;mov &#160;&#160;&#160;&#160;&#160;&#160;&#160;&#160;R00, &#160;&#160;&#160;w[curAddr]</text>
<polygon fill="deepskyblue" stroke="deepskyblue" points="190,-538 190,-556 451,-556 451,-538 190,-538"/>
<text text-anchor="start" x="192" y="-543.8" font-family="Monospace" font-size="14.00"> &#160;&#160;&#160;call &#160;&#160;&#160;&#160;&#160;&#160;hash_get</text>
</g>
<!-- _43E8&#45;&gt;_43EE -->
<g id="edge32" class="edge"><title>_43E8&#45;&gt;_43EE</title>
<path fill="none" stroke="red" d="M369.725,-1363.81C362.273,-1352.97 355.194,-1340.56 351,-1328 325.684,-1252.18 319.312,-1055.86 318.422,-904.453"/>
<polygon fill="red" stroke="red" points="325.421,-904.316 318.334,-884.346 311.421,-904.377 325.421,-904.316"/>
</g>
<!-- _4430 -->
<g id="node26" class="node"><title>_4430</title>
<polygon fill="lightblue" stroke="lightblue" points="618,-1328 360,-1328 360,-1216 618,-1216 618,-1328"/>
<polygon fill="lightblue" stroke="lightblue" points="368,-1220 368,-1324 610,-1324 610,-1220 368,-1220"/>
<text text-anchor="start" x="372" y="-1308.5" font-family="Georgia" font-size="15.00" fill="#00008b">loc_4430 :</text>
<polygon fill="deepskyblue" stroke="deepskyblue" points="370,-1282 370,-1300 608,-1300 608,-1282 370,-1282"/>
<text text-anchor="start" x="372" y="-1287.8" font-family="Monospace" font-size="14.00"> &#160;&#160;&#160;call &#160;&#160;&#160;&#160;&#160;&#160;getBits</text>
<text text-anchor="start" x="372" y="-1267.8" font-family="Monospace" font-size="14.00"> &#160;&#160;&#160;mov &#160;&#160;&#160;&#160;w[Mod], &#160;&#160;&#160;&#160;&#160;&#160;&#160;R00</text>
<text text-anchor="start" x="372" y="-1247.8" font-family="Monospace" font-size="14.00"> &#160;&#160;&#160;cmp &#160;&#160;&#160;&#160;&#160;&#160;&#160;&#160;R00, &#160;&#160;&#160;&#160;&#160;&#160;&#160;&#160;&#160;1</text>
<polygon fill="yellow" stroke="yellow" points="370,-1222 370,-1240 608,-1240 608,-1222 370,-1222"/>
<text text-anchor="start" x="372" y="-1227.8" font-family="Monospace" font-size="14.00" fill="red"> &#160;&#160;&#160;jz &#160;&#160;&#160;&#160;&#160;&#160;&#160;&#160;449A</text>
</g>
<!-- _43E8&#45;&gt;_4430 -->
<g id="edge30" class="edge"><title>_43E8&#45;&gt;_4430</title>
<path fill="none" stroke="green" d="M424.07,-1363.9C428.394,-1357.85 433.025,-1351.37 437.75,-1344.75"/>
<polygon fill="green" stroke="green" points="443.637,-1348.55 449.566,-1328.21 432.245,-1340.41 443.637,-1348.55"/>
</g>
<!-- _442A&#45;&gt;_442E -->
<g id="edge18" class="edge"><title>_442A&#45;&gt;_442E</title>
<path fill="none" stroke="blue" d="M373.757,-87.8941C362.023,-80.1908 348.869,-71.5551 336.237,-63.2622"/>
<polygon fill="blue" stroke="blue" points="340.078,-57.4103 319.517,-52.286 332.395,-69.1137 340.078,-57.4103"/>
</g>
<!-- _4482&#45;&gt;_4446 -->
<g id="edge22" class="edge"><title>_4482&#45;&gt;_4446</title>
<path fill="none" stroke="blue" d="M623.513,-323.836C615.773,-316.551 608.007,-309.241 600.425,-302.105"/>
<polygon fill="blue" stroke="blue" points="605.025,-296.823 585.664,-288.213 595.43,-307.018 605.025,-296.823"/>
</g>
<!-- _43EE&#45;&gt;_442A -->
<g id="edge24" class="edge"><title>_43EE&#45;&gt;_442A</title>
<path fill="none" stroke="blue" d="M219.334,-531.889C194.094,-465.724 180.962,-390.409 208,-324 237.91,-250.536 307.443,-188.812 357.004,-151.913"/>
<polygon fill="blue" stroke="blue" points="361.175,-157.535 373.282,-140.144 352.973,-146.19 361.175,-157.535"/>
</g>
<!-- _449A -->
<g id="node28" class="node"><title>_449A</title>
<polygon fill="lightblue" stroke="lightblue" points="498.25,-466 217.75,-466 217.75,-354 498.25,-354 498.25,-466"/>
<polygon fill="lightblue" stroke="lightblue" points="225.5,-358 225.5,-462 490.5,-462 490.5,-358 225.5,-358"/>
<text text-anchor="start" x="230" y="-446.5" font-family="Georgia" font-size="15.00" fill="#00008b">loc_449A :</text>
<text text-anchor="start" x="230" y="-425.8" font-family="Monospace" font-size="14.00"> &#160;&#160;&#160;mov &#160;&#160;&#160;&#160;&#160;&#160;&#160;&#160;R00, &#160;&#160;&#160;&#160;&#160;&#160;&#160;&#160;10</text>
<polygon fill="deepskyblue" stroke="deepskyblue" points="228,-400 228,-418 489,-418 489,-400 228,-400"/>
<text text-anchor="start" x="230" y="-405.8" font-family="Monospace" font-size="14.00"> &#160;&#160;&#160;call &#160;&#160;&#160;&#160;&#160;&#160;getBits</text>
<text text-anchor="start" x="230" y="-385.8" font-family="Monospace" font-size="14.00"> &#160;&#160;&#160;mov &#160;&#160;&#160;&#160;w[curAddr], &#160;&#160;&#160;&#160;&#160;&#160;&#160;R00</text>
<polygon fill="yellow" stroke="yellow" points="228,-360 228,-378 489,-378 489,-360 228,-360"/>
<text text-anchor="start" x="230" y="-365.8" font-family="Monospace" font-size="14.00"> &#160;&#160;&#160;jmp &#160;&#160;&#160;&#160;&#160;&#160;&#160;4446</text>
</g>
<!-- _4430&#45;&gt;_449A -->
<g id="edge26" class="edge"><title>_4430&#45;&gt;_449A</title>
<path fill="none" stroke="green" d="M492.437,-1215.85C500.987,-1066.25 519.091,-655.724 469,-532 461.656,-513.86 450.268,-496.747 437.533,-481.415"/>
<polygon fill="green" stroke="green" points="442.423,-476.382 423.888,-466.114 431.975,-485.7 442.423,-476.382"/>
</g>
<!-- _443E -->
<g id="node30" class="node"><title>_443E</title>
<polygon fill="lightblue" stroke="lightblue" points="759,-1180 591,-1180 591,-1128 759,-1128 759,-1180"/>
<polygon fill="lightblue" stroke="lightblue" points="599,-1132 599,-1176 751,-1176 751,-1132 599,-1132"/>
<text text-anchor="start" x="603" y="-1160.5" font-family="Georgia" font-size="15.00" fill="#00008b">loc_443E :</text>
<polygon fill="yellow" stroke="yellow" points="601,-1134 601,-1152 749,-1152 749,-1134 601,-1134"/>
<text text-anchor="start" x="603" y="-1139.8" font-family="Monospace" font-size="14.00" fill="red"> &#160;&#160;&#160;jb &#160;&#160;&#160;&#160;&#160;&#160;&#160;&#160;4482</text>
</g>
<!-- _4430&#45;&gt;_443E -->
<g id="edge28" class="edge"><title>_4430&#45;&gt;_443E</title>
<path fill="none" stroke="red" d="M577.37,-1215.89C591.004,-1207.38 604.77,-1198.8 617.494,-1190.86"/>
<polygon fill="red" stroke="red" points="621.399,-1196.68 634.665,-1180.16 613.99,-1184.8 621.399,-1196.68"/>
</g>
<!-- _449A&#45;&gt;_4446 -->
<g id="edge44" class="edge"><title>_449A&#45;&gt;_4446</title>
<path fill="none" stroke="blue" d="M411.009,-353.795C426.582,-337.577 443.82,-319.625 460.139,-302.63"/>
<polygon fill="blue" stroke="blue" points="465.376,-307.283 474.179,-288.009 455.278,-297.587 465.376,-307.283"/>
</g>
<!-- _443E&#45;&gt;_4440 -->
<g id="edge48" class="edge"><title>_443E&#45;&gt;_4440</title>
<path fill="none" stroke="red" d="M675,-1127.9C675,-1109.89 675,-1084.92 675,-1062.34"/>
<polygon fill="red" stroke="red" points="682,-1062.14 675,-1042.14 668,-1062.14 682,-1062.14"/>
</g>
<!-- _443E&#45;&gt;_4482 -->
<g id="edge46" class="edge"><title>_443E&#45;&gt;_4482</title>
<path fill="none" stroke="green" d="M759.246,-1130.4C779.358,-1121.4 799.021,-1108.99 813,-1092 873.212,-1018.81 849.491,-978.191 860,-884 877.348,-728.52 926.548,-673.585 860,-532 856.505,-524.563 852.303,-517.426 847.565,-510.601"/>
<polygon fill="green" stroke="green" points="853.034,-506.231 835.209,-494.774 841.999,-514.847 853.034,-506.231"/>
</g>
<!-- _43C4 -->
<g id="node36" class="node"><title>_43C4</title>
<polygon fill="lightblue" stroke="lightblue" points="681,-1792 415,-1792 415,-1600 681,-1600 681,-1792"/>
<polygon fill="lightblue" stroke="lightblue" points="423,-1604 423,-1788 673,-1788 673,-1604 423,-1604"/>
<text text-anchor="start" x="427" y="-1772.5" font-family="Georgia" font-size="15.00" fill="#00008b">getOperand (43C4) :</text>
<text text-anchor="start" x="427" y="-1751.8" font-family="Monospace" font-size="14.00"> &#160;&#160;&#160;mov &#160;&#160;&#160;&#160;&#160;&#160;&#160;&#160;R00, &#160;&#160;&#160;&#160;&#160;&#160;&#160;&#160;&#160;1</text>
<polygon fill="deepskyblue" stroke="deepskyblue" points="425,-1726 425,-1744 671,-1744 671,-1726 425,-1726"/>
<text text-anchor="start" x="427" y="-1731.8" font-family="Monospace" font-size="14.00"> &#160;&#160;&#160;call &#160;&#160;&#160;&#160;&#160;&#160;getBits</text>
<text text-anchor="start" x="427" y="-1711.8" font-family="Monospace" font-size="14.00"> &#160;&#160;&#160;mov &#160;&#160;&#160;&#160;w[is16b], &#160;&#160;&#160;&#160;&#160;&#160;&#160;R00</text>
<text text-anchor="start" x="427" y="-1691.8" font-family="Monospace" font-size="14.00"> &#160;&#160;&#160;mov &#160;&#160;&#160;&#160;&#160;&#160;&#160;&#160;R00, &#160;&#160;&#160;&#160;&#160;&#160;&#160;&#160;&#160;2</text>
<polygon fill="deepskyblue" stroke="deepskyblue" points="425,-1666 425,-1684 671,-1684 671,-1666 425,-1666"/>
<text text-anchor="start" x="427" y="-1671.8" font-family="Monospace" font-size="14.00"> &#160;&#160;&#160;call &#160;&#160;&#160;&#160;&#160;&#160;getBits</text>
<text text-anchor="start" x="427" y="-1651.8" font-family="Monospace" font-size="14.00"> &#160;&#160;&#160;mov &#160;&#160;&#160;&#160;w[RM], &#160;&#160;&#160;&#160;&#160;&#160;&#160;R00</text>
<text text-anchor="start" x="427" y="-1631.8" font-family="Monospace" font-size="14.00"> &#160;&#160;&#160;cmp &#160;&#160;&#160;&#160;&#160;&#160;&#160;&#160;R00, &#160;&#160;&#160;&#160;&#160;&#160;&#160;&#160;&#160;1</text>
<polygon fill="yellow" stroke="yellow" points="425,-1606 425,-1624 671,-1624 671,-1606 425,-1606"/>
<text text-anchor="start" x="427" y="-1611.8" font-family="Monospace" font-size="14.00" fill="red"> &#160;&#160;&#160;jz &#160;&#160;&#160;&#160;&#160;&#160;&#160;&#160;44C2</text>
</g>
<!-- _43C4&#45;&gt;_44C2 -->
<g id="edge40" class="edge"><title>_43C4&#45;&gt;_44C2</title>
<path fill="none" stroke="green" d="M628.605,-1599.79C634.305,-1593.06 639.957,-1586.38 645.426,-1579.92"/>
<polygon fill="green" stroke="green" points="650.988,-1584.18 658.568,-1564.4 640.303,-1575.14 650.988,-1584.18"/>
</g>
<!-- _43C4&#45;&gt;_43E4 -->
<g id="edge42" class="edge"><title>_43C4&#45;&gt;_43E4</title>
<path fill="none" stroke="red" d="M467.395,-1599.79C455.421,-1585.64 443.659,-1571.75 433.357,-1559.58"/>
<polygon fill="red" stroke="red" points="438.596,-1554.94 420.331,-1544.2 427.911,-1563.98 438.596,-1554.94"/>
</g>
</g>
</svg>
