<?xml version="1.0" encoding="UTF-8" standalone="no"?>
<!DOCTYPE svg PUBLIC "-//W3C//DTD SVG 1.1//EN"
 "http://www.w3.org/Graphics/SVG/1.1/DTD/svg11.dtd">
<!-- Generated by graphviz version 2.28.0 (20110507.0327)
 -->
<!-- Title: G_4848 Pages: 1 -->
<svg width="379pt" height="1112pt"
 viewBox="0.00 0.00 379.00 1112.00" xmlns="http://www.w3.org/2000/svg" xmlns:xlink="http://www.w3.org/1999/xlink">
<g id="graph1" class="graph" transform="scale(1 1) rotate(0) translate(4 1108)">
<title>G_4848</title>
<polygon fill="white" stroke="white" points="-4,5 -4,-1108 376,-1108 376,5 -4,5"/>
<!-- _4848 -->
<g id="node1" class="node"><title>_4848</title>
<polygon fill="lightblue" stroke="lightblue" points="364.25,-1104 83.75,-1104 83.75,-812 364.25,-812 364.25,-1104"/>
<polygon fill="lightblue" stroke="lightblue" points="91.5,-816 91.5,-1100 356.5,-1100 356.5,-816 91.5,-816"/>
<text text-anchor="start" x="96" y="-1084.5" font-family="Georgia" font-size="15.00" fill="#00008b">hash_get (4848) :</text>
<text text-anchor="start" x="96" y="-1063.8" font-family="Monospace" font-size="14.00"> &#160;&#160;&#160;addi &#160;&#160;&#160;&#160;&#160;&#160;&#160;R03, &#160;&#160;&#160;&#160;&#160;&#160;&#160;&#160;&#160;1</text>
<text text-anchor="start" x="96" y="-1043.8" font-family="Monospace" font-size="14.00"> &#160;&#160;&#160;shl &#160;&#160;&#160;&#160;&#160;&#160;&#160;&#160;R03, &#160;&#160;&#160;&#160;&#160;&#160;&#160;&#160;&#160;1</text>
<text text-anchor="start" x="96" y="-1023.8" font-family="Monospace" font-size="14.00"> &#160;&#160;&#160;pushad</text>
<text text-anchor="start" x="96" y="-1003.8" font-family="Monospace" font-size="14.00"> &#160;&#160;&#160;mov &#160;&#160;&#160;&#160;&#160;&#160;&#160;&#160;R05, &#160;&#160;&#160;&#160;&#160;&#160;&#160;R02</text>
<text text-anchor="start" x="96" y="-983.8" font-family="Monospace" font-size="14.00"> &#160;&#160;&#160;shl &#160;&#160;&#160;&#160;&#160;&#160;&#160;&#160;R05, &#160;&#160;&#160;&#160;&#160;&#160;&#160;&#160;&#160;6</text>
<text text-anchor="start" x="96" y="-963.8" font-family="Monospace" font-size="14.00"> &#160;&#160;&#160;add &#160;&#160;&#160;&#160;&#160;&#160;&#160;&#160;R05, &#160;&#160;&#160;&#160;&#160;&#160;&#160;R02</text>
<text text-anchor="start" x="96" y="-943.8" font-family="Monospace" font-size="14.00"> &#160;&#160;&#160;shl &#160;&#160;&#160;&#160;&#160;&#160;&#160;&#160;R05, &#160;&#160;&#160;&#160;&#160;&#160;&#160;&#160;&#160;4</text>
<text text-anchor="start" x="96" y="-923.8" font-family="Monospace" font-size="14.00"> &#160;&#160;&#160;add &#160;&#160;&#160;&#160;&#160;&#160;&#160;&#160;R05, &#160;&#160;&#160;&#160;&#160;&#160;&#160;R02</text>
<text text-anchor="start" x="96" y="-903.8" font-family="Monospace" font-size="14.00"> &#160;&#160;&#160;xor &#160;&#160;&#160;&#160;&#160;&#160;&#160;&#160;R05, &#160;&#160;&#160;&#160;&#160;&#160;464D</text>
<text text-anchor="start" x="96" y="-883.8" font-family="Monospace" font-size="14.00"> &#160;&#160;&#160;mov &#160;&#160;&#160;&#160;&#160;&#160;&#160;&#160;R02, &#160;&#160;&#160;&#160;&#160;&#160;&#160;R00</text>
<text text-anchor="start" x="96" y="-863.8" font-family="Monospace" font-size="14.00"> &#160;&#160;&#160;xor &#160;&#160;&#160;&#160;&#160;&#160;&#160;&#160;R02, &#160;&#160;&#160;&#160;&#160;&#160;6C38</text>
<text text-anchor="start" x="96" y="-843.8" font-family="Monospace" font-size="14.00"> &#160;&#160;&#160;add &#160;&#160;&#160;&#160;&#160;&#160;&#160;&#160;R00, &#160;&#160;&#160;&#160;&#160;&#160;&#160;R01</text>
<text text-anchor="start" x="96" y="-823.8" font-family="Monospace" font-size="14.00"> &#160;&#160;&#160;addi &#160;&#160;&#160;&#160;&#160;&#160;&#160;R01, &#160;&#160;&#160;&#160;&#160;&#160;&#160;&#160;&#160;2</text>
</g>
<!-- _4866 -->
<g id="node3" class="node"><title>_4866</title>
<polygon fill="lightblue" stroke="lightblue" points="353,-776 95,-776 95,-464 353,-464 353,-776"/>
<polygon fill="lightblue" stroke="lightblue" points="103,-468 103,-772 345,-772 345,-468 103,-468"/>
<text text-anchor="start" x="107" y="-756.5" font-family="Georgia" font-size="15.00" fill="#00008b">loc_4866 :</text>
<text text-anchor="start" x="107" y="-735.8" font-family="Monospace" font-size="14.00"> &#160;&#160;&#160;mov &#160;&#160;&#160;&#160;&#160;&#160;&#160;&#160;R07, &#160;&#160;&#160;&#160;&#160;&#160;&#160;R06</text>
<text text-anchor="start" x="107" y="-715.8" font-family="Monospace" font-size="14.00"> &#160;&#160;&#160;rol &#160;&#160;&#160;&#160;&#160;&#160;&#160;&#160;R05, &#160;&#160;&#160;&#160;&#160;&#160;&#160;&#160;&#160;1</text>
<text text-anchor="start" x="107" y="-695.8" font-family="Monospace" font-size="14.00"> &#160;&#160;&#160;ror &#160;&#160;&#160;&#160;&#160;&#160;&#160;&#160;R02, &#160;&#160;&#160;&#160;&#160;&#160;&#160;&#160;&#160;2</text>
<text text-anchor="start" x="107" y="-675.8" font-family="Monospace" font-size="14.00"> &#160;&#160;&#160;add &#160;&#160;&#160;&#160;&#160;&#160;&#160;&#160;R02, &#160;&#160;&#160;&#160;&#160;&#160;&#160;R05</text>
<text text-anchor="start" x="107" y="-655.8" font-family="Monospace" font-size="14.00"> &#160;&#160;&#160;addi &#160;&#160;&#160;&#160;&#160;&#160;&#160;R05, &#160;&#160;&#160;&#160;&#160;&#160;&#160;&#160;&#160;2</text>
<text text-anchor="start" x="107" y="-635.8" font-family="Monospace" font-size="14.00"> &#160;&#160;&#160;mov &#160;&#160;&#160;&#160;&#160;&#160;&#160;&#160;R06, &#160;&#160;&#160;&#160;&#160;&#160;&#160;R02</text>
<text text-anchor="start" x="107" y="-615.8" font-family="Monospace" font-size="14.00"> &#160;&#160;&#160;xor &#160;&#160;&#160;&#160;&#160;&#160;&#160;&#160;R06, &#160;&#160;&#160;&#160;&#160;&#160;&#160;R05</text>
<text text-anchor="start" x="107" y="-595.8" font-family="Monospace" font-size="14.00"> &#160;&#160;&#160;mov &#160;&#160;&#160;&#160;&#160;&#160;&#160;&#160;R08, &#160;&#160;&#160;&#160;&#160;&#160;&#160;R06</text>
<text text-anchor="start" x="107" y="-575.8" font-family="Monospace" font-size="14.00"> &#160;&#160;&#160;shr &#160;&#160;&#160;&#160;&#160;&#160;&#160;&#160;R08, &#160;&#160;&#160;&#160;&#160;&#160;&#160;&#160;&#160;8</text>
<text text-anchor="start" x="107" y="-555.8" font-family="Monospace" font-size="14.00"> &#160;&#160;&#160;and &#160;&#160;&#160;&#160;&#160;&#160;&#160;&#160;R08, &#160;&#160;&#160;&#160;&#160;&#160;&#160;&#160;FF</text>
<text text-anchor="start" x="107" y="-535.8" font-family="Monospace" font-size="14.00"> &#160;&#160;&#160;and &#160;&#160;&#160;&#160;&#160;&#160;&#160;&#160;R06, &#160;&#160;&#160;&#160;&#160;&#160;&#160;&#160;FF</text>
<text text-anchor="start" x="107" y="-515.8" font-family="Monospace" font-size="14.00"> &#160;&#160;&#160;xor &#160;&#160;&#160;&#160;&#160;&#160;&#160;&#160;R06, &#160;&#160;&#160;&#160;&#160;&#160;&#160;R08</text>
<text text-anchor="start" x="107" y="-495.8" font-family="Monospace" font-size="14.00"> &#160;&#160;&#160;subi &#160;&#160;&#160;&#160;&#160;&#160;&#160;R01, &#160;&#160;&#160;&#160;&#160;&#160;&#160;&#160;&#160;1</text>
<polygon fill="yellow" stroke="yellow" points="105,-470 105,-488 343,-488 343,-470 105,-470"/>
<text text-anchor="start" x="107" y="-475.8" font-family="Monospace" font-size="14.00" fill="red"> &#160;&#160;&#160;jnz &#160;&#160;&#160;&#160;&#160;&#160;&#160;4866</text>
</g>
<!-- _4848&#45;&gt;_4866 -->
<g id="edge2" class="edge"><title>_4848&#45;&gt;_4866</title>
<path fill="none" stroke="blue" d="M224,-811.58C224,-806.55 224,-801.493 224,-796.426"/>
<polygon fill="blue" stroke="blue" points="231,-796.249 224,-776.249 217,-796.249 231,-796.249"/>
</g>
<!-- _4866&#45;&gt;_4866 -->
<g id="edge10" class="edge"><title>_4866&#45;&gt;_4866</title>
<path fill="none" stroke="green" d="M353.011,-663.598C364.085,-654.322 371,-639.789 371,-620 371,-609.178 368.932,-599.928 365.247,-592.25"/>
<polygon fill="green" stroke="green" points="370.775,-587.955 353.011,-576.402 359.693,-596.511 370.775,-587.955"/>
</g>
<!-- _4886 -->
<g id="node7" class="node"><title>_4886</title>
<polygon fill="lightblue" stroke="lightblue" points="353,-428 95,-428 95,-216 353,-216 353,-428"/>
<polygon fill="lightblue" stroke="lightblue" points="103,-220 103,-424 345,-424 345,-220 103,-220"/>
<text text-anchor="start" x="107" y="-408.5" font-family="Georgia" font-size="15.00" fill="#00008b">loc_4886 :</text>
<text text-anchor="start" x="107" y="-387.8" font-family="Monospace" font-size="14.00"> &#160;&#160;&#160;shl &#160;&#160;&#160;&#160;&#160;&#160;&#160;&#160;R06, &#160;&#160;&#160;&#160;&#160;&#160;&#160;&#160;&#160;8</text>
<text text-anchor="start" x="107" y="-367.8" font-family="Monospace" font-size="14.00"> &#160;&#160;&#160;or &#160;&#160;&#160;&#160;&#160;&#160;&#160;&#160;&#160;R06, &#160;&#160;&#160;&#160;&#160;&#160;&#160;R07</text>
<text text-anchor="start" x="107" y="-347.8" font-family="Monospace" font-size="14.00"> &#160;&#160;&#160;mov &#160;&#160;&#160;&#160;&#160;&#160;&#160;&#160;R01, &#160;&#160;&#160;&#160;&#160;&#160;&#160;R03</text>
<text text-anchor="start" x="107" y="-327.8" font-family="Monospace" font-size="14.00"> &#160;&#160;&#160;mov &#160;&#160;&#160;&#160;&#160;&#160;&#160;&#160;R02, &#160;&#160;&#160;&#160;&#160;&#160;&#160;R04</text>
<text text-anchor="start" x="107" y="-307.8" font-family="Monospace" font-size="14.00"> &#160;&#160;&#160;xor &#160;&#160;&#160;&#160;&#160;&#160;&#160;&#160;R02, &#160;&#160;&#160;&#160;&#160;&#160;&#160;R06</text>
<polygon fill="deepskyblue" stroke="deepskyblue" points="105,-282 105,-300 343,-300 343,-282 105,-282"/>
<text text-anchor="start" x="107" y="-287.8" font-family="Monospace" font-size="14.00"> &#160;&#160;&#160;call &#160;&#160;&#160;&#160;&#160;&#160;setOutputByte</text>
<text text-anchor="start" x="107" y="-267.8" font-family="Monospace" font-size="14.00"> &#160;&#160;&#160;xor &#160;&#160;&#160;&#160;&#160;&#160;&#160;&#160;R00, &#160;&#160;&#160;&#160;&#160;&#160;&#160;R06</text>
<text text-anchor="start" x="107" y="-247.8" font-family="Monospace" font-size="14.00"> &#160;&#160;&#160;and &#160;&#160;&#160;&#160;&#160;&#160;&#160;&#160;R03, &#160;&#160;&#160;&#160;&#160;&#160;&#160;&#160;&#160;4</text>
<polygon fill="yellow" stroke="yellow" points="105,-222 105,-240 343,-240 343,-222 105,-222"/>
<text text-anchor="start" x="107" y="-227.8" font-family="Monospace" font-size="14.00" fill="red"> &#160;&#160;&#160;jnz &#160;&#160;&#160;&#160;&#160;&#160;&#160;48A0</text>
</g>
<!-- _4866&#45;&gt;_4886 -->
<g id="edge12" class="edge"><title>_4866&#45;&gt;_4886</title>
<path fill="none" stroke="red" d="M224,-463.632C224,-458.474 224,-453.328 224,-448.219"/>
<polygon fill="red" stroke="red" points="231,-448.132 224,-428.132 217,-448.132 231,-448.132"/>
</g>
<!-- _489C -->
<g id="node4" class="node"><title>_489C</title>
<polygon fill="lightblue" stroke="lightblue" points="280.25,-180 -0.25,-180 -0.25,-128 280.25,-128 280.25,-180"/>
<polygon fill="lightblue" stroke="lightblue" points="7.5,-132 7.5,-176 272.5,-176 272.5,-132 7.5,-132"/>
<text text-anchor="start" x="12" y="-160.5" font-family="Georgia" font-size="15.00" fill="#00008b">loc_489C :</text>
<text text-anchor="start" x="12" y="-139.8" font-family="Monospace" font-size="14.00"> &#160;&#160;&#160;and &#160;&#160;&#160;&#160;&#160;&#160;&#160;&#160;R00, &#160;&#160;&#160;&#160;&#160;&#160;&#160;&#160;FF</text>
</g>
<!-- _48A0 -->
<g id="node6" class="node"><title>_48A0</title>
<polygon fill="lightblue" stroke="lightblue" points="353,-92 95,-92 95,-0 353,-0 353,-92"/>
<polygon fill="lightblue" stroke="lightblue" points="103,-4 103,-88 345,-88 345,-4 103,-4"/>
<text text-anchor="start" x="107" y="-72.5" font-family="Georgia" font-size="15.00" fill="#00008b">loc_48A0 :</text>
<text text-anchor="start" x="107" y="-51.8" font-family="Monospace" font-size="14.00"> &#160;&#160;&#160;mov &#160;&#160;w[R15+1C], &#160;&#160;&#160;&#160;&#160;&#160;&#160;R00</text>
<text text-anchor="start" x="107" y="-31.8" font-family="Monospace" font-size="14.00"> &#160;&#160;&#160;popad</text>
<polygon fill="lightseagreen" stroke="lightseagreen" points="105,-6 105,-24 343,-24 343,-6 105,-6"/>
<text text-anchor="start" x="107" y="-11.8" font-family="Monospace" font-size="14.00"> &#160;&#160;&#160;ret &#160;</text>
</g>
<!-- _489C&#45;&gt;_48A0 -->
<g id="edge4" class="edge"><title>_489C&#45;&gt;_48A0</title>
<path fill="none" stroke="blue" d="M159.907,-127.879C164.721,-121.804 170.077,-115.046 175.584,-108.097"/>
<polygon fill="blue" stroke="blue" points="181.184,-112.3 188.119,-92.2778 170.212,-103.605 181.184,-112.3"/>
</g>
<!-- _4886&#45;&gt;_489C -->
<g id="edge8" class="edge"><title>_4886&#45;&gt;_489C</title>
<path fill="none" stroke="red" d="M170.802,-215.87C167.658,-209.657 164.604,-203.622 161.718,-197.919"/>
<polygon fill="red" stroke="red" points="167.944,-194.719 152.668,-180.034 155.452,-201.04 167.944,-194.719"/>
</g>
<!-- _4886&#45;&gt;_48A0 -->
<g id="edge6" class="edge"><title>_4886&#45;&gt;_48A0</title>
<path fill="none" stroke="green" d="M285.52,-215.903C295.129,-187.334 298.998,-156.435 289,-128 286.687,-121.422 283.59,-114.983 279.997,-108.791"/>
<polygon fill="green" stroke="green" points="285.752,-104.804 268.805,-92.085 274.121,-112.597 285.752,-104.804"/>
</g>
</g>
</svg>
