<?xml version="1.0" encoding="UTF-8" standalone="no"?>
<!DOCTYPE svg PUBLIC "-//W3C//DTD SVG 1.1//EN"
 "http://www.w3.org/Graphics/SVG/1.1/DTD/svg11.dtd">
<!-- Generated by graphviz version 2.28.0 (20110507.0327)
 -->
<!-- Title: G_4814 Pages: 1 -->
<svg width="637pt" height="720pt"
 viewBox="0.00 0.00 637.45 720.00" xmlns="http://www.w3.org/2000/svg" xmlns:xlink="http://www.w3.org/1999/xlink">
<g id="graph1" class="graph" transform="scale(1 1) rotate(0) translate(4 716)">
<title>G_4814</title>
<polygon fill="white" stroke="white" points="-4,5 -4,-716 634.449,-716 634.449,5 -4,5"/>
<!-- _4822 -->
<g id="node1" class="node"><title>_4822</title>
<polygon fill="lightblue" stroke="lightblue" points="451.699,-544 171.199,-544 171.199,-452 451.699,-452 451.699,-544"/>
<polygon fill="lightblue" stroke="lightblue" points="178.949,-456 178.949,-540 443.949,-540 443.949,-456 178.949,-456"/>
<text text-anchor="start" x="183.449" y="-524.5" font-family="Georgia" font-size="15.00" fill="#00008b">loc_4822 :</text>
<text text-anchor="start" x="183.449" y="-503.8" font-family="Monospace" font-size="14.00"> &#160;&#160;&#160;mov &#160;&#160;&#160;&#160;&#160;&#160;&#160;&#160;R12, &#160;&#160;&#160;&#160;&#160;&#160;&#160;R14</text>
<text text-anchor="start" x="183.449" y="-483.8" font-family="Monospace" font-size="14.00"> &#160;&#160;&#160;and &#160;&#160;&#160;&#160;&#160;&#160;&#160;&#160;R12, &#160;&#160;&#160;&#160;&#160;&#160;&#160;&#160;&#160;2</text>
<polygon fill="yellow" stroke="yellow" points="181.449,-458 181.449,-476 442.449,-476 442.449,-458 181.449,-458"/>
<text text-anchor="start" x="183.449" y="-463.8" font-family="Monospace" font-size="14.00" fill="red"> &#160;&#160;&#160;jnz &#160;&#160;&#160;&#160;&#160;&#160;&#160;4844</text>
</g>
<!-- _4844 -->
<g id="node3" class="node"><title>_4844</title>
<polygon fill="lightblue" stroke="lightblue" points="360.449,-72 260.449,-72 260.449,-0 360.449,-0 360.449,-72"/>
<polygon fill="lightblue" stroke="lightblue" points="268.449,-4 268.449,-68 352.449,-68 352.449,-4 268.449,-4"/>
<text text-anchor="start" x="272.449" y="-52.5" font-family="Georgia" font-size="15.00" fill="#00008b">loc_4844 :</text>
<text text-anchor="start" x="272.449" y="-31.8" font-family="Monospace" font-size="14.00"> &#160;&#160;&#160;popad</text>
<polygon fill="lightseagreen" stroke="lightseagreen" points="270.449,-6 270.449,-24 350.449,-24 350.449,-6 270.449,-6"/>
<text text-anchor="start" x="272.449" y="-11.8" font-family="Monospace" font-size="14.00"> &#160;&#160;&#160;ret &#160;</text>
</g>
<!-- _4822&#45;&gt;_4844 -->
<g id="edge2" class="edge"><title>_4822&#45;&gt;_4844</title>
<path fill="none" stroke="green" d="M196.671,-451.966C91.9492,-403.342 -39.3325,-318.863 11.4492,-216 55.7313,-126.302 167.537,-77.8017 241.173,-54.6991"/>
<polygon fill="green" stroke="green" points="243.216,-61.3946 260.383,-48.973 239.217,-47.978 243.216,-61.3946"/>
</g>
<!-- _482A -->
<g id="node5" class="node"><title>_482A</title>
<polygon fill="lightblue" stroke="lightblue" points="460.449,-416 162.449,-416 162.449,-324 460.449,-324 460.449,-416"/>
<polygon fill="lightblue" stroke="lightblue" points="170.449,-328 170.449,-412 452.449,-412 452.449,-328 170.449,-328"/>
<text text-anchor="start" x="174.449" y="-396.5" font-family="Georgia" font-size="15.00" fill="#00008b">loc_482A :</text>
<text text-anchor="start" x="174.449" y="-375.8" font-family="Monospace" font-size="14.00"> &#160;&#160;&#160;mov &#160;&#160;&#160;&#160;&#160;&#160;&#160;&#160;R12, &#160;&#160;&#160;w[vFlags]</text>
<text text-anchor="start" x="174.449" y="-355.8" font-family="Monospace" font-size="14.00"> &#160;&#160;&#160;and &#160;&#160;&#160;&#160;&#160;&#160;&#160;&#160;R14, &#160;&#160;&#160;&#160;&#160;&#160;&#160;R14</text>
<polygon fill="yellow" stroke="yellow" points="172.449,-330 172.449,-348 450.449,-348 450.449,-330 172.449,-330"/>
<text text-anchor="start" x="174.449" y="-335.8" font-family="Monospace" font-size="14.00" fill="red"> &#160;&#160;&#160;jz &#160;&#160;&#160;&#160;&#160;&#160;&#160;&#160;4838</text>
</g>
<!-- _4822&#45;&gt;_482A -->
<g id="edge4" class="edge"><title>_4822&#45;&gt;_482A</title>
<path fill="none" stroke="red" d="M311.449,-451.867C311.449,-446.8 311.449,-441.566 311.449,-436.31"/>
<polygon fill="red" stroke="red" points="318.449,-436.241 311.449,-416.241 304.449,-436.241 318.449,-436.241"/>
</g>
<!-- _4838 -->
<g id="node7" class="node"><title>_4838</title>
<polygon fill="lightblue" stroke="lightblue" points="301.699,-288 21.1992,-288 21.1992,-216 301.699,-216 301.699,-288"/>
<polygon fill="lightblue" stroke="lightblue" points="28.9492,-220 28.9492,-284 293.949,-284 293.949,-220 28.9492,-220"/>
<text text-anchor="start" x="33.4492" y="-268.5" font-family="Georgia" font-size="15.00" fill="#00008b">loc_4838 :</text>
<text text-anchor="start" x="33.4492" y="-247.8" font-family="Monospace" font-size="14.00"> &#160;&#160;&#160;shl &#160;&#160;&#160;&#160;&#160;&#160;&#160;&#160;R00, &#160;&#160;&#160;&#160;&#160;&#160;&#160;&#160;&#160;4</text>
<text text-anchor="start" x="33.4492" y="-227.8" font-family="Monospace" font-size="14.00"> &#160;&#160;&#160;and &#160;&#160;&#160;&#160;&#160;&#160;&#160;&#160;R12, &#160;&#160;&#160;&#160;&#160;&#160;&#160;&#160;&#160;F</text>
</g>
<!-- _482A&#45;&gt;_4838 -->
<g id="edge6" class="edge"><title>_482A&#45;&gt;_4838</title>
<path fill="none" stroke="green" d="M253.026,-323.819C243.104,-316.147 232.776,-308.159 222.782,-300.431"/>
<polygon fill="green" stroke="green" points="227.044,-294.878 206.941,-288.18 218.48,-305.953 227.044,-294.878"/>
</g>
<!-- _4832 -->
<g id="node9" class="node"><title>_4832</title>
<polygon fill="lightblue" stroke="lightblue" points="600.699,-288 320.199,-288 320.199,-216 600.699,-216 600.699,-288"/>
<polygon fill="lightblue" stroke="lightblue" points="327.949,-220 327.949,-284 592.949,-284 592.949,-220 327.949,-220"/>
<text text-anchor="start" x="332.449" y="-268.5" font-family="Georgia" font-size="15.00" fill="#00008b">loc_4832 :</text>
<text text-anchor="start" x="332.449" y="-247.8" font-family="Monospace" font-size="14.00"> &#160;&#160;&#160;and &#160;&#160;&#160;&#160;&#160;&#160;&#160;&#160;R12, &#160;&#160;&#160;&#160;&#160;&#160;&#160;&#160;F0</text>
<polygon fill="yellow" stroke="yellow" points="330.449,-222 330.449,-240 591.449,-240 591.449,-222 330.449,-222"/>
<text text-anchor="start" x="332.449" y="-227.8" font-family="Monospace" font-size="14.00"> &#160;&#160;&#160;jmp &#160;&#160;&#160;&#160;&#160;&#160;&#160;483E</text>
</g>
<!-- _482A&#45;&gt;_4832 -->
<g id="edge8" class="edge"><title>_482A&#45;&gt;_4832</title>
<path fill="none" stroke="red" d="M369.483,-323.819C379.22,-316.239 389.351,-308.351 399.167,-300.71"/>
<polygon fill="red" stroke="red" points="403.78,-305.99 415.261,-288.18 395.179,-294.943 403.78,-305.99"/>
</g>
<!-- _483E -->
<g id="node11" class="node"><title>_483E</title>
<polygon fill="lightblue" stroke="lightblue" points="459.449,-180 161.449,-180 161.449,-108 459.449,-108 459.449,-180"/>
<polygon fill="lightblue" stroke="lightblue" points="169.449,-112 169.449,-176 451.449,-176 451.449,-112 169.449,-112"/>
<text text-anchor="start" x="173.449" y="-160.5" font-family="Georgia" font-size="15.00" fill="#00008b">loc_483E :</text>
<text text-anchor="start" x="173.449" y="-139.8" font-family="Monospace" font-size="14.00"> &#160;&#160;&#160;or &#160;&#160;&#160;&#160;&#160;&#160;&#160;&#160;&#160;R12, &#160;&#160;&#160;&#160;&#160;&#160;&#160;R00</text>
<text text-anchor="start" x="173.449" y="-119.8" font-family="Monospace" font-size="14.00"> &#160;&#160;&#160;mov &#160;&#160;&#160;&#160;w[vFlags], &#160;&#160;&#160;&#160;&#160;&#160;&#160;R12</text>
</g>
<!-- _4838&#45;&gt;_483E -->
<g id="edge16" class="edge"><title>_4838&#45;&gt;_483E</title>
<path fill="none" stroke="blue" d="M210.65,-215.998C221.528,-208.259 233.223,-199.94 244.641,-191.817"/>
<polygon fill="blue" stroke="blue" points="248.806,-197.444 261.045,-180.146 240.691,-186.036 248.806,-197.444"/>
</g>
<!-- _4832&#45;&gt;_483E -->
<g id="edge10" class="edge"><title>_4832&#45;&gt;_483E</title>
<path fill="none" stroke="blue" d="M410.918,-215.998C399.967,-208.259 388.194,-199.94 376.699,-191.817"/>
<polygon fill="blue" stroke="blue" points="380.558,-185.972 360.185,-180.146 372.478,-197.405 380.558,-185.972"/>
</g>
<!-- _483E&#45;&gt;_4844 -->
<g id="edge18" class="edge"><title>_483E&#45;&gt;_4844</title>
<path fill="none" stroke="blue" d="M310.449,-107.998C310.449,-102.985 310.449,-97.7287 310.449,-92.4397"/>
<polygon fill="blue" stroke="blue" points="317.449,-92.3275 310.449,-72.3275 303.449,-92.3276 317.449,-92.3275"/>
</g>
<!-- _4814 -->
<g id="node12" class="node"><title>_4814</title>
<polygon fill="lightblue" stroke="lightblue" points="508.449,-712 290.449,-712 290.449,-580 508.449,-580 508.449,-712"/>
<polygon fill="lightblue" stroke="lightblue" points="298.449,-584 298.449,-708 500.449,-708 500.449,-584 298.449,-584"/>
<text text-anchor="start" x="302.449" y="-692.5" font-family="Georgia" font-size="15.00" fill="#00008b">UpdateFlags (4814) :</text>
<text text-anchor="start" x="302.449" y="-671.8" font-family="Monospace" font-size="14.00"> &#160;&#160;&#160;pushad</text>
<text text-anchor="start" x="302.449" y="-651.8" font-family="Monospace" font-size="14.00"> &#160;&#160;&#160;mov &#160;&#160;&#160;&#160;&#160;&#160;&#160;&#160;R00, &#160;&#160;&#160;w[flags]</text>
<text text-anchor="start" x="302.449" y="-631.8" font-family="Monospace" font-size="14.00"> &#160;&#160;&#160;and &#160;&#160;&#160;&#160;&#160;&#160;&#160;&#160;R00, &#160;&#160;&#160;&#160;&#160;&#160;&#160;&#160;&#160;F</text>
<text text-anchor="start" x="302.449" y="-611.8" font-family="Monospace" font-size="14.00"> &#160;&#160;&#160;and &#160;&#160;&#160;&#160;&#160;&#160;&#160;&#160;R06, &#160;&#160;&#160;&#160;&#160;&#160;&#160;R06</text>
<polygon fill="yellow" stroke="yellow" points="300.449,-586 300.449,-604 498.449,-604 498.449,-586 300.449,-586"/>
<text text-anchor="start" x="302.449" y="-591.8" font-family="Monospace" font-size="14.00" fill="red"> &#160;&#160;&#160;jz &#160;&#160;&#160;&#160;&#160;&#160;&#160;&#160;4844</text>
</g>
<!-- _4814&#45;&gt;_4822 -->
<g id="edge14" class="edge"><title>_4814&#45;&gt;_4822</title>
<path fill="none" stroke="red" d="M360.082,-579.687C356.41,-573.595 352.695,-567.431 349.04,-561.367"/>
<polygon fill="red" stroke="red" points="354.997,-557.689 338.677,-544.174 343.006,-564.916 354.997,-557.689"/>
</g>
<!-- _4814&#45;&gt;_4844 -->
<g id="edge12" class="edge"><title>_4814&#45;&gt;_4844</title>
<path fill="none" stroke="green" d="M499.327,-579.978C561.398,-530.953 629.449,-457.484 629.449,-371 629.449,-371 629.449,-371 629.449,-251 629.449,-131.864 474.111,-74.7913 380.231,-51.1772"/>
<polygon fill="green" stroke="green" points="381.722,-44.3366 360.644,-46.5083 378.476,-57.955 381.722,-44.3366"/>
</g>
</g>
</svg>
